<?xml version="1.0" encoding="utf-8" standalone="no"?>
<!DOCTYPE svg PUBLIC "-//W3C//DTD SVG 1.1//EN"
  "http://www.w3.org/Graphics/SVG/1.1/DTD/svg11.dtd">
<svg xmlns:xlink="http://www.w3.org/1999/xlink" width="864pt" height="576pt" viewBox="0 0 864 576" xmlns="http://www.w3.org/2000/svg" version="1.1">
 <metadata>
  <rdf:RDF xmlns:dc="http://purl.org/dc/elements/1.1/" xmlns:cc="http://creativecommons.org/ns#" xmlns:rdf="http://www.w3.org/1999/02/22-rdf-syntax-ns#">
   <cc:Work>
    <dc:type rdf:resource="http://purl.org/dc/dcmitype/StillImage"/>
    <dc:date>2024-04-20T19:06:41.927614</dc:date>
    <dc:format>image/svg+xml</dc:format>
    <dc:creator>
     <cc:Agent>
      <dc:title>Matplotlib v3.8.3, https://matplotlib.org/</dc:title>
     </cc:Agent>
    </dc:creator>
   </cc:Work>
  </rdf:RDF>
 </metadata>
 <defs>
  <style type="text/css">*{stroke-linejoin: round; stroke-linecap: butt}</style>
 </defs>
 <g id="figure_1">
  <g id="patch_1">
   <path d="M 0 576 
L 864 576 
L 864 0 
L 0 0 
z
" style="fill: #ffffff"/>
  </g>
  <g id="axes_1">
   <g id="patch_2">
    <path d="M 50.338786 525.04 
L 427.231893 525.04 
L 427.231893 311.64 
L 50.338786 311.64 
z
" style="fill: #e5e5e5"/>
   </g>
   <g id="matplotlib.axis_1">
    <g id="xtick_1">
     <g id="line2d_1">
      <path d="M 50.338786 525.04 
L 50.338786 311.64 
" clip-path="url(#pfade444eb9)" style="fill: none; stroke: #ffffff; stroke-width: 0.8; stroke-linecap: square"/>
     </g>
     <g id="line2d_2">
      <defs>
       <path id="m2de4cb1988" d="M 0 0 
L 0 3.5 
" style="stroke: #555555; stroke-width: 0.8"/>
      </defs>
      <g>
       <use xlink:href="#m2de4cb1988" x="50.338786" y="525.04" style="fill: #555555; stroke: #555555; stroke-width: 0.8"/>
      </g>
     </g>
     <g id="text_1">
      <!-- 0 -->
      <g style="fill: #555555" transform="translate(45.885036 542.677812) scale(0.14 -0.14)">
       <defs>
        <path id="DejaVuSans-30" d="M 2034 4250 
Q 1547 4250 1301 3770 
Q 1056 3291 1056 2328 
Q 1056 1369 1301 889 
Q 1547 409 2034 409 
Q 2525 409 2770 889 
Q 3016 1369 3016 2328 
Q 3016 3291 2770 3770 
Q 2525 4250 2034 4250 
z
M 2034 4750 
Q 2819 4750 3233 4129 
Q 3647 3509 3647 2328 
Q 3647 1150 3233 529 
Q 2819 -91 2034 -91 
Q 1250 -91 836 529 
Q 422 1150 422 2328 
Q 422 3509 836 4129 
Q 1250 4750 2034 4750 
z
" transform="scale(0.015625)"/>
       </defs>
       <use xlink:href="#DejaVuSans-30"/>
      </g>
     </g>
    </g>
    <g id="xtick_2">
     <g id="line2d_3">
      <path d="M 113.154304 525.04 
L 113.154304 311.64 
" clip-path="url(#pfade444eb9)" style="fill: none; stroke: #ffffff; stroke-width: 0.8; stroke-linecap: square"/>
     </g>
     <g id="line2d_4">
      <g>
       <use xlink:href="#m2de4cb1988" x="113.154304" y="525.04" style="fill: #555555; stroke: #555555; stroke-width: 0.8"/>
      </g>
     </g>
     <g id="text_2">
      <!-- 1 -->
      <g style="fill: #555555" transform="translate(108.700554 542.677812) scale(0.14 -0.14)">
       <defs>
        <path id="DejaVuSans-31" d="M 794 531 
L 1825 531 
L 1825 4091 
L 703 3866 
L 703 4441 
L 1819 4666 
L 2450 4666 
L 2450 531 
L 3481 531 
L 3481 0 
L 794 0 
L 794 531 
z
" transform="scale(0.015625)"/>
       </defs>
       <use xlink:href="#DejaVuSans-31"/>
      </g>
     </g>
    </g>
    <g id="xtick_3">
     <g id="line2d_5">
      <path d="M 175.969822 525.04 
L 175.969822 311.64 
" clip-path="url(#pfade444eb9)" style="fill: none; stroke: #ffffff; stroke-width: 0.8; stroke-linecap: square"/>
     </g>
     <g id="line2d_6">
      <g>
       <use xlink:href="#m2de4cb1988" x="175.969822" y="525.04" style="fill: #555555; stroke: #555555; stroke-width: 0.8"/>
      </g>
     </g>
     <g id="text_3">
      <!-- 2 -->
      <g style="fill: #555555" transform="translate(171.516072 542.677812) scale(0.14 -0.14)">
       <defs>
        <path id="DejaVuSans-32" d="M 1228 531 
L 3431 531 
L 3431 0 
L 469 0 
L 469 531 
Q 828 903 1448 1529 
Q 2069 2156 2228 2338 
Q 2531 2678 2651 2914 
Q 2772 3150 2772 3378 
Q 2772 3750 2511 3984 
Q 2250 4219 1831 4219 
Q 1534 4219 1204 4116 
Q 875 4013 500 3803 
L 500 4441 
Q 881 4594 1212 4672 
Q 1544 4750 1819 4750 
Q 2544 4750 2975 4387 
Q 3406 4025 3406 3419 
Q 3406 3131 3298 2873 
Q 3191 2616 2906 2266 
Q 2828 2175 2409 1742 
Q 1991 1309 1228 531 
z
" transform="scale(0.015625)"/>
       </defs>
       <use xlink:href="#DejaVuSans-32"/>
      </g>
     </g>
    </g>
    <g id="xtick_4">
     <g id="line2d_7">
      <path d="M 238.78534 525.04 
L 238.78534 311.64 
" clip-path="url(#pfade444eb9)" style="fill: none; stroke: #ffffff; stroke-width: 0.8; stroke-linecap: square"/>
     </g>
     <g id="line2d_8">
      <g>
       <use xlink:href="#m2de4cb1988" x="238.78534" y="525.04" style="fill: #555555; stroke: #555555; stroke-width: 0.8"/>
      </g>
     </g>
     <g id="text_4">
      <!-- 3 -->
      <g style="fill: #555555" transform="translate(234.33159 542.677812) scale(0.14 -0.14)">
       <defs>
        <path id="DejaVuSans-33" d="M 2597 2516 
Q 3050 2419 3304 2112 
Q 3559 1806 3559 1356 
Q 3559 666 3084 287 
Q 2609 -91 1734 -91 
Q 1441 -91 1130 -33 
Q 819 25 488 141 
L 488 750 
Q 750 597 1062 519 
Q 1375 441 1716 441 
Q 2309 441 2620 675 
Q 2931 909 2931 1356 
Q 2931 1769 2642 2001 
Q 2353 2234 1838 2234 
L 1294 2234 
L 1294 2753 
L 1863 2753 
Q 2328 2753 2575 2939 
Q 2822 3125 2822 3475 
Q 2822 3834 2567 4026 
Q 2313 4219 1838 4219 
Q 1578 4219 1281 4162 
Q 984 4106 628 3988 
L 628 4550 
Q 988 4650 1302 4700 
Q 1616 4750 1894 4750 
Q 2613 4750 3031 4423 
Q 3450 4097 3450 3541 
Q 3450 3153 3228 2886 
Q 3006 2619 2597 2516 
z
" transform="scale(0.015625)"/>
       </defs>
       <use xlink:href="#DejaVuSans-33"/>
      </g>
     </g>
    </g>
    <g id="xtick_5">
     <g id="line2d_9">
      <path d="M 301.600858 525.04 
L 301.600858 311.64 
" clip-path="url(#pfade444eb9)" style="fill: none; stroke: #ffffff; stroke-width: 0.8; stroke-linecap: square"/>
     </g>
     <g id="line2d_10">
      <g>
       <use xlink:href="#m2de4cb1988" x="301.600858" y="525.04" style="fill: #555555; stroke: #555555; stroke-width: 0.8"/>
      </g>
     </g>
     <g id="text_5">
      <!-- 4 -->
      <g style="fill: #555555" transform="translate(297.147108 542.677812) scale(0.14 -0.14)">
       <defs>
        <path id="DejaVuSans-34" d="M 2419 4116 
L 825 1625 
L 2419 1625 
L 2419 4116 
z
M 2253 4666 
L 3047 4666 
L 3047 1625 
L 3713 1625 
L 3713 1100 
L 3047 1100 
L 3047 0 
L 2419 0 
L 2419 1100 
L 313 1100 
L 313 1709 
L 2253 4666 
z
" transform="scale(0.015625)"/>
       </defs>
       <use xlink:href="#DejaVuSans-34"/>
      </g>
     </g>
    </g>
    <g id="xtick_6">
     <g id="line2d_11">
      <path d="M 364.416375 525.04 
L 364.416375 311.64 
" clip-path="url(#pfade444eb9)" style="fill: none; stroke: #ffffff; stroke-width: 0.8; stroke-linecap: square"/>
     </g>
     <g id="line2d_12">
      <g>
       <use xlink:href="#m2de4cb1988" x="364.416375" y="525.04" style="fill: #555555; stroke: #555555; stroke-width: 0.8"/>
      </g>
     </g>
     <g id="text_6">
      <!-- 5 -->
      <g style="fill: #555555" transform="translate(359.962625 542.677812) scale(0.14 -0.14)">
       <defs>
        <path id="DejaVuSans-35" d="M 691 4666 
L 3169 4666 
L 3169 4134 
L 1269 4134 
L 1269 2991 
Q 1406 3038 1543 3061 
Q 1681 3084 1819 3084 
Q 2600 3084 3056 2656 
Q 3513 2228 3513 1497 
Q 3513 744 3044 326 
Q 2575 -91 1722 -91 
Q 1428 -91 1123 -41 
Q 819 9 494 109 
L 494 744 
Q 775 591 1075 516 
Q 1375 441 1709 441 
Q 2250 441 2565 725 
Q 2881 1009 2881 1497 
Q 2881 1984 2565 2268 
Q 2250 2553 1709 2553 
Q 1456 2553 1204 2497 
Q 953 2441 691 2322 
L 691 4666 
z
" transform="scale(0.015625)"/>
       </defs>
       <use xlink:href="#DejaVuSans-35"/>
      </g>
     </g>
    </g>
    <g id="xtick_7">
     <g id="line2d_13">
      <path d="M 427.231893 525.04 
L 427.231893 311.64 
" clip-path="url(#pfade444eb9)" style="fill: none; stroke: #ffffff; stroke-width: 0.8; stroke-linecap: square"/>
     </g>
     <g id="line2d_14">
      <g>
       <use xlink:href="#m2de4cb1988" x="427.231893" y="525.04" style="fill: #555555; stroke: #555555; stroke-width: 0.8"/>
      </g>
     </g>
     <g id="text_7">
      <!-- 6 -->
      <g style="fill: #555555" transform="translate(422.778143 542.677812) scale(0.14 -0.14)">
       <defs>
        <path id="DejaVuSans-36" d="M 2113 2584 
Q 1688 2584 1439 2293 
Q 1191 2003 1191 1497 
Q 1191 994 1439 701 
Q 1688 409 2113 409 
Q 2538 409 2786 701 
Q 3034 994 3034 1497 
Q 3034 2003 2786 2293 
Q 2538 2584 2113 2584 
z
M 3366 4563 
L 3366 3988 
Q 3128 4100 2886 4159 
Q 2644 4219 2406 4219 
Q 1781 4219 1451 3797 
Q 1122 3375 1075 2522 
Q 1259 2794 1537 2939 
Q 1816 3084 2150 3084 
Q 2853 3084 3261 2657 
Q 3669 2231 3669 1497 
Q 3669 778 3244 343 
Q 2819 -91 2113 -91 
Q 1303 -91 875 529 
Q 447 1150 447 2328 
Q 447 3434 972 4092 
Q 1497 4750 2381 4750 
Q 2619 4750 2861 4703 
Q 3103 4656 3366 4563 
z
" transform="scale(0.015625)"/>
       </defs>
       <use xlink:href="#DejaVuSans-36"/>
      </g>
     </g>
    </g>
    <g id="text_8">
     <!-- Wave-vector -->
     <g style="fill: #555555" transform="translate(188.77284 561.746875) scale(0.16 -0.16)">
      <defs>
       <path id="DejaVuSans-57" d="M 213 4666 
L 850 4666 
L 1831 722 
L 2809 4666 
L 3519 4666 
L 4500 722 
L 5478 4666 
L 6119 4666 
L 4947 0 
L 4153 0 
L 3169 4050 
L 2175 0 
L 1381 0 
L 213 4666 
z
" transform="scale(0.015625)"/>
       <path id="DejaVuSans-61" d="M 2194 1759 
Q 1497 1759 1228 1600 
Q 959 1441 959 1056 
Q 959 750 1161 570 
Q 1363 391 1709 391 
Q 2188 391 2477 730 
Q 2766 1069 2766 1631 
L 2766 1759 
L 2194 1759 
z
M 3341 1997 
L 3341 0 
L 2766 0 
L 2766 531 
Q 2569 213 2275 61 
Q 1981 -91 1556 -91 
Q 1019 -91 701 211 
Q 384 513 384 1019 
Q 384 1609 779 1909 
Q 1175 2209 1959 2209 
L 2766 2209 
L 2766 2266 
Q 2766 2663 2505 2880 
Q 2244 3097 1772 3097 
Q 1472 3097 1187 3025 
Q 903 2953 641 2809 
L 641 3341 
Q 956 3463 1253 3523 
Q 1550 3584 1831 3584 
Q 2591 3584 2966 3190 
Q 3341 2797 3341 1997 
z
" transform="scale(0.015625)"/>
       <path id="DejaVuSans-76" d="M 191 3500 
L 800 3500 
L 1894 563 
L 2988 3500 
L 3597 3500 
L 2284 0 
L 1503 0 
L 191 3500 
z
" transform="scale(0.015625)"/>
       <path id="DejaVuSans-65" d="M 3597 1894 
L 3597 1613 
L 953 1613 
Q 991 1019 1311 708 
Q 1631 397 2203 397 
Q 2534 397 2845 478 
Q 3156 559 3463 722 
L 3463 178 
Q 3153 47 2828 -22 
Q 2503 -91 2169 -91 
Q 1331 -91 842 396 
Q 353 884 353 1716 
Q 353 2575 817 3079 
Q 1281 3584 2069 3584 
Q 2775 3584 3186 3129 
Q 3597 2675 3597 1894 
z
M 3022 2063 
Q 3016 2534 2758 2815 
Q 2500 3097 2075 3097 
Q 1594 3097 1305 2825 
Q 1016 2553 972 2059 
L 3022 2063 
z
" transform="scale(0.015625)"/>
       <path id="DejaVuSans-2d" d="M 313 2009 
L 1997 2009 
L 1997 1497 
L 313 1497 
L 313 2009 
z
" transform="scale(0.015625)"/>
       <path id="DejaVuSans-63" d="M 3122 3366 
L 3122 2828 
Q 2878 2963 2633 3030 
Q 2388 3097 2138 3097 
Q 1578 3097 1268 2742 
Q 959 2388 959 1747 
Q 959 1106 1268 751 
Q 1578 397 2138 397 
Q 2388 397 2633 464 
Q 2878 531 3122 666 
L 3122 134 
Q 2881 22 2623 -34 
Q 2366 -91 2075 -91 
Q 1284 -91 818 406 
Q 353 903 353 1747 
Q 353 2603 823 3093 
Q 1294 3584 2113 3584 
Q 2378 3584 2631 3529 
Q 2884 3475 3122 3366 
z
" transform="scale(0.015625)"/>
       <path id="DejaVuSans-74" d="M 1172 4494 
L 1172 3500 
L 2356 3500 
L 2356 3053 
L 1172 3053 
L 1172 1153 
Q 1172 725 1289 603 
Q 1406 481 1766 481 
L 2356 481 
L 2356 0 
L 1766 0 
Q 1100 0 847 248 
Q 594 497 594 1153 
L 594 3053 
L 172 3053 
L 172 3500 
L 594 3500 
L 594 4494 
L 1172 4494 
z
" transform="scale(0.015625)"/>
       <path id="DejaVuSans-6f" d="M 1959 3097 
Q 1497 3097 1228 2736 
Q 959 2375 959 1747 
Q 959 1119 1226 758 
Q 1494 397 1959 397 
Q 2419 397 2687 759 
Q 2956 1122 2956 1747 
Q 2956 2369 2687 2733 
Q 2419 3097 1959 3097 
z
M 1959 3584 
Q 2709 3584 3137 3096 
Q 3566 2609 3566 1747 
Q 3566 888 3137 398 
Q 2709 -91 1959 -91 
Q 1206 -91 779 398 
Q 353 888 353 1747 
Q 353 2609 779 3096 
Q 1206 3584 1959 3584 
z
" transform="scale(0.015625)"/>
       <path id="DejaVuSans-72" d="M 2631 2963 
Q 2534 3019 2420 3045 
Q 2306 3072 2169 3072 
Q 1681 3072 1420 2755 
Q 1159 2438 1159 1844 
L 1159 0 
L 581 0 
L 581 3500 
L 1159 3500 
L 1159 2956 
Q 1341 3275 1631 3429 
Q 1922 3584 2338 3584 
Q 2397 3584 2469 3576 
Q 2541 3569 2628 3553 
L 2631 2963 
z
" transform="scale(0.015625)"/>
      </defs>
      <use xlink:href="#DejaVuSans-57"/>
      <use xlink:href="#DejaVuSans-61" x="92.501953"/>
      <use xlink:href="#DejaVuSans-76" x="153.78125"/>
      <use xlink:href="#DejaVuSans-65" x="212.960938"/>
      <use xlink:href="#DejaVuSans-2d" x="274.484375"/>
      <use xlink:href="#DejaVuSans-76" x="307.943359"/>
      <use xlink:href="#DejaVuSans-65" x="367.123047"/>
      <use xlink:href="#DejaVuSans-63" x="428.646484"/>
      <use xlink:href="#DejaVuSans-74" x="483.626953"/>
      <use xlink:href="#DejaVuSans-6f" x="522.835938"/>
      <use xlink:href="#DejaVuSans-72" x="584.017578"/>
     </g>
    </g>
   </g>
   <g id="matplotlib.axis_2">
    <g id="ytick_1">
     <g id="line2d_15">
      <path d="M 50.338786 515.34 
L 427.231893 515.34 
" clip-path="url(#pfade444eb9)" style="fill: none; stroke: #ffffff; stroke-width: 0.8; stroke-linecap: square"/>
     </g>
     <g id="line2d_16">
      <defs>
       <path id="m62e0bad58e" d="M 0 0 
L -3.5 0 
" style="stroke: #555555; stroke-width: 0.8"/>
      </defs>
      <g>
       <use xlink:href="#m62e0bad58e" x="50.338786" y="515.34" style="fill: #555555; stroke: #555555; stroke-width: 0.8"/>
      </g>
     </g>
     <g id="text_9">
      <!-- 0.0 -->
      <g style="fill: #555555" transform="translate(21.074411 520.658906) scale(0.14 -0.14)">
       <defs>
        <path id="DejaVuSans-2e" d="M 684 794 
L 1344 794 
L 1344 0 
L 684 0 
L 684 794 
z
" transform="scale(0.015625)"/>
       </defs>
       <use xlink:href="#DejaVuSans-30"/>
       <use xlink:href="#DejaVuSans-2e" x="63.623047"/>
       <use xlink:href="#DejaVuSans-30" x="95.410156"/>
      </g>
     </g>
    </g>
    <g id="ytick_2">
     <g id="line2d_17">
      <path d="M 50.338786 479.824329 
L 427.231893 479.824329 
" clip-path="url(#pfade444eb9)" style="fill: none; stroke: #ffffff; stroke-width: 0.8; stroke-linecap: square"/>
     </g>
     <g id="line2d_18">
      <g>
       <use xlink:href="#m62e0bad58e" x="50.338786" y="479.824329" style="fill: #555555; stroke: #555555; stroke-width: 0.8"/>
      </g>
     </g>
     <g id="text_10">
      <!-- 0.5 -->
      <g style="fill: #555555" transform="translate(21.074411 485.143235) scale(0.14 -0.14)">
       <use xlink:href="#DejaVuSans-30"/>
       <use xlink:href="#DejaVuSans-2e" x="63.623047"/>
       <use xlink:href="#DejaVuSans-35" x="95.410156"/>
      </g>
     </g>
    </g>
    <g id="ytick_3">
     <g id="line2d_19">
      <path d="M 50.338786 444.308658 
L 427.231893 444.308658 
" clip-path="url(#pfade444eb9)" style="fill: none; stroke: #ffffff; stroke-width: 0.8; stroke-linecap: square"/>
     </g>
     <g id="line2d_20">
      <g>
       <use xlink:href="#m62e0bad58e" x="50.338786" y="444.308658" style="fill: #555555; stroke: #555555; stroke-width: 0.8"/>
      </g>
     </g>
     <g id="text_11">
      <!-- 1.0 -->
      <g style="fill: #555555" transform="translate(21.074411 449.627564) scale(0.14 -0.14)">
       <use xlink:href="#DejaVuSans-31"/>
       <use xlink:href="#DejaVuSans-2e" x="63.623047"/>
       <use xlink:href="#DejaVuSans-30" x="95.410156"/>
      </g>
     </g>
    </g>
    <g id="ytick_4">
     <g id="line2d_21">
      <path d="M 50.338786 408.792987 
L 427.231893 408.792987 
" clip-path="url(#pfade444eb9)" style="fill: none; stroke: #ffffff; stroke-width: 0.8; stroke-linecap: square"/>
     </g>
     <g id="line2d_22">
      <g>
       <use xlink:href="#m62e0bad58e" x="50.338786" y="408.792987" style="fill: #555555; stroke: #555555; stroke-width: 0.8"/>
      </g>
     </g>
     <g id="text_12">
      <!-- 1.5 -->
      <g style="fill: #555555" transform="translate(21.074411 414.111893) scale(0.14 -0.14)">
       <use xlink:href="#DejaVuSans-31"/>
       <use xlink:href="#DejaVuSans-2e" x="63.623047"/>
       <use xlink:href="#DejaVuSans-35" x="95.410156"/>
      </g>
     </g>
    </g>
    <g id="ytick_5">
     <g id="line2d_23">
      <path d="M 50.338786 373.277316 
L 427.231893 373.277316 
" clip-path="url(#pfade444eb9)" style="fill: none; stroke: #ffffff; stroke-width: 0.8; stroke-linecap: square"/>
     </g>
     <g id="line2d_24">
      <g>
       <use xlink:href="#m62e0bad58e" x="50.338786" y="373.277316" style="fill: #555555; stroke: #555555; stroke-width: 0.8"/>
      </g>
     </g>
     <g id="text_13">
      <!-- 2.0 -->
      <g style="fill: #555555" transform="translate(21.074411 378.596222) scale(0.14 -0.14)">
       <use xlink:href="#DejaVuSans-32"/>
       <use xlink:href="#DejaVuSans-2e" x="63.623047"/>
       <use xlink:href="#DejaVuSans-30" x="95.410156"/>
      </g>
     </g>
    </g>
    <g id="ytick_6">
     <g id="line2d_25">
      <path d="M 50.338786 337.761645 
L 427.231893 337.761645 
" clip-path="url(#pfade444eb9)" style="fill: none; stroke: #ffffff; stroke-width: 0.8; stroke-linecap: square"/>
     </g>
     <g id="line2d_26">
      <g>
       <use xlink:href="#m62e0bad58e" x="50.338786" y="337.761645" style="fill: #555555; stroke: #555555; stroke-width: 0.8"/>
      </g>
     </g>
     <g id="text_14">
      <!-- 2.5 -->
      <g style="fill: #555555" transform="translate(21.074411 343.080551) scale(0.14 -0.14)">
       <use xlink:href="#DejaVuSans-32"/>
       <use xlink:href="#DejaVuSans-2e" x="63.623047"/>
       <use xlink:href="#DejaVuSans-35" x="95.410156"/>
      </g>
     </g>
    </g>
   </g>
   <g id="line2d_27">
    <path d="M 50.338786 515.34 
L 56.620338 514.96585 
L 62.90189 513.863401 
L 69.183442 512.044047 
L 75.464993 509.535263 
L 81.746545 506.376263 
L 88.028097 502.618716 
L 94.309649 498.327454 
L 100.591201 493.581187 
L 106.872752 488.472817 
L 113.154304 483.109415 
L 119.435856 477.610868 
L 125.717408 472.107895 
L 131.998959 466.738673 
L 138.280511 461.645328 
L 144.562063 456.971063 
L 150.843615 452.859833 
L 157.125167 449.457023 
L 163.406718 446.905795 
L 169.68827 445.324306 
L 175.969822 444.739858 
L 182.251374 444.992083 
L 188.532926 445.698757 
L 194.814477 446.374616 
L 201.096029 446.613199 
L 207.377581 446.170686 
L 213.659133 444.941414 
L 219.940684 442.904791 
L 226.222236 440.085798 
L 232.503788 436.532607 
L 238.78534 432.30509 
L 245.066892 427.469515 
L 251.348443 422.096221 
L 257.629995 416.258823 
L 263.911547 410.033968 
L 270.193099 403.501278 
L 276.47465 396.74309 
L 282.756202 389.84407 
L 289.037754 382.890547 
L 295.319306 375.96939 
L 301.600858 369.166891 
L 307.882409 362.567262 
L 314.163961 356.251325 
L 320.445513 350.29482 
L 326.727065 344.766931 
L 333.008616 339.729242 
L 339.290168 335.234537 
L 345.57172 331.325986 
L 351.853272 328.036907 
L 358.134824 325.390068 
L 364.416375 323.39841 
L 370.697927 322.064969 
L 376.979479 321.383687 
L 383.261031 321.34 
L 389.542582 321.91193 
L 395.824134 323.071092 
L 402.105686 324.78357 
L 408.387238 327.01141 
L 414.66879 329.712882 
L 420.950341 332.844527 
L 427.231893 336.361256 
L 433.513445 340.217558 
L 439.794997 344.368203 
L 446.076549 348.768946 
L 452.3581 353.376852 
L 458.639652 358.15106 
L 464.921204 363.052929 
L 471.202756 368.0464 
L 477.484307 373.097944 
L 483.765859 378.177014 
L 490.047411 383.255792 
L 496.328963 388.309314 
L 502.610515 393.315423 
L 508.892066 398.254452 
L 515.173618 403.109397 
L 521.45517 407.865501 
L 527.736722 412.510148 
L 534.018273 417.032647 
L 540.299825 421.424223 
L 546.581377 425.677458 
L 552.862929 429.786373 
L 559.144481 433.746202 
L 565.426032 437.55305 
L 571.707584 441.203917 
L 577.989136 444.696318 
L 584.270688 448.028288 
L 590.552239 451.198167 
L 596.833791 454.204416 
L 603.115343 457.045513 
L 609.396895 459.719853 
L 615.678447 462.225578 
L 621.959998 464.560422 
L 628.24155 466.7216 
L 634.523102 468.705631 
L 640.804654 470.50814 
L 647.086205 472.123578 
L 653.367757 473.544915 
L 659.649309 474.762907 
L 665.930861 475.765902 
L 672.212413 476.534823 
L 678.493964 477.051851 
L 684.775516 477.235232 
" clip-path="url(#pfade444eb9)" style="fill: none; stroke: #440154; stroke-width: 2; stroke-linecap: square"/>
   </g>
   <g id="line2d_28">
    <path d="M 50.338786 515.34 
L 56.620338 514.910976 
L 62.90189 513.649627 
L 69.183442 511.583929 
L 75.464993 508.767006 
L 81.746545 505.269989 
L 88.028097 501.179363 
L 94.309649 496.594393 
L 100.591201 491.624866 
L 106.872752 486.389079 
L 113.154304 481.01184 
L 119.435856 475.621946 
L 125.717408 470.349218 
L 131.998959 465.320837 
L 138.280511 460.657734 
L 144.562063 456.472101 
L 150.843615 452.866749 
L 157.125167 449.935865 
L 163.406718 447.761937 
L 169.68827 446.397917 
L 175.969822 445.82009 
L 182.251374 445.863763 
L 188.532926 446.214123 
L 194.814477 446.508031 
L 201.096029 446.467324 
L 207.377581 445.947775 
L 213.659133 444.909182 
L 219.940684 443.369954 
L 226.222236 441.375356 
L 232.503788 438.980309 
L 238.78534 436.240913 
L 245.066892 433.210718 
L 251.348443 429.939296 
L 257.629995 426.472034 
L 263.911547 422.850377 
L 270.193099 419.112359 
L 276.47465 415.293163 
L 282.756202 411.425651 
L 289.037754 407.540877 
L 295.319306 403.66846 
L 301.600858 399.836642 
L 307.882409 396.073044 
L 314.163961 392.404176 
L 320.445513 388.855732 
L 326.727065 385.452481 
L 333.008616 382.218108 
L 339.290168 379.175194 
L 345.57172 376.344693 
L 351.853272 373.746023 
L 358.134824 371.396691 
L 364.416375 369.312066 
L 370.697927 367.505222 
L 376.979479 365.986744 
L 383.261031 364.764617 
L 389.542582 363.844128 
L 395.824134 363.227837 
L 402.105686 362.915597 
L 408.387238 362.904629 
L 414.66879 363.189615 
L 420.950341 363.76287 
L 427.231893 364.614526 
L 433.513445 365.732748 
L 439.794997 367.103972 
L 446.076549 368.7132 
L 452.3581 370.544201 
L 458.639652 372.579803 
L 464.921204 374.802261 
L 471.202756 377.193086 
L 477.484307 379.734044 
L 483.765859 382.406601 
L 490.047411 385.192565 
L 496.328963 388.074035 
L 502.610515 391.033721 
L 508.892066 394.054948 
L 515.173618 397.121773 
L 521.45517 400.219083 
L 527.736722 403.332637 
L 534.018273 406.449062 
L 540.299825 409.555911 
L 546.581377 412.641625 
L 552.862929 415.695525 
L 559.144481 418.70776 
L 565.426032 421.669287 
L 571.707584 424.571791 
L 577.989136 427.407621 
L 584.270688 430.16974 
L 590.552239 432.851628 
L 596.833791 435.447213 
L 603.115343 437.950779 
L 609.396895 440.356902 
L 615.678447 442.660288 
L 621.959998 444.855757 
L 628.24155 446.938072 
L 634.523102 448.901829 
L 640.804654 450.7413 
L 647.086205 452.450228 
L 653.367757 454.021589 
L 659.649309 455.447082 
L 665.930861 456.716979 
L 672.212413 457.816809 
L 678.493964 458.732867 
L 684.775516 459.409978 
" clip-path="url(#pfade444eb9)" style="fill: none; stroke: #414487; stroke-width: 2; stroke-linecap: square"/>
   </g>
   <g id="line2d_29">
    <path d="M 50.338786 515.34 
L 56.620338 514.910869 
L 62.90189 513.647954 
L 69.183442 511.575829 
L 75.464993 508.743054 
L 81.746545 505.216543 
L 88.028097 501.080465 
L 94.309649 496.434779 
L 100.591201 491.39335 
L 106.872752 486.081521 
L 113.154304 480.633056 
L 119.435856 475.18615 
L 125.717408 469.878836 
L 131.998959 464.843794 
L 138.280511 460.203502 
L 144.562063 456.066863 
L 150.843615 452.528219 
L 157.125167 449.667633 
L 163.406718 447.548467 
L 169.68827 446.201383 
L 175.969822 445.583216 
L 182.251374 445.52356 
L 188.532926 445.724832 
L 194.814477 445.860344 
L 201.096029 445.692802 
L 207.377581 445.111405 
L 213.659133 444.099019 
L 219.940684 442.68822 
L 226.222236 440.931973 
L 232.503788 438.888087 
L 238.78534 436.611969 
L 245.066892 434.153683 
L 251.348443 431.557105 
L 257.629995 428.860085 
L 263.911547 426.095004 
L 270.193099 423.289512 
L 276.47465 420.467255 
L 282.756202 417.648594 
L 289.037754 414.851221 
L 295.319306 412.090714 
L 301.600858 409.380784 
L 307.882409 406.734101 
L 314.163961 404.162104 
L 320.445513 401.675475 
L 326.727065 399.284258 
L 333.008616 396.997963 
L 339.290168 394.82565 
L 345.57172 392.775943 
L 351.853272 390.857044 
L 358.134824 389.076715 
L 364.416375 387.442211 
L 370.697927 385.960241 
L 376.979479 384.63689 
L 383.261031 383.47756 
L 389.542582 382.48685 
L 395.824134 381.668612 
L 402.105686 381.025693 
L 408.387238 380.560039 
L 414.66879 380.2726 
L 420.950341 380.163298 
L 427.231893 380.231031 
L 433.513445 380.473659 
L 439.794997 380.887993 
L 446.076549 381.469929 
L 452.3581 382.214389 
L 458.639652 383.115405 
L 464.921204 384.166331 
L 471.202756 385.359516 
L 477.484307 386.687006 
L 483.765859 388.140108 
L 490.047411 389.709745 
L 496.328963 391.386411 
L 502.610515 393.160449 
L 508.892066 395.021902 
L 515.173618 396.960964 
L 521.45517 398.967523 
L 527.736722 401.031704 
L 534.018273 403.143725 
L 540.299825 405.293996 
L 546.581377 407.473161 
L 552.862929 409.672122 
L 559.144481 411.882095 
L 565.426032 414.094583 
L 571.707584 416.301443 
L 577.989136 418.494846 
L 584.270688 420.667291 
L 590.552239 422.811591 
L 596.833791 424.920809 
L 603.115343 426.988322 
L 609.396895 429.007697 
L 615.678447 430.972673 
L 621.959998 432.877121 
L 628.24155 434.714966 
L 634.523102 436.480114 
L 640.804654 438.166337 
L 647.086205 439.76716 
L 653.367757 441.275637 
L 659.649309 442.684081 
L 665.930861 443.983887 
L 672.212413 445.163267 
L 678.493964 446.210954 
L 684.775516 447.08742 
" clip-path="url(#pfade444eb9)" style="fill: none; stroke: #2a788e; stroke-width: 2; stroke-linecap: square"/>
   </g>
   <g id="line2d_30">
    <path d="M 50.338786 515.34 
L 56.620338 514.910849 
L 62.90189 513.647642 
L 69.183442 511.574303 
L 75.464993 508.738461 
L 81.746545 505.206021 
L 88.028097 501.060318 
L 94.309649 496.400894 
L 100.591201 491.341814 
L 106.872752 486.009323 
L 113.154304 480.538763 
L 119.435856 475.070381 
L 125.717408 469.744418 
L 131.998959 464.695482 
L 138.280511 460.04724 
L 144.562063 455.908572 
L 150.843615 452.372177 
L 157.125167 449.514512 
L 163.406718 447.393202 
L 169.68827 446.031482 
L 175.969822 445.378976 
L 182.251374 445.262262 
L 188.532926 445.388799 
L 194.814477 445.44454 
L 201.096029 445.207563 
L 207.377581 444.580727 
L 213.659133 443.557271 
L 219.940684 442.177069 
L 226.222236 440.497851 
L 232.503788 438.580187 
L 238.78534 436.480607 
L 245.066892 434.248949 
L 251.348443 431.927738 
L 257.629995 429.552528 
L 263.911547 427.152615 
L 270.193099 424.751897 
L 276.47465 422.369716 
L 282.756202 420.02167 
L 289.037754 417.720291 
L 295.319306 415.475692 
L 301.600858 413.295896 
L 307.882409 411.187658 
L 314.163961 409.156397 
L 320.445513 407.206702 
L 326.727065 405.342513 
L 333.008616 403.56729 
L 339.290168 401.884154 
L 345.57172 400.29598 
L 351.853272 398.805468 
L 358.134824 397.415193 
L 364.416375 396.127614 
L 370.697927 394.945087 
L 376.979479 393.869861 
L 383.261031 392.904055 
L 389.542582 392.049607 
L 395.824134 391.308326 
L 402.105686 390.681716 
L 408.387238 390.171058 
L 414.66879 389.777317 
L 420.950341 389.50111 
L 427.231893 389.342661 
L 433.513445 389.301863 
L 439.794997 389.378024 
L 446.076549 389.57013 
L 452.3581 389.876635 
L 458.639652 390.295514 
L 464.921204 390.824352 
L 471.202756 391.46006 
L 477.484307 392.199326 
L 483.765859 393.038273 
L 490.047411 393.972631 
L 496.328963 394.997752 
L 502.610515 396.108643 
L 508.892066 397.29995 
L 515.173618 398.566212 
L 521.45517 399.901471 
L 527.736722 401.299803 
L 534.018273 402.755004 
L 540.299825 404.260796 
L 546.581377 405.810864 
L 552.862929 407.398775 
L 559.144481 409.018142 
L 565.426032 410.662571 
L 571.707584 412.325714 
L 577.989136 414.001291 
L 584.270688 415.683083 
L 590.552239 417.364977 
L 596.833791 419.040897 
L 603.115343 420.704953 
L 609.396895 422.351238 
L 615.678447 423.973905 
L 621.959998 425.567237 
L 628.24155 427.125459 
L 634.523102 428.642769 
L 640.804654 430.11327 
L 647.086205 431.530877 
L 653.367757 432.889198 
L 659.649309 434.181284 
L 665.930861 435.399549 
L 672.212413 436.534155 
L 678.493964 437.575604 
L 684.775516 438.494173 
" clip-path="url(#pfade444eb9)" style="fill: none; stroke: #22a884; stroke-width: 2; stroke-linecap: square"/>
   </g>
   <g id="line2d_31">
    <path d="M 50.338786 515.34 
L 56.620338 514.910842 
L 62.90189 513.647533 
L 69.183442 511.573768 
L 75.464993 508.736845 
L 81.746545 505.202307 
L 88.028097 501.05317 
L 94.309649 496.388794 
L 100.591201 491.323258 
L 106.872752 485.983075 
L 113.154304 480.504047 
L 119.435856 475.027132 
L 125.717408 469.693306 
L 131.998959 464.637859 
L 138.280511 459.984876 
L 144.562063 455.843213 
L 150.843615 452.304898 
L 157.125167 449.444897 
L 163.406718 447.318401 
L 169.68827 445.945393 
L 175.969822 445.272206 
L 182.251374 445.123816 
L 188.532926 445.209596 
L 194.814477 445.220943 
L 201.096029 444.942911 
L 207.377581 444.284948 
L 213.659133 443.24542 
L 219.940684 441.868411 
L 226.222236 440.214559 
L 232.503788 438.346481 
L 238.78534 436.321967 
L 245.066892 434.191427 
L 251.348443 431.997353 
L 257.629995 429.774736 
L 263.911547 427.55184 
L 270.193099 425.351136 
L 276.47465 423.190186 
L 282.756202 421.082516 
L 289.037754 419.038341 
L 295.319306 417.065245 
L 301.600858 415.168566 
L 307.882409 413.352228 
L 314.163961 411.618728 
L 320.445513 409.969662 
L 326.727065 408.405932 
L 333.008616 406.927947 
L 339.290168 405.53579 
L 345.57172 404.229335 
L 351.853272 403.008347 
L 358.134824 401.872553 
L 364.416375 400.821687 
L 370.697927 399.855519 
L 376.979479 398.973882 
L 383.261031 398.176672 
L 389.542582 397.463824 
L 395.824134 396.835374 
L 402.105686 396.291322 
L 408.387238 395.831718 
L 414.66879 395.456583 
L 420.950341 395.165894 
L 427.231893 394.959545 
L 433.513445 394.837388 
L 439.794997 394.799034 
L 446.076549 394.844044 
L 452.3581 394.97175 
L 458.639652 395.181282 
L 464.921204 395.471618 
L 471.202756 395.841343 
L 477.484307 396.288984 
L 483.765859 396.812702 
L 490.047411 397.410428 
L 496.328963 398.079829 
L 502.610515 398.818325 
L 508.892066 399.623055 
L 515.173618 400.491029 
L 521.45517 401.418848 
L 527.736722 402.403048 
L 534.018273 403.439921 
L 540.299825 404.525536 
L 546.581377 405.655886 
L 552.862929 406.826743 
L 559.144481 408.033804 
L 565.426032 409.272635 
L 571.707584 410.538723 
L 577.989136 411.827487 
L 584.270688 413.134278 
L 590.552239 414.454413 
L 596.833791 415.783136 
L 603.115343 417.115721 
L 609.396895 418.447356 
L 615.678447 419.773233 
L 621.959998 421.088457 
L 628.24155 422.388112 
L 634.523102 423.667183 
L 640.804654 424.920535 
L 647.086205 426.142845 
L 653.367757 427.328542 
L 659.649309 428.471562 
L 665.930861 429.565355 
L 672.212413 430.601809 
L 678.493964 431.572732 
L 684.775516 432.455043 
" clip-path="url(#pfade444eb9)" style="fill: none; stroke: #7ad151; stroke-width: 2; stroke-linecap: square"/>
   </g>
   <g id="patch_3">
    <path d="M 50.338786 525.04 
L 50.338786 311.64 
" style="fill: none; stroke: #ffffff; stroke-linejoin: miter; stroke-linecap: square"/>
   </g>
   <g id="patch_4">
    <path d="M 427.231893 525.04 
L 427.231893 311.64 
" style="fill: none; stroke: #ffffff; stroke-linejoin: miter; stroke-linecap: square"/>
   </g>
   <g id="patch_5">
    <path d="M 50.338786 525.04 
L 427.231893 525.04 
" style="fill: none; stroke: #ffffff; stroke-linejoin: miter; stroke-linecap: square"/>
   </g>
   <g id="patch_6">
    <path d="M 50.338786 311.64 
L 427.231893 311.64 
" style="fill: none; stroke: #ffffff; stroke-linejoin: miter; stroke-linecap: square"/>
   </g>
   <g id="text_15">
    <!-- Density response -->
    <g transform="translate(160.45784 305.64) scale(0.16 -0.16)">
     <defs>
      <path id="DejaVuSans-Bold-44" d="M 1791 3756 
L 1791 909 
L 2222 909 
Q 2959 909 3348 1275 
Q 3738 1641 3738 2338 
Q 3738 3031 3350 3393 
Q 2963 3756 2222 3756 
L 1791 3756 
z
M 588 4666 
L 1856 4666 
Q 2919 4666 3439 4514 
Q 3959 4363 4331 4000 
Q 4659 3684 4818 3271 
Q 4978 2859 4978 2338 
Q 4978 1809 4818 1395 
Q 4659 981 4331 666 
Q 3956 303 3431 151 
Q 2906 0 1856 0 
L 588 0 
L 588 4666 
z
" transform="scale(0.015625)"/>
      <path id="DejaVuSans-Bold-65" d="M 4031 1759 
L 4031 1441 
L 1416 1441 
Q 1456 1047 1700 850 
Q 1944 653 2381 653 
Q 2734 653 3104 758 
Q 3475 863 3866 1075 
L 3866 213 
Q 3469 63 3072 -14 
Q 2675 -91 2278 -91 
Q 1328 -91 801 392 
Q 275 875 275 1747 
Q 275 2603 792 3093 
Q 1309 3584 2216 3584 
Q 3041 3584 3536 3087 
Q 4031 2591 4031 1759 
z
M 2881 2131 
Q 2881 2450 2695 2645 
Q 2509 2841 2209 2841 
Q 1884 2841 1681 2658 
Q 1478 2475 1428 2131 
L 2881 2131 
z
" transform="scale(0.015625)"/>
      <path id="DejaVuSans-Bold-6e" d="M 4056 2131 
L 4056 0 
L 2931 0 
L 2931 347 
L 2931 1631 
Q 2931 2084 2911 2256 
Q 2891 2428 2841 2509 
Q 2775 2619 2662 2680 
Q 2550 2741 2406 2741 
Q 2056 2741 1856 2470 
Q 1656 2200 1656 1722 
L 1656 0 
L 538 0 
L 538 3500 
L 1656 3500 
L 1656 2988 
Q 1909 3294 2193 3439 
Q 2478 3584 2822 3584 
Q 3428 3584 3742 3212 
Q 4056 2841 4056 2131 
z
" transform="scale(0.015625)"/>
      <path id="DejaVuSans-Bold-73" d="M 3272 3391 
L 3272 2541 
Q 2913 2691 2578 2766 
Q 2244 2841 1947 2841 
Q 1628 2841 1473 2761 
Q 1319 2681 1319 2516 
Q 1319 2381 1436 2309 
Q 1553 2238 1856 2203 
L 2053 2175 
Q 2913 2066 3209 1816 
Q 3506 1566 3506 1031 
Q 3506 472 3093 190 
Q 2681 -91 1863 -91 
Q 1516 -91 1145 -36 
Q 775 19 384 128 
L 384 978 
Q 719 816 1070 734 
Q 1422 653 1784 653 
Q 2113 653 2278 743 
Q 2444 834 2444 1013 
Q 2444 1163 2330 1236 
Q 2216 1309 1875 1350 
L 1678 1375 
Q 931 1469 631 1722 
Q 331 1975 331 2491 
Q 331 3047 712 3315 
Q 1094 3584 1881 3584 
Q 2191 3584 2531 3537 
Q 2872 3491 3272 3391 
z
" transform="scale(0.015625)"/>
      <path id="DejaVuSans-Bold-69" d="M 538 3500 
L 1656 3500 
L 1656 0 
L 538 0 
L 538 3500 
z
M 538 4863 
L 1656 4863 
L 1656 3950 
L 538 3950 
L 538 4863 
z
" transform="scale(0.015625)"/>
      <path id="DejaVuSans-Bold-74" d="M 1759 4494 
L 1759 3500 
L 2913 3500 
L 2913 2700 
L 1759 2700 
L 1759 1216 
Q 1759 972 1856 886 
Q 1953 800 2241 800 
L 2816 800 
L 2816 0 
L 1856 0 
Q 1194 0 917 276 
Q 641 553 641 1216 
L 641 2700 
L 84 2700 
L 84 3500 
L 641 3500 
L 641 4494 
L 1759 4494 
z
" transform="scale(0.015625)"/>
      <path id="DejaVuSans-Bold-79" d="M 78 3500 
L 1197 3500 
L 2138 1125 
L 2938 3500 
L 4056 3500 
L 2584 -331 
Q 2363 -916 2067 -1148 
Q 1772 -1381 1288 -1381 
L 641 -1381 
L 641 -647 
L 991 -647 
Q 1275 -647 1404 -556 
Q 1534 -466 1606 -231 
L 1638 -134 
L 78 3500 
z
" transform="scale(0.015625)"/>
      <path id="DejaVuSans-Bold-20" transform="scale(0.015625)"/>
      <path id="DejaVuSans-Bold-72" d="M 3138 2547 
Q 2991 2616 2845 2648 
Q 2700 2681 2553 2681 
Q 2122 2681 1889 2404 
Q 1656 2128 1656 1613 
L 1656 0 
L 538 0 
L 538 3500 
L 1656 3500 
L 1656 2925 
Q 1872 3269 2151 3426 
Q 2431 3584 2822 3584 
Q 2878 3584 2943 3579 
Q 3009 3575 3134 3559 
L 3138 2547 
z
" transform="scale(0.015625)"/>
      <path id="DejaVuSans-Bold-70" d="M 1656 506 
L 1656 -1331 
L 538 -1331 
L 538 3500 
L 1656 3500 
L 1656 2988 
Q 1888 3294 2169 3439 
Q 2450 3584 2816 3584 
Q 3463 3584 3878 3070 
Q 4294 2556 4294 1747 
Q 4294 938 3878 423 
Q 3463 -91 2816 -91 
Q 2450 -91 2169 54 
Q 1888 200 1656 506 
z
M 2400 2772 
Q 2041 2772 1848 2508 
Q 1656 2244 1656 1747 
Q 1656 1250 1848 986 
Q 2041 722 2400 722 
Q 2759 722 2948 984 
Q 3138 1247 3138 1747 
Q 3138 2247 2948 2509 
Q 2759 2772 2400 2772 
z
" transform="scale(0.015625)"/>
      <path id="DejaVuSans-Bold-6f" d="M 2203 2784 
Q 1831 2784 1636 2517 
Q 1441 2250 1441 1747 
Q 1441 1244 1636 976 
Q 1831 709 2203 709 
Q 2569 709 2762 976 
Q 2956 1244 2956 1747 
Q 2956 2250 2762 2517 
Q 2569 2784 2203 2784 
z
M 2203 3584 
Q 3106 3584 3614 3096 
Q 4122 2609 4122 1747 
Q 4122 884 3614 396 
Q 3106 -91 2203 -91 
Q 1297 -91 786 396 
Q 275 884 275 1747 
Q 275 2609 786 3096 
Q 1297 3584 2203 3584 
z
" transform="scale(0.015625)"/>
     </defs>
     <use xlink:href="#DejaVuSans-Bold-44"/>
     <use xlink:href="#DejaVuSans-Bold-65" x="83.007812"/>
     <use xlink:href="#DejaVuSans-Bold-6e" x="150.830078"/>
     <use xlink:href="#DejaVuSans-Bold-73" x="222.021484"/>
     <use xlink:href="#DejaVuSans-Bold-69" x="281.542969"/>
     <use xlink:href="#DejaVuSans-Bold-74" x="315.820312"/>
     <use xlink:href="#DejaVuSans-Bold-79" x="363.623047"/>
     <use xlink:href="#DejaVuSans-Bold-20" x="428.808594"/>
     <use xlink:href="#DejaVuSans-Bold-72" x="463.623047"/>
     <use xlink:href="#DejaVuSans-Bold-65" x="512.939453"/>
     <use xlink:href="#DejaVuSans-Bold-73" x="580.761719"/>
     <use xlink:href="#DejaVuSans-Bold-70" x="640.283203"/>
     <use xlink:href="#DejaVuSans-Bold-6f" x="711.865234"/>
     <use xlink:href="#DejaVuSans-Bold-6e" x="780.566406"/>
     <use xlink:href="#DejaVuSans-Bold-73" x="851.757812"/>
     <use xlink:href="#DejaVuSans-Bold-65" x="911.279297"/>
    </g>
   </g>
   <g id="legend_1">
    <g id="patch_7">
     <path d="M 302.911893 518.04 
L 417.431893 518.04 
Q 420.231893 518.04 420.231893 515.24 
L 420.231893 413.210625 
Q 420.231893 410.410625 417.431893 410.410625 
L 302.911893 410.410625 
Q 300.111893 410.410625 300.111893 413.210625 
L 300.111893 515.24 
Q 300.111893 518.04 302.911893 518.04 
z
" style="fill: #e5e5e5; opacity: 0.8; stroke: #cccccc; stroke-width: 0.5; stroke-linejoin: miter"/>
    </g>
    <g id="line2d_32">
     <path d="M 305.711893 421.748437 
L 319.711893 421.748437 
L 333.711893 421.748437 
" style="fill: none; stroke: #440154; stroke-width: 2; stroke-linecap: square"/>
    </g>
    <g id="text_16">
     <!-- $\omega = 0$ -->
     <g transform="translate(344.911893 426.648437) scale(0.14 -0.14)">
      <defs>
       <path id="DejaVuSans-Oblique-3c9" d="M 1369 -91 
Q 72 -91 434 1766 
Q 575 2500 1256 3500 
L 1875 3500 
Q 1231 2500 1088 1750 
Q 819 397 1519 397 
Q 2166 397 2478 2078 
L 3009 2078 
Q 2669 388 3316 397 
Q 4013 403 4275 1750 
Q 4419 2500 4169 3500 
L 4788 3500 
Q 5075 2500 4934 1766 
Q 4578 -94 3278 -91 
Q 2428 -88 2503 844 
Q 2194 -91 1369 -91 
z
" transform="scale(0.015625)"/>
       <path id="DejaVuSans-3d" d="M 678 2906 
L 4684 2906 
L 4684 2381 
L 678 2381 
L 678 2906 
z
M 678 1631 
L 4684 1631 
L 4684 1100 
L 678 1100 
L 678 1631 
z
" transform="scale(0.015625)"/>
      </defs>
      <use xlink:href="#DejaVuSans-Oblique-3c9" transform="translate(0 0.78125)"/>
      <use xlink:href="#DejaVuSans-3d" transform="translate(103.222656 0.78125)"/>
      <use xlink:href="#DejaVuSans-30" transform="translate(206.494141 0.78125)"/>
     </g>
    </g>
    <g id="line2d_33">
     <path d="M 305.711893 442.44 
L 319.711893 442.44 
L 333.711893 442.44 
" style="fill: none; stroke: #414487; stroke-width: 2; stroke-linecap: square"/>
    </g>
    <g id="text_17">
     <!-- $\omega = 2\pi/\beta\hbar$ -->
     <g transform="translate(344.911893 447.34) scale(0.14 -0.14)">
      <defs>
       <path id="DejaVuSans-Oblique-3c0" d="M 584 3500 
L 3938 3500 
L 3825 2925 
L 3384 2925 
L 2966 775 
Q 2922 550 2981 450 
Q 3038 353 3209 353 
Q 3256 353 3325 363 
Q 3397 369 3419 372 
L 3338 -44 
Q 3222 -84 3103 -103 
Q 2981 -122 2866 -122 
Q 2491 -122 2388 81 
Q 2284 288 2391 838 
L 2797 2925 
L 1506 2925 
L 938 0 
L 350 0 
L 919 2925 
L 472 2925 
L 584 3500 
z
" transform="scale(0.015625)"/>
       <path id="DejaVuSans-2f" d="M 1625 4666 
L 2156 4666 
L 531 -594 
L 0 -594 
L 1625 4666 
z
" transform="scale(0.015625)"/>
       <path id="DejaVuSans-Oblique-3b2" d="M 872 216 
L 572 -1331 
L -6 -1331 
L 928 3478 
Q 1206 4903 2538 4903 
Q 3888 4903 3659 3700 
Q 3503 2844 2894 2531 
Q 3713 2250 3553 1416 
Q 3272 -69 1759 -66 
Q 1097 -63 872 216 
z
M 1019 966 
Q 1259 422 1875 425 
Q 2775 425 2966 1406 
Q 3138 2288 1675 2219 
L 1778 2750 
Q 2909 2731 3106 3750 
Q 3241 4438 2509 4434 
Q 1691 4434 1503 3459 
L 1019 966 
z
" transform="scale(0.015625)"/>
       <path id="DejaVuSans-Oblique-127" d="M 3634 2113 
L 3225 0 
L 2650 0 
L 3056 2094 
Q 3094 2291 3094 2450 
Q 3094 2688 3006 2838 
Q 2863 3084 2475 3084 
Q 2009 3084 1681 2788 
Q 1356 2491 1256 1978 
L 872 0 
L 294 0 
L 1066 3969 
L 675 3969 
L 775 4481 
L 1166 4481 
L 1238 4863 
L 1816 4863 
L 1744 4481 
L 2844 4481 
L 2744 3969 
L 1644 3969 
L 1447 2956 
Q 1713 3272 2025 3428 
Q 2331 3584 2700 3584 
Q 3300 3584 3538 3213 
Q 3688 2975 3688 2606 
Q 3688 2381 3634 2113 
z
" transform="scale(0.015625)"/>
      </defs>
      <use xlink:href="#DejaVuSans-Oblique-3c9" transform="translate(0 0.390625)"/>
      <use xlink:href="#DejaVuSans-3d" transform="translate(103.222656 0.390625)"/>
      <use xlink:href="#DejaVuSans-32" transform="translate(206.494141 0.390625)"/>
      <use xlink:href="#DejaVuSans-Oblique-3c0" transform="translate(270.117188 0.390625)"/>
      <use xlink:href="#DejaVuSans-2f" transform="translate(330.322266 0.390625)"/>
      <use xlink:href="#DejaVuSans-Oblique-3b2" transform="translate(364.013672 0.390625)"/>
      <use xlink:href="#DejaVuSans-Oblique-127" transform="translate(427.832031 0.390625)"/>
     </g>
    </g>
    <g id="line2d_34">
     <path d="M 305.711893 463.16 
L 319.711893 463.16 
L 333.711893 463.16 
" style="fill: none; stroke: #2a788e; stroke-width: 2; stroke-linecap: square"/>
    </g>
    <g id="text_18">
     <!-- $\omega = 4\pi/\beta\hbar$ -->
     <g transform="translate(344.911893 468.06) scale(0.14 -0.14)">
      <use xlink:href="#DejaVuSans-Oblique-3c9" transform="translate(0 0.390625)"/>
      <use xlink:href="#DejaVuSans-3d" transform="translate(103.222656 0.390625)"/>
      <use xlink:href="#DejaVuSans-34" transform="translate(206.494141 0.390625)"/>
      <use xlink:href="#DejaVuSans-Oblique-3c0" transform="translate(270.117188 0.390625)"/>
      <use xlink:href="#DejaVuSans-2f" transform="translate(330.322266 0.390625)"/>
      <use xlink:href="#DejaVuSans-Oblique-3b2" transform="translate(364.013672 0.390625)"/>
      <use xlink:href="#DejaVuSans-Oblique-127" transform="translate(427.832031 0.390625)"/>
     </g>
    </g>
    <g id="line2d_35">
     <path d="M 305.711893 483.88 
L 319.711893 483.88 
L 333.711893 483.88 
" style="fill: none; stroke: #22a884; stroke-width: 2; stroke-linecap: square"/>
    </g>
    <g id="text_19">
     <!-- $\omega = 6\pi/\beta\hbar$ -->
     <g transform="translate(344.911893 488.78) scale(0.14 -0.14)">
      <use xlink:href="#DejaVuSans-Oblique-3c9" transform="translate(0 0.390625)"/>
      <use xlink:href="#DejaVuSans-3d" transform="translate(103.222656 0.390625)"/>
      <use xlink:href="#DejaVuSans-36" transform="translate(206.494141 0.390625)"/>
      <use xlink:href="#DejaVuSans-Oblique-3c0" transform="translate(270.117188 0.390625)"/>
      <use xlink:href="#DejaVuSans-2f" transform="translate(330.322266 0.390625)"/>
      <use xlink:href="#DejaVuSans-Oblique-3b2" transform="translate(364.013672 0.390625)"/>
      <use xlink:href="#DejaVuSans-Oblique-127" transform="translate(427.832031 0.390625)"/>
     </g>
    </g>
    <g id="line2d_36">
     <path d="M 305.711893 504.6 
L 319.711893 504.6 
L 333.711893 504.6 
" style="fill: none; stroke: #7ad151; stroke-width: 2; stroke-linecap: square"/>
    </g>
    <g id="text_20">
     <!-- $\omega = 8\pi/\beta\hbar$ -->
     <g transform="translate(344.911893 509.5) scale(0.14 -0.14)">
      <defs>
       <path id="DejaVuSans-38" d="M 2034 2216 
Q 1584 2216 1326 1975 
Q 1069 1734 1069 1313 
Q 1069 891 1326 650 
Q 1584 409 2034 409 
Q 2484 409 2743 651 
Q 3003 894 3003 1313 
Q 3003 1734 2745 1975 
Q 2488 2216 2034 2216 
z
M 1403 2484 
Q 997 2584 770 2862 
Q 544 3141 544 3541 
Q 544 4100 942 4425 
Q 1341 4750 2034 4750 
Q 2731 4750 3128 4425 
Q 3525 4100 3525 3541 
Q 3525 3141 3298 2862 
Q 3072 2584 2669 2484 
Q 3125 2378 3379 2068 
Q 3634 1759 3634 1313 
Q 3634 634 3220 271 
Q 2806 -91 2034 -91 
Q 1263 -91 848 271 
Q 434 634 434 1313 
Q 434 1759 690 2068 
Q 947 2378 1403 2484 
z
M 1172 3481 
Q 1172 3119 1398 2916 
Q 1625 2713 2034 2713 
Q 2441 2713 2670 2916 
Q 2900 3119 2900 3481 
Q 2900 3844 2670 4047 
Q 2441 4250 2034 4250 
Q 1625 4250 1398 4047 
Q 1172 3844 1172 3481 
z
" transform="scale(0.015625)"/>
      </defs>
      <use xlink:href="#DejaVuSans-Oblique-3c9" transform="translate(0 0.390625)"/>
      <use xlink:href="#DejaVuSans-3d" transform="translate(103.222656 0.390625)"/>
      <use xlink:href="#DejaVuSans-38" transform="translate(206.494141 0.390625)"/>
      <use xlink:href="#DejaVuSans-Oblique-3c0" transform="translate(270.117188 0.390625)"/>
      <use xlink:href="#DejaVuSans-2f" transform="translate(330.322266 0.390625)"/>
      <use xlink:href="#DejaVuSans-Oblique-3b2" transform="translate(364.013672 0.390625)"/>
      <use xlink:href="#DejaVuSans-Oblique-127" transform="translate(427.832031 0.390625)"/>
     </g>
    </g>
   </g>
  </g>
  <g id="axes_2">
   <g id="patch_8">
    <path d="M 471.829393 525.04 
L 848.7225 525.04 
L 848.7225 311.64 
L 471.829393 311.64 
z
" style="fill: #e5e5e5"/>
   </g>
   <g id="matplotlib.axis_3">
    <g id="xtick_8">
     <g id="line2d_37">
      <path d="M 471.829393 525.04 
L 471.829393 311.64 
" clip-path="url(#pf0a82deecc)" style="fill: none; stroke: #ffffff; stroke-width: 0.8; stroke-linecap: square"/>
     </g>
     <g id="line2d_38">
      <g>
       <use xlink:href="#m2de4cb1988" x="471.829393" y="525.04" style="fill: #555555; stroke: #555555; stroke-width: 0.8"/>
      </g>
     </g>
     <g id="text_21">
      <!-- 0 -->
      <g style="fill: #555555" transform="translate(467.375643 542.677812) scale(0.14 -0.14)">
       <use xlink:href="#DejaVuSans-30"/>
      </g>
     </g>
    </g>
    <g id="xtick_9">
     <g id="line2d_39">
      <path d="M 534.644911 525.04 
L 534.644911 311.64 
" clip-path="url(#pf0a82deecc)" style="fill: none; stroke: #ffffff; stroke-width: 0.8; stroke-linecap: square"/>
     </g>
     <g id="line2d_40">
      <g>
       <use xlink:href="#m2de4cb1988" x="534.644911" y="525.04" style="fill: #555555; stroke: #555555; stroke-width: 0.8"/>
      </g>
     </g>
     <g id="text_22">
      <!-- 1 -->
      <g style="fill: #555555" transform="translate(530.191161 542.677812) scale(0.14 -0.14)">
       <use xlink:href="#DejaVuSans-31"/>
      </g>
     </g>
    </g>
    <g id="xtick_10">
     <g id="line2d_41">
      <path d="M 597.460429 525.04 
L 597.460429 311.64 
" clip-path="url(#pf0a82deecc)" style="fill: none; stroke: #ffffff; stroke-width: 0.8; stroke-linecap: square"/>
     </g>
     <g id="line2d_42">
      <g>
       <use xlink:href="#m2de4cb1988" x="597.460429" y="525.04" style="fill: #555555; stroke: #555555; stroke-width: 0.8"/>
      </g>
     </g>
     <g id="text_23">
      <!-- 2 -->
      <g style="fill: #555555" transform="translate(593.006679 542.677812) scale(0.14 -0.14)">
       <use xlink:href="#DejaVuSans-32"/>
      </g>
     </g>
    </g>
    <g id="xtick_11">
     <g id="line2d_43">
      <path d="M 660.275947 525.04 
L 660.275947 311.64 
" clip-path="url(#pf0a82deecc)" style="fill: none; stroke: #ffffff; stroke-width: 0.8; stroke-linecap: square"/>
     </g>
     <g id="line2d_44">
      <g>
       <use xlink:href="#m2de4cb1988" x="660.275947" y="525.04" style="fill: #555555; stroke: #555555; stroke-width: 0.8"/>
      </g>
     </g>
     <g id="text_24">
      <!-- 3 -->
      <g style="fill: #555555" transform="translate(655.822197 542.677812) scale(0.14 -0.14)">
       <use xlink:href="#DejaVuSans-33"/>
      </g>
     </g>
    </g>
    <g id="xtick_12">
     <g id="line2d_45">
      <path d="M 723.091464 525.04 
L 723.091464 311.64 
" clip-path="url(#pf0a82deecc)" style="fill: none; stroke: #ffffff; stroke-width: 0.8; stroke-linecap: square"/>
     </g>
     <g id="line2d_46">
      <g>
       <use xlink:href="#m2de4cb1988" x="723.091464" y="525.04" style="fill: #555555; stroke: #555555; stroke-width: 0.8"/>
      </g>
     </g>
     <g id="text_25">
      <!-- 4 -->
      <g style="fill: #555555" transform="translate(718.637714 542.677812) scale(0.14 -0.14)">
       <use xlink:href="#DejaVuSans-34"/>
      </g>
     </g>
    </g>
    <g id="xtick_13">
     <g id="line2d_47">
      <path d="M 785.906982 525.04 
L 785.906982 311.64 
" clip-path="url(#pf0a82deecc)" style="fill: none; stroke: #ffffff; stroke-width: 0.8; stroke-linecap: square"/>
     </g>
     <g id="line2d_48">
      <g>
       <use xlink:href="#m2de4cb1988" x="785.906982" y="525.04" style="fill: #555555; stroke: #555555; stroke-width: 0.8"/>
      </g>
     </g>
     <g id="text_26">
      <!-- 5 -->
      <g style="fill: #555555" transform="translate(781.453232 542.677812) scale(0.14 -0.14)">
       <use xlink:href="#DejaVuSans-35"/>
      </g>
     </g>
    </g>
    <g id="xtick_14">
     <g id="line2d_49">
      <path d="M 848.7225 525.04 
L 848.7225 311.64 
" clip-path="url(#pf0a82deecc)" style="fill: none; stroke: #ffffff; stroke-width: 0.8; stroke-linecap: square"/>
     </g>
     <g id="line2d_50">
      <g>
       <use xlink:href="#m2de4cb1988" x="848.7225" y="525.04" style="fill: #555555; stroke: #555555; stroke-width: 0.8"/>
      </g>
     </g>
     <g id="text_27">
      <!-- 6 -->
      <g style="fill: #555555" transform="translate(844.26875 542.677812) scale(0.14 -0.14)">
       <use xlink:href="#DejaVuSans-36"/>
      </g>
     </g>
    </g>
    <g id="text_28">
     <!-- Wave-vector -->
     <g style="fill: #555555" transform="translate(610.263447 561.746875) scale(0.16 -0.16)">
      <use xlink:href="#DejaVuSans-57"/>
      <use xlink:href="#DejaVuSans-61" x="92.501953"/>
      <use xlink:href="#DejaVuSans-76" x="153.78125"/>
      <use xlink:href="#DejaVuSans-65" x="212.960938"/>
      <use xlink:href="#DejaVuSans-2d" x="274.484375"/>
      <use xlink:href="#DejaVuSans-76" x="307.943359"/>
      <use xlink:href="#DejaVuSans-65" x="367.123047"/>
      <use xlink:href="#DejaVuSans-63" x="428.646484"/>
      <use xlink:href="#DejaVuSans-74" x="483.626953"/>
      <use xlink:href="#DejaVuSans-6f" x="522.835938"/>
      <use xlink:href="#DejaVuSans-72" x="584.017578"/>
     </g>
    </g>
   </g>
   <g id="matplotlib.axis_4">
    <g id="ytick_7">
     <g id="line2d_51">
      <path d="M 471.829393 515.34 
L 848.7225 515.34 
" clip-path="url(#pf0a82deecc)" style="fill: none; stroke: #ffffff; stroke-width: 0.8; stroke-linecap: square"/>
     </g>
     <g id="line2d_52">
      <g>
       <use xlink:href="#m62e0bad58e" x="471.829393" y="515.34" style="fill: #555555; stroke: #555555; stroke-width: 0.8"/>
      </g>
     </g>
     <g id="text_29">
      <!-- 0.0 -->
      <g style="fill: #555555" transform="translate(442.565018 520.658906) scale(0.14 -0.14)">
       <use xlink:href="#DejaVuSans-30"/>
       <use xlink:href="#DejaVuSans-2e" x="63.623047"/>
       <use xlink:href="#DejaVuSans-30" x="95.410156"/>
      </g>
     </g>
    </g>
    <g id="ytick_8">
     <g id="line2d_53">
      <path d="M 471.829393 480.000812 
L 848.7225 480.000812 
" clip-path="url(#pf0a82deecc)" style="fill: none; stroke: #ffffff; stroke-width: 0.8; stroke-linecap: square"/>
     </g>
     <g id="line2d_54">
      <g>
       <use xlink:href="#m62e0bad58e" x="471.829393" y="480.000812" style="fill: #555555; stroke: #555555; stroke-width: 0.8"/>
      </g>
     </g>
     <g id="text_30">
      <!-- 0.2 -->
      <g style="fill: #555555" transform="translate(442.565018 485.319718) scale(0.14 -0.14)">
       <use xlink:href="#DejaVuSans-30"/>
       <use xlink:href="#DejaVuSans-2e" x="63.623047"/>
       <use xlink:href="#DejaVuSans-32" x="95.410156"/>
      </g>
     </g>
    </g>
    <g id="ytick_9">
     <g id="line2d_55">
      <path d="M 471.829393 444.661623 
L 848.7225 444.661623 
" clip-path="url(#pf0a82deecc)" style="fill: none; stroke: #ffffff; stroke-width: 0.8; stroke-linecap: square"/>
     </g>
     <g id="line2d_56">
      <g>
       <use xlink:href="#m62e0bad58e" x="471.829393" y="444.661623" style="fill: #555555; stroke: #555555; stroke-width: 0.8"/>
      </g>
     </g>
     <g id="text_31">
      <!-- 0.4 -->
      <g style="fill: #555555" transform="translate(442.565018 449.98053) scale(0.14 -0.14)">
       <use xlink:href="#DejaVuSans-30"/>
       <use xlink:href="#DejaVuSans-2e" x="63.623047"/>
       <use xlink:href="#DejaVuSans-34" x="95.410156"/>
      </g>
     </g>
    </g>
    <g id="ytick_10">
     <g id="line2d_57">
      <path d="M 471.829393 409.322435 
L 848.7225 409.322435 
" clip-path="url(#pf0a82deecc)" style="fill: none; stroke: #ffffff; stroke-width: 0.8; stroke-linecap: square"/>
     </g>
     <g id="line2d_58">
      <g>
       <use xlink:href="#m62e0bad58e" x="471.829393" y="409.322435" style="fill: #555555; stroke: #555555; stroke-width: 0.8"/>
      </g>
     </g>
     <g id="text_32">
      <!-- 0.6 -->
      <g style="fill: #555555" transform="translate(442.565018 414.641341) scale(0.14 -0.14)">
       <use xlink:href="#DejaVuSans-30"/>
       <use xlink:href="#DejaVuSans-2e" x="63.623047"/>
       <use xlink:href="#DejaVuSans-36" x="95.410156"/>
      </g>
     </g>
    </g>
    <g id="ytick_11">
     <g id="line2d_59">
      <path d="M 471.829393 373.983247 
L 848.7225 373.983247 
" clip-path="url(#pf0a82deecc)" style="fill: none; stroke: #ffffff; stroke-width: 0.8; stroke-linecap: square"/>
     </g>
     <g id="line2d_60">
      <g>
       <use xlink:href="#m62e0bad58e" x="471.829393" y="373.983247" style="fill: #555555; stroke: #555555; stroke-width: 0.8"/>
      </g>
     </g>
     <g id="text_33">
      <!-- 0.8 -->
      <g style="fill: #555555" transform="translate(442.565018 379.302153) scale(0.14 -0.14)">
       <use xlink:href="#DejaVuSans-30"/>
       <use xlink:href="#DejaVuSans-2e" x="63.623047"/>
       <use xlink:href="#DejaVuSans-38" x="95.410156"/>
      </g>
     </g>
    </g>
    <g id="ytick_12">
     <g id="line2d_61">
      <path d="M 471.829393 338.644059 
L 848.7225 338.644059 
" clip-path="url(#pf0a82deecc)" style="fill: none; stroke: #ffffff; stroke-width: 0.8; stroke-linecap: square"/>
     </g>
     <g id="line2d_62">
      <g>
       <use xlink:href="#m62e0bad58e" x="471.829393" y="338.644059" style="fill: #555555; stroke: #555555; stroke-width: 0.8"/>
      </g>
     </g>
     <g id="text_34">
      <!-- 1.0 -->
      <g style="fill: #555555" transform="translate(442.565018 343.962965) scale(0.14 -0.14)">
       <use xlink:href="#DejaVuSans-31"/>
       <use xlink:href="#DejaVuSans-2e" x="63.623047"/>
       <use xlink:href="#DejaVuSans-30" x="95.410156"/>
      </g>
     </g>
    </g>
   </g>
   <g id="line2d_63">
    <path d="M 471.829393 515.34 
L 478.110945 514.828125 
L 484.392497 513.284536 
L 490.674049 510.685267 
L 496.9556 506.990775 
L 503.237152 502.146963 
L 509.518704 496.088604 
L 515.800256 488.744582 
L 522.081807 480.049855 
L 528.363359 469.964848 
L 534.644911 458.506373 
L 540.926463 445.786242 
L 547.208015 432.051036 
L 553.489566 417.697783 
L 559.771118 403.233723 
L 566.05267 389.15337 
L 572.334222 375.750562 
L 578.615773 362.954231 
L 584.897325 350.381372 
L 591.178877 337.937619 
L 597.460429 327.111888 
L 603.741981 321.34 
L 610.023532 322.527508 
L 616.305084 328.078866 
L 622.586636 334.145229 
L 628.868188 338.810196 
L 635.149739 341.805168 
L 641.431291 343.462909 
L 647.712843 344.190362 
L 653.994395 344.316078 
L 660.275947 344.074637 
L 666.557498 343.625246 
L 672.83905 343.0729 
L 679.120602 342.485167 
L 685.402154 341.904158 
L 691.683705 341.354923 
L 697.965257 340.851104 
L 704.246809 340.398981 
L 710.528361 340.000042 
L 716.809913 339.65286 
L 723.091464 339.354298 
L 729.373016 339.100326 
L 735.654568 338.88654 
L 741.93612 338.708496 
L 748.217672 338.561912 
L 754.499223 338.442773 
L 760.780775 338.3474 
L 767.062327 338.272462 
L 773.343879 338.21498 
L 779.62543 338.172309 
L 785.906982 338.14212 
L 792.188534 338.122372 
L 798.470086 338.111288 
L 804.751638 338.107329 
L 811.033189 338.109168 
L 817.314741 338.115664 
L 823.596293 338.125848 
L 829.877845 338.138894 
L 836.159396 338.154106 
L 842.440948 338.170902 
L 848.7225 338.188795 
L 855.004052 338.207384 
L 861.285604 338.226339 
L 865 338.237607 
" clip-path="url(#pf0a82deecc)" style="fill: none; stroke: #440154; stroke-width: 2; stroke-linecap: square"/>
   </g>
   <g id="patch_9">
    <path d="M 471.829393 525.04 
L 471.829393 311.64 
" style="fill: none; stroke: #ffffff; stroke-linejoin: miter; stroke-linecap: square"/>
   </g>
   <g id="patch_10">
    <path d="M 848.7225 525.04 
L 848.7225 311.64 
" style="fill: none; stroke: #ffffff; stroke-linejoin: miter; stroke-linecap: square"/>
   </g>
   <g id="patch_11">
    <path d="M 471.829393 525.04 
L 848.7225 525.04 
" style="fill: none; stroke: #ffffff; stroke-linejoin: miter; stroke-linecap: square"/>
   </g>
   <g id="patch_12">
    <path d="M 471.829393 311.64 
L 848.7225 311.64 
" style="fill: none; stroke: #ffffff; stroke-linejoin: miter; stroke-linecap: square"/>
   </g>
   <g id="text_35">
    <!-- Static structure factor -->
    <g transform="translate(559.669697 305.64) scale(0.16 -0.16)">
     <defs>
      <path id="DejaVuSans-Bold-53" d="M 3834 4519 
L 3834 3531 
Q 3450 3703 3084 3790 
Q 2719 3878 2394 3878 
Q 1963 3878 1756 3759 
Q 1550 3641 1550 3391 
Q 1550 3203 1689 3098 
Q 1828 2994 2194 2919 
L 2706 2816 
Q 3484 2659 3812 2340 
Q 4141 2022 4141 1434 
Q 4141 663 3683 286 
Q 3225 -91 2284 -91 
Q 1841 -91 1394 -6 
Q 947 78 500 244 
L 500 1259 
Q 947 1022 1364 901 
Q 1781 781 2169 781 
Q 2563 781 2772 912 
Q 2981 1044 2981 1288 
Q 2981 1506 2839 1625 
Q 2697 1744 2272 1838 
L 1806 1941 
Q 1106 2091 782 2419 
Q 459 2747 459 3303 
Q 459 4000 909 4375 
Q 1359 4750 2203 4750 
Q 2588 4750 2994 4692 
Q 3400 4634 3834 4519 
z
" transform="scale(0.015625)"/>
      <path id="DejaVuSans-Bold-61" d="M 2106 1575 
Q 1756 1575 1579 1456 
Q 1403 1338 1403 1106 
Q 1403 894 1545 773 
Q 1688 653 1941 653 
Q 2256 653 2472 879 
Q 2688 1106 2688 1447 
L 2688 1575 
L 2106 1575 
z
M 3816 1997 
L 3816 0 
L 2688 0 
L 2688 519 
Q 2463 200 2181 54 
Q 1900 -91 1497 -91 
Q 953 -91 614 226 
Q 275 544 275 1050 
Q 275 1666 698 1953 
Q 1122 2241 2028 2241 
L 2688 2241 
L 2688 2328 
Q 2688 2594 2478 2717 
Q 2269 2841 1825 2841 
Q 1466 2841 1156 2769 
Q 847 2697 581 2553 
L 581 3406 
Q 941 3494 1303 3539 
Q 1666 3584 2028 3584 
Q 2975 3584 3395 3211 
Q 3816 2838 3816 1997 
z
" transform="scale(0.015625)"/>
      <path id="DejaVuSans-Bold-63" d="M 3366 3391 
L 3366 2478 
Q 3138 2634 2908 2709 
Q 2678 2784 2431 2784 
Q 1963 2784 1702 2511 
Q 1441 2238 1441 1747 
Q 1441 1256 1702 982 
Q 1963 709 2431 709 
Q 2694 709 2930 787 
Q 3166 866 3366 1019 
L 3366 103 
Q 3103 6 2833 -42 
Q 2563 -91 2291 -91 
Q 1344 -91 809 395 
Q 275 881 275 1747 
Q 275 2613 809 3098 
Q 1344 3584 2291 3584 
Q 2566 3584 2833 3536 
Q 3100 3488 3366 3391 
z
" transform="scale(0.015625)"/>
      <path id="DejaVuSans-Bold-75" d="M 500 1363 
L 500 3500 
L 1625 3500 
L 1625 3150 
Q 1625 2866 1622 2436 
Q 1619 2006 1619 1863 
Q 1619 1441 1641 1255 
Q 1663 1069 1716 984 
Q 1784 875 1895 815 
Q 2006 756 2150 756 
Q 2500 756 2700 1025 
Q 2900 1294 2900 1772 
L 2900 3500 
L 4019 3500 
L 4019 0 
L 2900 0 
L 2900 506 
Q 2647 200 2364 54 
Q 2081 -91 1741 -91 
Q 1134 -91 817 281 
Q 500 653 500 1363 
z
" transform="scale(0.015625)"/>
      <path id="DejaVuSans-Bold-66" d="M 2841 4863 
L 2841 4128 
L 2222 4128 
Q 1984 4128 1890 4042 
Q 1797 3956 1797 3744 
L 1797 3500 
L 2753 3500 
L 2753 2700 
L 1797 2700 
L 1797 0 
L 678 0 
L 678 2700 
L 122 2700 
L 122 3500 
L 678 3500 
L 678 3744 
Q 678 4316 997 4589 
Q 1316 4863 1984 4863 
L 2841 4863 
z
" transform="scale(0.015625)"/>
     </defs>
     <use xlink:href="#DejaVuSans-Bold-53"/>
     <use xlink:href="#DejaVuSans-Bold-74" x="72.021484"/>
     <use xlink:href="#DejaVuSans-Bold-61" x="119.824219"/>
     <use xlink:href="#DejaVuSans-Bold-74" x="187.304688"/>
     <use xlink:href="#DejaVuSans-Bold-69" x="235.107422"/>
     <use xlink:href="#DejaVuSans-Bold-63" x="269.384766"/>
     <use xlink:href="#DejaVuSans-Bold-20" x="328.662109"/>
     <use xlink:href="#DejaVuSans-Bold-73" x="363.476562"/>
     <use xlink:href="#DejaVuSans-Bold-74" x="422.998047"/>
     <use xlink:href="#DejaVuSans-Bold-72" x="470.800781"/>
     <use xlink:href="#DejaVuSans-Bold-75" x="520.117188"/>
     <use xlink:href="#DejaVuSans-Bold-63" x="591.308594"/>
     <use xlink:href="#DejaVuSans-Bold-74" x="650.585938"/>
     <use xlink:href="#DejaVuSans-Bold-75" x="698.388672"/>
     <use xlink:href="#DejaVuSans-Bold-72" x="769.580078"/>
     <use xlink:href="#DejaVuSans-Bold-65" x="818.896484"/>
     <use xlink:href="#DejaVuSans-Bold-20" x="886.71875"/>
     <use xlink:href="#DejaVuSans-Bold-66" x="921.533203"/>
     <use xlink:href="#DejaVuSans-Bold-61" x="965.039062"/>
     <use xlink:href="#DejaVuSans-Bold-63" x="1032.519531"/>
     <use xlink:href="#DejaVuSans-Bold-74" x="1091.796875"/>
     <use xlink:href="#DejaVuSans-Bold-6f" x="1139.599609"/>
     <use xlink:href="#DejaVuSans-Bold-72" x="1208.300781"/>
    </g>
   </g>
  </g>
  <g id="axes_3">
   <g id="patch_13">
    <path d="M 50.338786 242.44 
L 848.7225 242.44 
L 848.7225 29.04 
L 50.338786 29.04 
z
" style="fill: #e5e5e5"/>
   </g>
   <g id="matplotlib.axis_5">
    <g id="xtick_15">
     <g id="line2d_64">
      <path d="M 50.338786 242.44 
L 50.338786 29.04 
" clip-path="url(#pf214c899d0)" style="fill: none; stroke: #ffffff; stroke-width: 0.8; stroke-linecap: square"/>
     </g>
     <g id="line2d_65">
      <g>
       <use xlink:href="#m2de4cb1988" x="50.338786" y="242.44" style="fill: #555555; stroke: #555555; stroke-width: 0.8"/>
      </g>
     </g>
     <g id="text_36">
      <!-- 0 -->
      <g style="fill: #555555" transform="translate(45.885036 260.077812) scale(0.14 -0.14)">
       <use xlink:href="#DejaVuSans-30"/>
      </g>
     </g>
    </g>
    <g id="xtick_16">
     <g id="line2d_66">
      <path d="M 171.306016 242.44 
L 171.306016 29.04 
" clip-path="url(#pf214c899d0)" style="fill: none; stroke: #ffffff; stroke-width: 0.8; stroke-linecap: square"/>
     </g>
     <g id="line2d_67">
      <g>
       <use xlink:href="#m2de4cb1988" x="171.306016" y="242.44" style="fill: #555555; stroke: #555555; stroke-width: 0.8"/>
      </g>
     </g>
     <g id="text_37">
      <!-- 5 -->
      <g style="fill: #555555" transform="translate(166.852266 260.077812) scale(0.14 -0.14)">
       <use xlink:href="#DejaVuSans-35"/>
      </g>
     </g>
    </g>
    <g id="xtick_17">
     <g id="line2d_68">
      <path d="M 292.273245 242.44 
L 292.273245 29.04 
" clip-path="url(#pf214c899d0)" style="fill: none; stroke: #ffffff; stroke-width: 0.8; stroke-linecap: square"/>
     </g>
     <g id="line2d_69">
      <g>
       <use xlink:href="#m2de4cb1988" x="292.273245" y="242.44" style="fill: #555555; stroke: #555555; stroke-width: 0.8"/>
      </g>
     </g>
     <g id="text_38">
      <!-- 10 -->
      <g style="fill: #555555" transform="translate(283.365745 260.077812) scale(0.14 -0.14)">
       <use xlink:href="#DejaVuSans-31"/>
       <use xlink:href="#DejaVuSans-30" x="63.623047"/>
      </g>
     </g>
    </g>
    <g id="xtick_18">
     <g id="line2d_70">
      <path d="M 413.240474 242.44 
L 413.240474 29.04 
" clip-path="url(#pf214c899d0)" style="fill: none; stroke: #ffffff; stroke-width: 0.8; stroke-linecap: square"/>
     </g>
     <g id="line2d_71">
      <g>
       <use xlink:href="#m2de4cb1988" x="413.240474" y="242.44" style="fill: #555555; stroke: #555555; stroke-width: 0.8"/>
      </g>
     </g>
     <g id="text_39">
      <!-- 15 -->
      <g style="fill: #555555" transform="translate(404.332974 260.077812) scale(0.14 -0.14)">
       <use xlink:href="#DejaVuSans-31"/>
       <use xlink:href="#DejaVuSans-35" x="63.623047"/>
      </g>
     </g>
    </g>
    <g id="xtick_19">
     <g id="line2d_72">
      <path d="M 534.207704 242.44 
L 534.207704 29.04 
" clip-path="url(#pf214c899d0)" style="fill: none; stroke: #ffffff; stroke-width: 0.8; stroke-linecap: square"/>
     </g>
     <g id="line2d_73">
      <g>
       <use xlink:href="#m2de4cb1988" x="534.207704" y="242.44" style="fill: #555555; stroke: #555555; stroke-width: 0.8"/>
      </g>
     </g>
     <g id="text_40">
      <!-- 20 -->
      <g style="fill: #555555" transform="translate(525.300204 260.077812) scale(0.14 -0.14)">
       <use xlink:href="#DejaVuSans-32"/>
       <use xlink:href="#DejaVuSans-30" x="63.623047"/>
      </g>
     </g>
    </g>
    <g id="xtick_20">
     <g id="line2d_74">
      <path d="M 655.174933 242.44 
L 655.174933 29.04 
" clip-path="url(#pf214c899d0)" style="fill: none; stroke: #ffffff; stroke-width: 0.8; stroke-linecap: square"/>
     </g>
     <g id="line2d_75">
      <g>
       <use xlink:href="#m2de4cb1988" x="655.174933" y="242.44" style="fill: #555555; stroke: #555555; stroke-width: 0.8"/>
      </g>
     </g>
     <g id="text_41">
      <!-- 25 -->
      <g style="fill: #555555" transform="translate(646.267433 260.077812) scale(0.14 -0.14)">
       <use xlink:href="#DejaVuSans-32"/>
       <use xlink:href="#DejaVuSans-35" x="63.623047"/>
      </g>
     </g>
    </g>
    <g id="xtick_21">
     <g id="line2d_76">
      <path d="M 776.142162 242.44 
L 776.142162 29.04 
" clip-path="url(#pf214c899d0)" style="fill: none; stroke: #ffffff; stroke-width: 0.8; stroke-linecap: square"/>
     </g>
     <g id="line2d_77">
      <g>
       <use xlink:href="#m2de4cb1988" x="776.142162" y="242.44" style="fill: #555555; stroke: #555555; stroke-width: 0.8"/>
      </g>
     </g>
     <g id="text_42">
      <!-- 30 -->
      <g style="fill: #555555" transform="translate(767.234662 260.077812) scale(0.14 -0.14)">
       <use xlink:href="#DejaVuSans-33"/>
       <use xlink:href="#DejaVuSans-30" x="63.623047"/>
      </g>
     </g>
    </g>
    <g id="text_43">
     <!-- Iteration -->
     <g style="fill: #555555" transform="translate(415.596893 279.146875) scale(0.16 -0.16)">
      <defs>
       <path id="DejaVuSans-49" d="M 628 4666 
L 1259 4666 
L 1259 0 
L 628 0 
L 628 4666 
z
" transform="scale(0.015625)"/>
       <path id="DejaVuSans-69" d="M 603 3500 
L 1178 3500 
L 1178 0 
L 603 0 
L 603 3500 
z
M 603 4863 
L 1178 4863 
L 1178 4134 
L 603 4134 
L 603 4863 
z
" transform="scale(0.015625)"/>
       <path id="DejaVuSans-6e" d="M 3513 2113 
L 3513 0 
L 2938 0 
L 2938 2094 
Q 2938 2591 2744 2837 
Q 2550 3084 2163 3084 
Q 1697 3084 1428 2787 
Q 1159 2491 1159 1978 
L 1159 0 
L 581 0 
L 581 3500 
L 1159 3500 
L 1159 2956 
Q 1366 3272 1645 3428 
Q 1925 3584 2291 3584 
Q 2894 3584 3203 3211 
Q 3513 2838 3513 2113 
z
" transform="scale(0.015625)"/>
      </defs>
      <use xlink:href="#DejaVuSans-49"/>
      <use xlink:href="#DejaVuSans-74" x="29.492188"/>
      <use xlink:href="#DejaVuSans-65" x="68.701172"/>
      <use xlink:href="#DejaVuSans-72" x="130.224609"/>
      <use xlink:href="#DejaVuSans-61" x="171.337891"/>
      <use xlink:href="#DejaVuSans-74" x="232.617188"/>
      <use xlink:href="#DejaVuSans-69" x="271.826172"/>
      <use xlink:href="#DejaVuSans-6f" x="299.609375"/>
      <use xlink:href="#DejaVuSans-6e" x="360.791016"/>
     </g>
    </g>
   </g>
   <g id="matplotlib.axis_6">
    <g id="ytick_13">
     <g id="line2d_78">
      <path d="M 50.338786 242.44 
L 848.7225 242.44 
" clip-path="url(#pf214c899d0)" style="fill: none; stroke: #ffffff; stroke-width: 0.8; stroke-linecap: square"/>
     </g>
     <g id="line2d_79">
      <g>
       <use xlink:href="#m62e0bad58e" x="50.338786" y="242.44" style="fill: #555555; stroke: #555555; stroke-width: 0.8"/>
      </g>
     </g>
     <g id="text_44">
      <!-- $\mathdefault{10^{-6}}$ -->
      <g style="fill: #555555" transform="translate(10.438786 247.758906) scale(0.14 -0.14)">
       <defs>
        <path id="DejaVuSans-2212" d="M 678 2272 
L 4684 2272 
L 4684 1741 
L 678 1741 
L 678 2272 
z
" transform="scale(0.015625)"/>
       </defs>
       <use xlink:href="#DejaVuSans-31" transform="translate(0 0.765625)"/>
       <use xlink:href="#DejaVuSans-30" transform="translate(63.623047 0.765625)"/>
       <use xlink:href="#DejaVuSans-2212" transform="translate(128.203125 39.046875) scale(0.7)"/>
       <use xlink:href="#DejaVuSans-36" transform="translate(186.855469 39.046875) scale(0.7)"/>
      </g>
     </g>
    </g>
    <g id="ytick_14">
     <g id="line2d_80">
      <path d="M 50.338786 212.133495 
L 848.7225 212.133495 
" clip-path="url(#pf214c899d0)" style="fill: none; stroke: #ffffff; stroke-width: 0.8; stroke-linecap: square"/>
     </g>
     <g id="line2d_81">
      <g>
       <use xlink:href="#m62e0bad58e" x="50.338786" y="212.133495" style="fill: #555555; stroke: #555555; stroke-width: 0.8"/>
      </g>
     </g>
     <g id="text_45">
      <!-- $\mathdefault{10^{-5}}$ -->
      <g style="fill: #555555" transform="translate(10.438786 217.452402) scale(0.14 -0.14)">
       <use xlink:href="#DejaVuSans-31" transform="translate(0 0.684375)"/>
       <use xlink:href="#DejaVuSans-30" transform="translate(63.623047 0.684375)"/>
       <use xlink:href="#DejaVuSans-2212" transform="translate(128.203125 38.965625) scale(0.7)"/>
       <use xlink:href="#DejaVuSans-35" transform="translate(186.855469 38.965625) scale(0.7)"/>
      </g>
     </g>
    </g>
    <g id="ytick_15">
     <g id="line2d_82">
      <path d="M 50.338786 181.826991 
L 848.7225 181.826991 
" clip-path="url(#pf214c899d0)" style="fill: none; stroke: #ffffff; stroke-width: 0.8; stroke-linecap: square"/>
     </g>
     <g id="line2d_83">
      <g>
       <use xlink:href="#m62e0bad58e" x="50.338786" y="181.826991" style="fill: #555555; stroke: #555555; stroke-width: 0.8"/>
      </g>
     </g>
     <g id="text_46">
      <!-- $\mathdefault{10^{-4}}$ -->
      <g style="fill: #555555" transform="translate(10.438786 187.145897) scale(0.14 -0.14)">
       <use xlink:href="#DejaVuSans-31" transform="translate(0 0.684375)"/>
       <use xlink:href="#DejaVuSans-30" transform="translate(63.623047 0.684375)"/>
       <use xlink:href="#DejaVuSans-2212" transform="translate(128.203125 38.965625) scale(0.7)"/>
       <use xlink:href="#DejaVuSans-34" transform="translate(186.855469 38.965625) scale(0.7)"/>
      </g>
     </g>
    </g>
    <g id="ytick_16">
     <g id="line2d_84">
      <path d="M 50.338786 151.520486 
L 848.7225 151.520486 
" clip-path="url(#pf214c899d0)" style="fill: none; stroke: #ffffff; stroke-width: 0.8; stroke-linecap: square"/>
     </g>
     <g id="line2d_85">
      <g>
       <use xlink:href="#m62e0bad58e" x="50.338786" y="151.520486" style="fill: #555555; stroke: #555555; stroke-width: 0.8"/>
      </g>
     </g>
     <g id="text_47">
      <!-- $\mathdefault{10^{-3}}$ -->
      <g style="fill: #555555" transform="translate(10.438786 156.839392) scale(0.14 -0.14)">
       <use xlink:href="#DejaVuSans-31" transform="translate(0 0.765625)"/>
       <use xlink:href="#DejaVuSans-30" transform="translate(63.623047 0.765625)"/>
       <use xlink:href="#DejaVuSans-2212" transform="translate(128.203125 39.046875) scale(0.7)"/>
       <use xlink:href="#DejaVuSans-33" transform="translate(186.855469 39.046875) scale(0.7)"/>
      </g>
     </g>
    </g>
    <g id="ytick_17">
     <g id="line2d_86">
      <path d="M 50.338786 121.213981 
L 848.7225 121.213981 
" clip-path="url(#pf214c899d0)" style="fill: none; stroke: #ffffff; stroke-width: 0.8; stroke-linecap: square"/>
     </g>
     <g id="line2d_87">
      <g>
       <use xlink:href="#m62e0bad58e" x="50.338786" y="121.213981" style="fill: #555555; stroke: #555555; stroke-width: 0.8"/>
      </g>
     </g>
     <g id="text_48">
      <!-- $\mathdefault{10^{-2}}$ -->
      <g style="fill: #555555" transform="translate(10.438786 126.532888) scale(0.14 -0.14)">
       <use xlink:href="#DejaVuSans-31" transform="translate(0 0.765625)"/>
       <use xlink:href="#DejaVuSans-30" transform="translate(63.623047 0.765625)"/>
       <use xlink:href="#DejaVuSans-2212" transform="translate(128.203125 39.046875) scale(0.7)"/>
       <use xlink:href="#DejaVuSans-32" transform="translate(186.855469 39.046875) scale(0.7)"/>
      </g>
     </g>
    </g>
    <g id="ytick_18">
     <g id="line2d_88">
      <path d="M 50.338786 90.907477 
L 848.7225 90.907477 
" clip-path="url(#pf214c899d0)" style="fill: none; stroke: #ffffff; stroke-width: 0.8; stroke-linecap: square"/>
     </g>
     <g id="line2d_89">
      <g>
       <use xlink:href="#m62e0bad58e" x="50.338786" y="90.907477" style="fill: #555555; stroke: #555555; stroke-width: 0.8"/>
      </g>
     </g>
     <g id="text_49">
      <!-- $\mathdefault{10^{-1}}$ -->
      <g style="fill: #555555" transform="translate(10.438786 96.226383) scale(0.14 -0.14)">
       <use xlink:href="#DejaVuSans-31" transform="translate(0 0.684375)"/>
       <use xlink:href="#DejaVuSans-30" transform="translate(63.623047 0.684375)"/>
       <use xlink:href="#DejaVuSans-2212" transform="translate(128.203125 38.965625) scale(0.7)"/>
       <use xlink:href="#DejaVuSans-31" transform="translate(186.855469 38.965625) scale(0.7)"/>
      </g>
     </g>
    </g>
    <g id="ytick_19">
     <g id="line2d_90">
      <path d="M 50.338786 60.600972 
L 848.7225 60.600972 
" clip-path="url(#pf214c899d0)" style="fill: none; stroke: #ffffff; stroke-width: 0.8; stroke-linecap: square"/>
     </g>
     <g id="line2d_91">
      <g>
       <use xlink:href="#m62e0bad58e" x="50.338786" y="60.600972" style="fill: #555555; stroke: #555555; stroke-width: 0.8"/>
      </g>
     </g>
     <g id="text_50">
      <!-- $\mathdefault{10^{0}}$ -->
      <g style="fill: #555555" transform="translate(18.698786 65.919878) scale(0.14 -0.14)">
       <use xlink:href="#DejaVuSans-31" transform="translate(0 0.765625)"/>
       <use xlink:href="#DejaVuSans-30" transform="translate(63.623047 0.765625)"/>
       <use xlink:href="#DejaVuSans-30" transform="translate(128.203125 39.046875) scale(0.7)"/>
      </g>
     </g>
    </g>
    <g id="ytick_20">
     <g id="line2d_92">
      <path d="M 50.338786 30.294468 
L 848.7225 30.294468 
" clip-path="url(#pf214c899d0)" style="fill: none; stroke: #ffffff; stroke-width: 0.8; stroke-linecap: square"/>
     </g>
     <g id="line2d_93">
      <g>
       <use xlink:href="#m62e0bad58e" x="50.338786" y="30.294468" style="fill: #555555; stroke: #555555; stroke-width: 0.8"/>
      </g>
     </g>
     <g id="text_51">
      <!-- $\mathdefault{10^{1}}$ -->
      <g style="fill: #555555" transform="translate(18.698786 35.613374) scale(0.14 -0.14)">
       <use xlink:href="#DejaVuSans-31" transform="translate(0 0.684375)"/>
       <use xlink:href="#DejaVuSans-30" transform="translate(63.623047 0.684375)"/>
       <use xlink:href="#DejaVuSans-31" transform="translate(128.203125 38.965625) scale(0.7)"/>
      </g>
     </g>
    </g>
    <g id="ytick_21">
     <g id="line2d_94">
      <defs>
       <path id="mb10d090aea" d="M 0 0 
L -2 0 
" style="stroke: #555555; stroke-width: 0.6"/>
      </defs>
      <g>
       <use xlink:href="#mb10d090aea" x="50.338786" y="233.316833" style="fill: #555555; stroke: #555555; stroke-width: 0.6"/>
      </g>
     </g>
    </g>
    <g id="ytick_22">
     <g id="line2d_95">
      <g>
       <use xlink:href="#mb10d090aea" x="50.338786" y="227.980122" style="fill: #555555; stroke: #555555; stroke-width: 0.6"/>
      </g>
     </g>
    </g>
    <g id="ytick_23">
     <g id="line2d_96">
      <g>
       <use xlink:href="#mb10d090aea" x="50.338786" y="224.193666" style="fill: #555555; stroke: #555555; stroke-width: 0.6"/>
      </g>
     </g>
    </g>
    <g id="ytick_24">
     <g id="line2d_97">
      <g>
       <use xlink:href="#mb10d090aea" x="50.338786" y="221.256662" style="fill: #555555; stroke: #555555; stroke-width: 0.6"/>
      </g>
     </g>
    </g>
    <g id="ytick_25">
     <g id="line2d_98">
      <g>
       <use xlink:href="#mb10d090aea" x="50.338786" y="218.856956" style="fill: #555555; stroke: #555555; stroke-width: 0.6"/>
      </g>
     </g>
    </g>
    <g id="ytick_26">
     <g id="line2d_99">
      <g>
       <use xlink:href="#mb10d090aea" x="50.338786" y="216.828032" style="fill: #555555; stroke: #555555; stroke-width: 0.6"/>
      </g>
     </g>
    </g>
    <g id="ytick_27">
     <g id="line2d_100">
      <g>
       <use xlink:href="#mb10d090aea" x="50.338786" y="215.070499" style="fill: #555555; stroke: #555555; stroke-width: 0.6"/>
      </g>
     </g>
    </g>
    <g id="ytick_28">
     <g id="line2d_101">
      <g>
       <use xlink:href="#mb10d090aea" x="50.338786" y="213.520245" style="fill: #555555; stroke: #555555; stroke-width: 0.6"/>
      </g>
     </g>
    </g>
    <g id="ytick_29">
     <g id="line2d_102">
      <g>
       <use xlink:href="#mb10d090aea" x="50.338786" y="203.010328" style="fill: #555555; stroke: #555555; stroke-width: 0.6"/>
      </g>
     </g>
    </g>
    <g id="ytick_30">
     <g id="line2d_103">
      <g>
       <use xlink:href="#mb10d090aea" x="50.338786" y="197.673618" style="fill: #555555; stroke: #555555; stroke-width: 0.6"/>
      </g>
     </g>
    </g>
    <g id="ytick_31">
     <g id="line2d_104">
      <g>
       <use xlink:href="#mb10d090aea" x="50.338786" y="193.887161" style="fill: #555555; stroke: #555555; stroke-width: 0.6"/>
      </g>
     </g>
    </g>
    <g id="ytick_32">
     <g id="line2d_105">
      <g>
       <use xlink:href="#mb10d090aea" x="50.338786" y="190.950158" style="fill: #555555; stroke: #555555; stroke-width: 0.6"/>
      </g>
     </g>
    </g>
    <g id="ytick_33">
     <g id="line2d_106">
      <g>
       <use xlink:href="#mb10d090aea" x="50.338786" y="188.550451" style="fill: #555555; stroke: #555555; stroke-width: 0.6"/>
      </g>
     </g>
    </g>
    <g id="ytick_34">
     <g id="line2d_107">
      <g>
       <use xlink:href="#mb10d090aea" x="50.338786" y="186.521528" style="fill: #555555; stroke: #555555; stroke-width: 0.6"/>
      </g>
     </g>
    </g>
    <g id="ytick_35">
     <g id="line2d_108">
      <g>
       <use xlink:href="#mb10d090aea" x="50.338786" y="184.763995" style="fill: #555555; stroke: #555555; stroke-width: 0.6"/>
      </g>
     </g>
    </g>
    <g id="ytick_36">
     <g id="line2d_109">
      <g>
       <use xlink:href="#mb10d090aea" x="50.338786" y="183.21374" style="fill: #555555; stroke: #555555; stroke-width: 0.6"/>
      </g>
     </g>
    </g>
    <g id="ytick_37">
     <g id="line2d_110">
      <g>
       <use xlink:href="#mb10d090aea" x="50.338786" y="172.703824" style="fill: #555555; stroke: #555555; stroke-width: 0.6"/>
      </g>
     </g>
    </g>
    <g id="ytick_38">
     <g id="line2d_111">
      <g>
       <use xlink:href="#mb10d090aea" x="50.338786" y="167.367113" style="fill: #555555; stroke: #555555; stroke-width: 0.6"/>
      </g>
     </g>
    </g>
    <g id="ytick_39">
     <g id="line2d_112">
      <g>
       <use xlink:href="#mb10d090aea" x="50.338786" y="163.580657" style="fill: #555555; stroke: #555555; stroke-width: 0.6"/>
      </g>
     </g>
    </g>
    <g id="ytick_40">
     <g id="line2d_113">
      <g>
       <use xlink:href="#mb10d090aea" x="50.338786" y="160.643653" style="fill: #555555; stroke: #555555; stroke-width: 0.6"/>
      </g>
     </g>
    </g>
    <g id="ytick_41">
     <g id="line2d_114">
      <g>
       <use xlink:href="#mb10d090aea" x="50.338786" y="158.243946" style="fill: #555555; stroke: #555555; stroke-width: 0.6"/>
      </g>
     </g>
    </g>
    <g id="ytick_42">
     <g id="line2d_115">
      <g>
       <use xlink:href="#mb10d090aea" x="50.338786" y="156.215023" style="fill: #555555; stroke: #555555; stroke-width: 0.6"/>
      </g>
     </g>
    </g>
    <g id="ytick_43">
     <g id="line2d_116">
      <g>
       <use xlink:href="#mb10d090aea" x="50.338786" y="154.45749" style="fill: #555555; stroke: #555555; stroke-width: 0.6"/>
      </g>
     </g>
    </g>
    <g id="ytick_44">
     <g id="line2d_117">
      <g>
       <use xlink:href="#mb10d090aea" x="50.338786" y="152.907236" style="fill: #555555; stroke: #555555; stroke-width: 0.6"/>
      </g>
     </g>
    </g>
    <g id="ytick_45">
     <g id="line2d_118">
      <g>
       <use xlink:href="#mb10d090aea" x="50.338786" y="142.397319" style="fill: #555555; stroke: #555555; stroke-width: 0.6"/>
      </g>
     </g>
    </g>
    <g id="ytick_46">
     <g id="line2d_119">
      <g>
       <use xlink:href="#mb10d090aea" x="50.338786" y="137.060609" style="fill: #555555; stroke: #555555; stroke-width: 0.6"/>
      </g>
     </g>
    </g>
    <g id="ytick_47">
     <g id="line2d_120">
      <g>
       <use xlink:href="#mb10d090aea" x="50.338786" y="133.274152" style="fill: #555555; stroke: #555555; stroke-width: 0.6"/>
      </g>
     </g>
    </g>
    <g id="ytick_48">
     <g id="line2d_121">
      <g>
       <use xlink:href="#mb10d090aea" x="50.338786" y="130.337148" style="fill: #555555; stroke: #555555; stroke-width: 0.6"/>
      </g>
     </g>
    </g>
    <g id="ytick_49">
     <g id="line2d_122">
      <g>
       <use xlink:href="#mb10d090aea" x="50.338786" y="127.937442" style="fill: #555555; stroke: #555555; stroke-width: 0.6"/>
      </g>
     </g>
    </g>
    <g id="ytick_50">
     <g id="line2d_123">
      <g>
       <use xlink:href="#mb10d090aea" x="50.338786" y="125.908518" style="fill: #555555; stroke: #555555; stroke-width: 0.6"/>
      </g>
     </g>
    </g>
    <g id="ytick_51">
     <g id="line2d_124">
      <g>
       <use xlink:href="#mb10d090aea" x="50.338786" y="124.150985" style="fill: #555555; stroke: #555555; stroke-width: 0.6"/>
      </g>
     </g>
    </g>
    <g id="ytick_52">
     <g id="line2d_125">
      <g>
       <use xlink:href="#mb10d090aea" x="50.338786" y="122.600731" style="fill: #555555; stroke: #555555; stroke-width: 0.6"/>
      </g>
     </g>
    </g>
    <g id="ytick_53">
     <g id="line2d_126">
      <g>
       <use xlink:href="#mb10d090aea" x="50.338786" y="112.090815" style="fill: #555555; stroke: #555555; stroke-width: 0.6"/>
      </g>
     </g>
    </g>
    <g id="ytick_54">
     <g id="line2d_127">
      <g>
       <use xlink:href="#mb10d090aea" x="50.338786" y="106.754104" style="fill: #555555; stroke: #555555; stroke-width: 0.6"/>
      </g>
     </g>
    </g>
    <g id="ytick_55">
     <g id="line2d_128">
      <g>
       <use xlink:href="#mb10d090aea" x="50.338786" y="102.967648" style="fill: #555555; stroke: #555555; stroke-width: 0.6"/>
      </g>
     </g>
    </g>
    <g id="ytick_56">
     <g id="line2d_129">
      <g>
       <use xlink:href="#mb10d090aea" x="50.338786" y="100.030644" style="fill: #555555; stroke: #555555; stroke-width: 0.6"/>
      </g>
     </g>
    </g>
    <g id="ytick_57">
     <g id="line2d_130">
      <g>
       <use xlink:href="#mb10d090aea" x="50.338786" y="97.630937" style="fill: #555555; stroke: #555555; stroke-width: 0.6"/>
      </g>
     </g>
    </g>
    <g id="ytick_58">
     <g id="line2d_131">
      <g>
       <use xlink:href="#mb10d090aea" x="50.338786" y="95.602014" style="fill: #555555; stroke: #555555; stroke-width: 0.6"/>
      </g>
     </g>
    </g>
    <g id="ytick_59">
     <g id="line2d_132">
      <g>
       <use xlink:href="#mb10d090aea" x="50.338786" y="93.844481" style="fill: #555555; stroke: #555555; stroke-width: 0.6"/>
      </g>
     </g>
    </g>
    <g id="ytick_60">
     <g id="line2d_133">
      <g>
       <use xlink:href="#mb10d090aea" x="50.338786" y="92.294226" style="fill: #555555; stroke: #555555; stroke-width: 0.6"/>
      </g>
     </g>
    </g>
    <g id="ytick_61">
     <g id="line2d_134">
      <g>
       <use xlink:href="#mb10d090aea" x="50.338786" y="81.78431" style="fill: #555555; stroke: #555555; stroke-width: 0.6"/>
      </g>
     </g>
    </g>
    <g id="ytick_62">
     <g id="line2d_135">
      <g>
       <use xlink:href="#mb10d090aea" x="50.338786" y="76.447599" style="fill: #555555; stroke: #555555; stroke-width: 0.6"/>
      </g>
     </g>
    </g>
    <g id="ytick_63">
     <g id="line2d_136">
      <g>
       <use xlink:href="#mb10d090aea" x="50.338786" y="72.661143" style="fill: #555555; stroke: #555555; stroke-width: 0.6"/>
      </g>
     </g>
    </g>
    <g id="ytick_64">
     <g id="line2d_137">
      <g>
       <use xlink:href="#mb10d090aea" x="50.338786" y="69.724139" style="fill: #555555; stroke: #555555; stroke-width: 0.6"/>
      </g>
     </g>
    </g>
    <g id="ytick_65">
     <g id="line2d_138">
      <g>
       <use xlink:href="#mb10d090aea" x="50.338786" y="67.324432" style="fill: #555555; stroke: #555555; stroke-width: 0.6"/>
      </g>
     </g>
    </g>
    <g id="ytick_66">
     <g id="line2d_139">
      <g>
       <use xlink:href="#mb10d090aea" x="50.338786" y="65.295509" style="fill: #555555; stroke: #555555; stroke-width: 0.6"/>
      </g>
     </g>
    </g>
    <g id="ytick_67">
     <g id="line2d_140">
      <g>
       <use xlink:href="#mb10d090aea" x="50.338786" y="63.537976" style="fill: #555555; stroke: #555555; stroke-width: 0.6"/>
      </g>
     </g>
    </g>
    <g id="ytick_68">
     <g id="line2d_141">
      <g>
       <use xlink:href="#mb10d090aea" x="50.338786" y="61.987722" style="fill: #555555; stroke: #555555; stroke-width: 0.6"/>
      </g>
     </g>
    </g>
    <g id="ytick_69">
     <g id="line2d_142">
      <g>
       <use xlink:href="#mb10d090aea" x="50.338786" y="51.477805" style="fill: #555555; stroke: #555555; stroke-width: 0.6"/>
      </g>
     </g>
    </g>
    <g id="ytick_70">
     <g id="line2d_143">
      <g>
       <use xlink:href="#mb10d090aea" x="50.338786" y="46.141095" style="fill: #555555; stroke: #555555; stroke-width: 0.6"/>
      </g>
     </g>
    </g>
    <g id="ytick_71">
     <g id="line2d_144">
      <g>
       <use xlink:href="#mb10d090aea" x="50.338786" y="42.354638" style="fill: #555555; stroke: #555555; stroke-width: 0.6"/>
      </g>
     </g>
    </g>
    <g id="ytick_72">
     <g id="line2d_145">
      <g>
       <use xlink:href="#mb10d090aea" x="50.338786" y="39.417635" style="fill: #555555; stroke: #555555; stroke-width: 0.6"/>
      </g>
     </g>
    </g>
    <g id="ytick_73">
     <g id="line2d_146">
      <g>
       <use xlink:href="#mb10d090aea" x="50.338786" y="37.017928" style="fill: #555555; stroke: #555555; stroke-width: 0.6"/>
      </g>
     </g>
    </g>
    <g id="ytick_74">
     <g id="line2d_147">
      <g>
       <use xlink:href="#mb10d090aea" x="50.338786" y="34.989005" style="fill: #555555; stroke: #555555; stroke-width: 0.6"/>
      </g>
     </g>
    </g>
    <g id="ytick_75">
     <g id="line2d_148">
      <g>
       <use xlink:href="#mb10d090aea" x="50.338786" y="33.231471" style="fill: #555555; stroke: #555555; stroke-width: 0.6"/>
      </g>
     </g>
    </g>
    <g id="ytick_76">
     <g id="line2d_149">
      <g>
       <use xlink:href="#mb10d090aea" x="50.338786" y="31.681217" style="fill: #555555; stroke: #555555; stroke-width: 0.6"/>
      </g>
     </g>
    </g>
   </g>
   <g id="PathCollection_1">
    <defs>
     <path id="m0f1f3fe230" d="M 0 6.123724 
C 1.624031 6.123724 3.181764 5.47849 4.330127 4.330127 
C 5.47849 3.181764 6.123724 1.624031 6.123724 0 
C 6.123724 -1.624031 5.47849 -3.181764 4.330127 -4.330127 
C 3.181764 -5.47849 1.624031 -6.123724 0 -6.123724 
C -1.624031 -6.123724 -3.181764 -5.47849 -4.330127 -4.330127 
C -5.47849 -3.181764 -6.123724 -1.624031 -6.123724 0 
C -6.123724 1.624031 -5.47849 3.181764 -4.330127 4.330127 
C -3.181764 5.47849 -1.624031 6.123724 0 6.123724 
z
" style="stroke: #ff0000; stroke-width: 0.5"/>
    </defs>
    <g clip-path="url(#pf214c899d0)">
     <use xlink:href="#m0f1f3fe230" x="171.306016" y="76.494453" style="fill: #ff0000; stroke: #ff0000; stroke-width: 0.5"/>
    </g>
   </g>
   <g id="line2d_150">
    <path d="M 50.338786 32.509089 
L 74.532232 46.136681 
L 98.725678 53.30723 
L 122.919124 61.39874 
L 147.11257 69.503622 
L 171.306016 76.494453 
" clip-path="url(#pf214c899d0)" style="fill: none; stroke: #440154; stroke-width: 2; stroke-linecap: square"/>
   </g>
   <g id="line2d_151">
    <path d="M 50.338786 212.133495 
L 848.7225 212.133495 
" clip-path="url(#pf214c899d0)" style="fill: none; stroke-dasharray: 5.55,2.4; stroke-dashoffset: 0; stroke: #000000; stroke-width: 1.5"/>
   </g>
   <g id="patch_14">
    <path d="M 50.338786 242.44 
L 50.338786 29.04 
" style="fill: none; stroke: #ffffff; stroke-linejoin: miter; stroke-linecap: square"/>
   </g>
   <g id="patch_15">
    <path d="M 848.7225 242.44 
L 848.7225 29.04 
" style="fill: none; stroke: #ffffff; stroke-linejoin: miter; stroke-linecap: square"/>
   </g>
   <g id="patch_16">
    <path d="M 50.338786 242.44 
L 848.7225 242.44 
" style="fill: none; stroke: #ffffff; stroke-linejoin: miter; stroke-linecap: square"/>
   </g>
   <g id="patch_17">
    <path d="M 50.338786 29.04 
L 848.7225 29.04 
" style="fill: none; stroke: #ffffff; stroke-linejoin: miter; stroke-linecap: square"/>
   </g>
   <g id="text_52">
    <!-- Convergence -->
    <g transform="translate(76.762874 206.796785) scale(0.14 -0.14)">
     <defs>
      <path id="DejaVuSans-43" d="M 4122 4306 
L 4122 3641 
Q 3803 3938 3442 4084 
Q 3081 4231 2675 4231 
Q 1875 4231 1450 3742 
Q 1025 3253 1025 2328 
Q 1025 1406 1450 917 
Q 1875 428 2675 428 
Q 3081 428 3442 575 
Q 3803 722 4122 1019 
L 4122 359 
Q 3791 134 3420 21 
Q 3050 -91 2638 -91 
Q 1578 -91 968 557 
Q 359 1206 359 2328 
Q 359 3453 968 4101 
Q 1578 4750 2638 4750 
Q 3056 4750 3426 4639 
Q 3797 4528 4122 4306 
z
" transform="scale(0.015625)"/>
      <path id="DejaVuSans-67" d="M 2906 1791 
Q 2906 2416 2648 2759 
Q 2391 3103 1925 3103 
Q 1463 3103 1205 2759 
Q 947 2416 947 1791 
Q 947 1169 1205 825 
Q 1463 481 1925 481 
Q 2391 481 2648 825 
Q 2906 1169 2906 1791 
z
M 3481 434 
Q 3481 -459 3084 -895 
Q 2688 -1331 1869 -1331 
Q 1566 -1331 1297 -1286 
Q 1028 -1241 775 -1147 
L 775 -588 
Q 1028 -725 1275 -790 
Q 1522 -856 1778 -856 
Q 2344 -856 2625 -561 
Q 2906 -266 2906 331 
L 2906 616 
Q 2728 306 2450 153 
Q 2172 0 1784 0 
Q 1141 0 747 490 
Q 353 981 353 1791 
Q 353 2603 747 3093 
Q 1141 3584 1784 3584 
Q 2172 3584 2450 3431 
Q 2728 3278 2906 2969 
L 2906 3500 
L 3481 3500 
L 3481 434 
z
" transform="scale(0.015625)"/>
     </defs>
     <use xlink:href="#DejaVuSans-43"/>
     <use xlink:href="#DejaVuSans-6f" x="69.824219"/>
     <use xlink:href="#DejaVuSans-6e" x="131.005859"/>
     <use xlink:href="#DejaVuSans-76" x="194.384766"/>
     <use xlink:href="#DejaVuSans-65" x="253.564453"/>
     <use xlink:href="#DejaVuSans-72" x="315.087891"/>
     <use xlink:href="#DejaVuSans-67" x="354.451172"/>
     <use xlink:href="#DejaVuSans-65" x="417.927734"/>
     <use xlink:href="#DejaVuSans-6e" x="479.451172"/>
     <use xlink:href="#DejaVuSans-63" x="542.830078"/>
     <use xlink:href="#DejaVuSans-65" x="597.810547"/>
    </g>
   </g>
   <g id="text_53">
    <!-- Residual error -->
    <g transform="translate(385.335643 23.04) scale(0.16 -0.16)">
     <defs>
      <path id="DejaVuSans-Bold-52" d="M 2297 2597 
Q 2675 2597 2839 2737 
Q 3003 2878 3003 3200 
Q 3003 3519 2839 3656 
Q 2675 3794 2297 3794 
L 1791 3794 
L 1791 2597 
L 2297 2597 
z
M 1791 1766 
L 1791 0 
L 588 0 
L 588 4666 
L 2425 4666 
Q 3347 4666 3776 4356 
Q 4206 4047 4206 3378 
Q 4206 2916 3982 2619 
Q 3759 2322 3309 2181 
Q 3556 2125 3751 1926 
Q 3947 1728 4147 1325 
L 4800 0 
L 3519 0 
L 2950 1159 
Q 2778 1509 2601 1637 
Q 2425 1766 2131 1766 
L 1791 1766 
z
" transform="scale(0.015625)"/>
      <path id="DejaVuSans-Bold-64" d="M 2919 2988 
L 2919 4863 
L 4044 4863 
L 4044 0 
L 2919 0 
L 2919 506 
Q 2688 197 2409 53 
Q 2131 -91 1766 -91 
Q 1119 -91 703 423 
Q 288 938 288 1747 
Q 288 2556 703 3070 
Q 1119 3584 1766 3584 
Q 2128 3584 2408 3439 
Q 2688 3294 2919 2988 
z
M 2181 722 
Q 2541 722 2730 984 
Q 2919 1247 2919 1747 
Q 2919 2247 2730 2509 
Q 2541 2772 2181 2772 
Q 1825 2772 1636 2509 
Q 1447 2247 1447 1747 
Q 1447 1247 1636 984 
Q 1825 722 2181 722 
z
" transform="scale(0.015625)"/>
      <path id="DejaVuSans-Bold-6c" d="M 538 4863 
L 1656 4863 
L 1656 0 
L 538 0 
L 538 4863 
z
" transform="scale(0.015625)"/>
     </defs>
     <use xlink:href="#DejaVuSans-Bold-52"/>
     <use xlink:href="#DejaVuSans-Bold-65" x="77.001953"/>
     <use xlink:href="#DejaVuSans-Bold-73" x="144.824219"/>
     <use xlink:href="#DejaVuSans-Bold-69" x="204.345703"/>
     <use xlink:href="#DejaVuSans-Bold-64" x="238.623047"/>
     <use xlink:href="#DejaVuSans-Bold-75" x="310.205078"/>
     <use xlink:href="#DejaVuSans-Bold-61" x="381.396484"/>
     <use xlink:href="#DejaVuSans-Bold-6c" x="448.876953"/>
     <use xlink:href="#DejaVuSans-Bold-20" x="483.154297"/>
     <use xlink:href="#DejaVuSans-Bold-65" x="517.96875"/>
     <use xlink:href="#DejaVuSans-Bold-72" x="585.791016"/>
     <use xlink:href="#DejaVuSans-Bold-72" x="635.107422"/>
     <use xlink:href="#DejaVuSans-Bold-6f" x="684.423828"/>
     <use xlink:href="#DejaVuSans-Bold-72" x="753.125"/>
    </g>
   </g>
  </g>
 </g>
 <defs>
  <clipPath id="pfade444eb9">
   <rect x="50.338786" y="311.64" width="376.893107" height="213.4"/>
  </clipPath>
  <clipPath id="pf0a82deecc">
   <rect x="471.829393" y="311.64" width="376.893107" height="213.4"/>
  </clipPath>
  <clipPath id="pf214c899d0">
   <rect x="50.338786" y="29.04" width="798.383714" height="213.4"/>
  </clipPath>
 </defs>
</svg>
