<?xml version="1.0" encoding="utf-8" standalone="no"?>
<!DOCTYPE svg PUBLIC "-//W3C//DTD SVG 1.1//EN"
  "http://www.w3.org/Graphics/SVG/1.1/DTD/svg11.dtd">
<svg xmlns:xlink="http://www.w3.org/1999/xlink" width="864pt" height="576pt" viewBox="0 0 864 576" xmlns="http://www.w3.org/2000/svg" version="1.1">
 <metadata>
  <rdf:RDF xmlns:dc="http://purl.org/dc/elements/1.1/" xmlns:cc="http://creativecommons.org/ns#" xmlns:rdf="http://www.w3.org/1999/02/22-rdf-syntax-ns#">
   <cc:Work>
    <dc:type rdf:resource="http://purl.org/dc/dcmitype/StillImage"/>
    <dc:date>2024-04-20T19:06:07.354062</dc:date>
    <dc:format>image/svg+xml</dc:format>
    <dc:creator>
     <cc:Agent>
      <dc:title>Matplotlib v3.8.3, https://matplotlib.org/</dc:title>
     </cc:Agent>
    </dc:creator>
   </cc:Work>
  </rdf:RDF>
 </metadata>
 <defs>
  <style type="text/css">*{stroke-linejoin: round; stroke-linecap: butt}</style>
 </defs>
 <g id="figure_1">
  <g id="patch_1">
   <path d="M 0 576 
L 864 576 
L 864 0 
L 0 0 
z
"/>
  </g>
  <g id="axes_1">
   <g id="patch_2">
    <path d="M 50.338786 525.04 
L 427.231893 525.04 
L 427.231893 311.64 
L 50.338786 311.64 
z
"/>
   </g>
   <g id="matplotlib.axis_1">
    <g id="xtick_1">
     <g id="line2d_1">
      <defs>
       <path id="m1e20ce1f94" d="M 0 0 
L 0 3.5 
" style="stroke: #ffffff; stroke-width: 0.8"/>
      </defs>
      <g>
       <use xlink:href="#m1e20ce1f94" x="50.338786" y="525.04" style="fill: #ffffff; stroke: #ffffff; stroke-width: 0.8"/>
      </g>
     </g>
     <g id="text_1">
      <!-- 0 -->
      <g style="fill: #ffffff" transform="translate(45.885036 542.677812) scale(0.14 -0.14)">
       <defs>
        <path id="DejaVuSans-30" d="M 2034 4250 
Q 1547 4250 1301 3770 
Q 1056 3291 1056 2328 
Q 1056 1369 1301 889 
Q 1547 409 2034 409 
Q 2525 409 2770 889 
Q 3016 1369 3016 2328 
Q 3016 3291 2770 3770 
Q 2525 4250 2034 4250 
z
M 2034 4750 
Q 2819 4750 3233 4129 
Q 3647 3509 3647 2328 
Q 3647 1150 3233 529 
Q 2819 -91 2034 -91 
Q 1250 -91 836 529 
Q 422 1150 422 2328 
Q 422 3509 836 4129 
Q 1250 4750 2034 4750 
z
" transform="scale(0.015625)"/>
       </defs>
       <use xlink:href="#DejaVuSans-30"/>
      </g>
     </g>
    </g>
    <g id="xtick_2">
     <g id="line2d_2">
      <g>
       <use xlink:href="#m1e20ce1f94" x="113.154304" y="525.04" style="fill: #ffffff; stroke: #ffffff; stroke-width: 0.8"/>
      </g>
     </g>
     <g id="text_2">
      <!-- 1 -->
      <g style="fill: #ffffff" transform="translate(108.700554 542.677812) scale(0.14 -0.14)">
       <defs>
        <path id="DejaVuSans-31" d="M 794 531 
L 1825 531 
L 1825 4091 
L 703 3866 
L 703 4441 
L 1819 4666 
L 2450 4666 
L 2450 531 
L 3481 531 
L 3481 0 
L 794 0 
L 794 531 
z
" transform="scale(0.015625)"/>
       </defs>
       <use xlink:href="#DejaVuSans-31"/>
      </g>
     </g>
    </g>
    <g id="xtick_3">
     <g id="line2d_3">
      <g>
       <use xlink:href="#m1e20ce1f94" x="175.969822" y="525.04" style="fill: #ffffff; stroke: #ffffff; stroke-width: 0.8"/>
      </g>
     </g>
     <g id="text_3">
      <!-- 2 -->
      <g style="fill: #ffffff" transform="translate(171.516072 542.677812) scale(0.14 -0.14)">
       <defs>
        <path id="DejaVuSans-32" d="M 1228 531 
L 3431 531 
L 3431 0 
L 469 0 
L 469 531 
Q 828 903 1448 1529 
Q 2069 2156 2228 2338 
Q 2531 2678 2651 2914 
Q 2772 3150 2772 3378 
Q 2772 3750 2511 3984 
Q 2250 4219 1831 4219 
Q 1534 4219 1204 4116 
Q 875 4013 500 3803 
L 500 4441 
Q 881 4594 1212 4672 
Q 1544 4750 1819 4750 
Q 2544 4750 2975 4387 
Q 3406 4025 3406 3419 
Q 3406 3131 3298 2873 
Q 3191 2616 2906 2266 
Q 2828 2175 2409 1742 
Q 1991 1309 1228 531 
z
" transform="scale(0.015625)"/>
       </defs>
       <use xlink:href="#DejaVuSans-32"/>
      </g>
     </g>
    </g>
    <g id="xtick_4">
     <g id="line2d_4">
      <g>
       <use xlink:href="#m1e20ce1f94" x="238.78534" y="525.04" style="fill: #ffffff; stroke: #ffffff; stroke-width: 0.8"/>
      </g>
     </g>
     <g id="text_4">
      <!-- 3 -->
      <g style="fill: #ffffff" transform="translate(234.33159 542.677812) scale(0.14 -0.14)">
       <defs>
        <path id="DejaVuSans-33" d="M 2597 2516 
Q 3050 2419 3304 2112 
Q 3559 1806 3559 1356 
Q 3559 666 3084 287 
Q 2609 -91 1734 -91 
Q 1441 -91 1130 -33 
Q 819 25 488 141 
L 488 750 
Q 750 597 1062 519 
Q 1375 441 1716 441 
Q 2309 441 2620 675 
Q 2931 909 2931 1356 
Q 2931 1769 2642 2001 
Q 2353 2234 1838 2234 
L 1294 2234 
L 1294 2753 
L 1863 2753 
Q 2328 2753 2575 2939 
Q 2822 3125 2822 3475 
Q 2822 3834 2567 4026 
Q 2313 4219 1838 4219 
Q 1578 4219 1281 4162 
Q 984 4106 628 3988 
L 628 4550 
Q 988 4650 1302 4700 
Q 1616 4750 1894 4750 
Q 2613 4750 3031 4423 
Q 3450 4097 3450 3541 
Q 3450 3153 3228 2886 
Q 3006 2619 2597 2516 
z
" transform="scale(0.015625)"/>
       </defs>
       <use xlink:href="#DejaVuSans-33"/>
      </g>
     </g>
    </g>
    <g id="xtick_5">
     <g id="line2d_5">
      <g>
       <use xlink:href="#m1e20ce1f94" x="301.600858" y="525.04" style="fill: #ffffff; stroke: #ffffff; stroke-width: 0.8"/>
      </g>
     </g>
     <g id="text_5">
      <!-- 4 -->
      <g style="fill: #ffffff" transform="translate(297.147108 542.677812) scale(0.14 -0.14)">
       <defs>
        <path id="DejaVuSans-34" d="M 2419 4116 
L 825 1625 
L 2419 1625 
L 2419 4116 
z
M 2253 4666 
L 3047 4666 
L 3047 1625 
L 3713 1625 
L 3713 1100 
L 3047 1100 
L 3047 0 
L 2419 0 
L 2419 1100 
L 313 1100 
L 313 1709 
L 2253 4666 
z
" transform="scale(0.015625)"/>
       </defs>
       <use xlink:href="#DejaVuSans-34"/>
      </g>
     </g>
    </g>
    <g id="xtick_6">
     <g id="line2d_6">
      <g>
       <use xlink:href="#m1e20ce1f94" x="364.416375" y="525.04" style="fill: #ffffff; stroke: #ffffff; stroke-width: 0.8"/>
      </g>
     </g>
     <g id="text_6">
      <!-- 5 -->
      <g style="fill: #ffffff" transform="translate(359.962625 542.677812) scale(0.14 -0.14)">
       <defs>
        <path id="DejaVuSans-35" d="M 691 4666 
L 3169 4666 
L 3169 4134 
L 1269 4134 
L 1269 2991 
Q 1406 3038 1543 3061 
Q 1681 3084 1819 3084 
Q 2600 3084 3056 2656 
Q 3513 2228 3513 1497 
Q 3513 744 3044 326 
Q 2575 -91 1722 -91 
Q 1428 -91 1123 -41 
Q 819 9 494 109 
L 494 744 
Q 775 591 1075 516 
Q 1375 441 1709 441 
Q 2250 441 2565 725 
Q 2881 1009 2881 1497 
Q 2881 1984 2565 2268 
Q 2250 2553 1709 2553 
Q 1456 2553 1204 2497 
Q 953 2441 691 2322 
L 691 4666 
z
" transform="scale(0.015625)"/>
       </defs>
       <use xlink:href="#DejaVuSans-35"/>
      </g>
     </g>
    </g>
    <g id="xtick_7">
     <g id="line2d_7">
      <g>
       <use xlink:href="#m1e20ce1f94" x="427.231893" y="525.04" style="fill: #ffffff; stroke: #ffffff; stroke-width: 0.8"/>
      </g>
     </g>
     <g id="text_7">
      <!-- 6 -->
      <g style="fill: #ffffff" transform="translate(422.778143 542.677812) scale(0.14 -0.14)">
       <defs>
        <path id="DejaVuSans-36" d="M 2113 2584 
Q 1688 2584 1439 2293 
Q 1191 2003 1191 1497 
Q 1191 994 1439 701 
Q 1688 409 2113 409 
Q 2538 409 2786 701 
Q 3034 994 3034 1497 
Q 3034 2003 2786 2293 
Q 2538 2584 2113 2584 
z
M 3366 4563 
L 3366 3988 
Q 3128 4100 2886 4159 
Q 2644 4219 2406 4219 
Q 1781 4219 1451 3797 
Q 1122 3375 1075 2522 
Q 1259 2794 1537 2939 
Q 1816 3084 2150 3084 
Q 2853 3084 3261 2657 
Q 3669 2231 3669 1497 
Q 3669 778 3244 343 
Q 2819 -91 2113 -91 
Q 1303 -91 875 529 
Q 447 1150 447 2328 
Q 447 3434 972 4092 
Q 1497 4750 2381 4750 
Q 2619 4750 2861 4703 
Q 3103 4656 3366 4563 
z
" transform="scale(0.015625)"/>
       </defs>
       <use xlink:href="#DejaVuSans-36"/>
      </g>
     </g>
    </g>
    <g id="text_8">
     <!-- Wave-vector -->
     <g style="fill: #ffffff" transform="translate(188.77284 561.746875) scale(0.16 -0.16)">
      <defs>
       <path id="DejaVuSans-57" d="M 213 4666 
L 850 4666 
L 1831 722 
L 2809 4666 
L 3519 4666 
L 4500 722 
L 5478 4666 
L 6119 4666 
L 4947 0 
L 4153 0 
L 3169 4050 
L 2175 0 
L 1381 0 
L 213 4666 
z
" transform="scale(0.015625)"/>
       <path id="DejaVuSans-61" d="M 2194 1759 
Q 1497 1759 1228 1600 
Q 959 1441 959 1056 
Q 959 750 1161 570 
Q 1363 391 1709 391 
Q 2188 391 2477 730 
Q 2766 1069 2766 1631 
L 2766 1759 
L 2194 1759 
z
M 3341 1997 
L 3341 0 
L 2766 0 
L 2766 531 
Q 2569 213 2275 61 
Q 1981 -91 1556 -91 
Q 1019 -91 701 211 
Q 384 513 384 1019 
Q 384 1609 779 1909 
Q 1175 2209 1959 2209 
L 2766 2209 
L 2766 2266 
Q 2766 2663 2505 2880 
Q 2244 3097 1772 3097 
Q 1472 3097 1187 3025 
Q 903 2953 641 2809 
L 641 3341 
Q 956 3463 1253 3523 
Q 1550 3584 1831 3584 
Q 2591 3584 2966 3190 
Q 3341 2797 3341 1997 
z
" transform="scale(0.015625)"/>
       <path id="DejaVuSans-76" d="M 191 3500 
L 800 3500 
L 1894 563 
L 2988 3500 
L 3597 3500 
L 2284 0 
L 1503 0 
L 191 3500 
z
" transform="scale(0.015625)"/>
       <path id="DejaVuSans-65" d="M 3597 1894 
L 3597 1613 
L 953 1613 
Q 991 1019 1311 708 
Q 1631 397 2203 397 
Q 2534 397 2845 478 
Q 3156 559 3463 722 
L 3463 178 
Q 3153 47 2828 -22 
Q 2503 -91 2169 -91 
Q 1331 -91 842 396 
Q 353 884 353 1716 
Q 353 2575 817 3079 
Q 1281 3584 2069 3584 
Q 2775 3584 3186 3129 
Q 3597 2675 3597 1894 
z
M 3022 2063 
Q 3016 2534 2758 2815 
Q 2500 3097 2075 3097 
Q 1594 3097 1305 2825 
Q 1016 2553 972 2059 
L 3022 2063 
z
" transform="scale(0.015625)"/>
       <path id="DejaVuSans-2d" d="M 313 2009 
L 1997 2009 
L 1997 1497 
L 313 1497 
L 313 2009 
z
" transform="scale(0.015625)"/>
       <path id="DejaVuSans-63" d="M 3122 3366 
L 3122 2828 
Q 2878 2963 2633 3030 
Q 2388 3097 2138 3097 
Q 1578 3097 1268 2742 
Q 959 2388 959 1747 
Q 959 1106 1268 751 
Q 1578 397 2138 397 
Q 2388 397 2633 464 
Q 2878 531 3122 666 
L 3122 134 
Q 2881 22 2623 -34 
Q 2366 -91 2075 -91 
Q 1284 -91 818 406 
Q 353 903 353 1747 
Q 353 2603 823 3093 
Q 1294 3584 2113 3584 
Q 2378 3584 2631 3529 
Q 2884 3475 3122 3366 
z
" transform="scale(0.015625)"/>
       <path id="DejaVuSans-74" d="M 1172 4494 
L 1172 3500 
L 2356 3500 
L 2356 3053 
L 1172 3053 
L 1172 1153 
Q 1172 725 1289 603 
Q 1406 481 1766 481 
L 2356 481 
L 2356 0 
L 1766 0 
Q 1100 0 847 248 
Q 594 497 594 1153 
L 594 3053 
L 172 3053 
L 172 3500 
L 594 3500 
L 594 4494 
L 1172 4494 
z
" transform="scale(0.015625)"/>
       <path id="DejaVuSans-6f" d="M 1959 3097 
Q 1497 3097 1228 2736 
Q 959 2375 959 1747 
Q 959 1119 1226 758 
Q 1494 397 1959 397 
Q 2419 397 2687 759 
Q 2956 1122 2956 1747 
Q 2956 2369 2687 2733 
Q 2419 3097 1959 3097 
z
M 1959 3584 
Q 2709 3584 3137 3096 
Q 3566 2609 3566 1747 
Q 3566 888 3137 398 
Q 2709 -91 1959 -91 
Q 1206 -91 779 398 
Q 353 888 353 1747 
Q 353 2609 779 3096 
Q 1206 3584 1959 3584 
z
" transform="scale(0.015625)"/>
       <path id="DejaVuSans-72" d="M 2631 2963 
Q 2534 3019 2420 3045 
Q 2306 3072 2169 3072 
Q 1681 3072 1420 2755 
Q 1159 2438 1159 1844 
L 1159 0 
L 581 0 
L 581 3500 
L 1159 3500 
L 1159 2956 
Q 1341 3275 1631 3429 
Q 1922 3584 2338 3584 
Q 2397 3584 2469 3576 
Q 2541 3569 2628 3553 
L 2631 2963 
z
" transform="scale(0.015625)"/>
      </defs>
      <use xlink:href="#DejaVuSans-57"/>
      <use xlink:href="#DejaVuSans-61" x="92.501953"/>
      <use xlink:href="#DejaVuSans-76" x="153.78125"/>
      <use xlink:href="#DejaVuSans-65" x="212.960938"/>
      <use xlink:href="#DejaVuSans-2d" x="274.484375"/>
      <use xlink:href="#DejaVuSans-76" x="307.943359"/>
      <use xlink:href="#DejaVuSans-65" x="367.123047"/>
      <use xlink:href="#DejaVuSans-63" x="428.646484"/>
      <use xlink:href="#DejaVuSans-74" x="483.626953"/>
      <use xlink:href="#DejaVuSans-6f" x="522.835938"/>
      <use xlink:href="#DejaVuSans-72" x="584.017578"/>
     </g>
    </g>
   </g>
   <g id="matplotlib.axis_2">
    <g id="ytick_1">
     <g id="line2d_8">
      <defs>
       <path id="mc6b322e2db" d="M 0 0 
L -3.5 0 
" style="stroke: #ffffff; stroke-width: 0.8"/>
      </defs>
      <g>
       <use xlink:href="#mc6b322e2db" x="50.338786" y="515.34" style="fill: #ffffff; stroke: #ffffff; stroke-width: 0.8"/>
      </g>
     </g>
     <g id="text_9">
      <!-- 0.0 -->
      <g style="fill: #ffffff" transform="translate(21.074411 520.658906) scale(0.14 -0.14)">
       <defs>
        <path id="DejaVuSans-2e" d="M 684 794 
L 1344 794 
L 1344 0 
L 684 0 
L 684 794 
z
" transform="scale(0.015625)"/>
       </defs>
       <use xlink:href="#DejaVuSans-30"/>
       <use xlink:href="#DejaVuSans-2e" x="63.623047"/>
       <use xlink:href="#DejaVuSans-30" x="95.410156"/>
      </g>
     </g>
    </g>
    <g id="ytick_2">
     <g id="line2d_9">
      <g>
       <use xlink:href="#mc6b322e2db" x="50.338786" y="482.553865" style="fill: #ffffff; stroke: #ffffff; stroke-width: 0.8"/>
      </g>
     </g>
     <g id="text_10">
      <!-- 0.2 -->
      <g style="fill: #ffffff" transform="translate(21.074411 487.872771) scale(0.14 -0.14)">
       <use xlink:href="#DejaVuSans-30"/>
       <use xlink:href="#DejaVuSans-2e" x="63.623047"/>
       <use xlink:href="#DejaVuSans-32" x="95.410156"/>
      </g>
     </g>
    </g>
    <g id="ytick_3">
     <g id="line2d_10">
      <g>
       <use xlink:href="#mc6b322e2db" x="50.338786" y="449.76773" style="fill: #ffffff; stroke: #ffffff; stroke-width: 0.8"/>
      </g>
     </g>
     <g id="text_11">
      <!-- 0.4 -->
      <g style="fill: #ffffff" transform="translate(21.074411 455.086636) scale(0.14 -0.14)">
       <use xlink:href="#DejaVuSans-30"/>
       <use xlink:href="#DejaVuSans-2e" x="63.623047"/>
       <use xlink:href="#DejaVuSans-34" x="95.410156"/>
      </g>
     </g>
    </g>
    <g id="ytick_4">
     <g id="line2d_11">
      <g>
       <use xlink:href="#mc6b322e2db" x="50.338786" y="416.981595" style="fill: #ffffff; stroke: #ffffff; stroke-width: 0.8"/>
      </g>
     </g>
     <g id="text_12">
      <!-- 0.6 -->
      <g style="fill: #ffffff" transform="translate(21.074411 422.300501) scale(0.14 -0.14)">
       <use xlink:href="#DejaVuSans-30"/>
       <use xlink:href="#DejaVuSans-2e" x="63.623047"/>
       <use xlink:href="#DejaVuSans-36" x="95.410156"/>
      </g>
     </g>
    </g>
    <g id="ytick_5">
     <g id="line2d_12">
      <g>
       <use xlink:href="#mc6b322e2db" x="50.338786" y="384.19546" style="fill: #ffffff; stroke: #ffffff; stroke-width: 0.8"/>
      </g>
     </g>
     <g id="text_13">
      <!-- 0.8 -->
      <g style="fill: #ffffff" transform="translate(21.074411 389.514366) scale(0.14 -0.14)">
       <defs>
        <path id="DejaVuSans-38" d="M 2034 2216 
Q 1584 2216 1326 1975 
Q 1069 1734 1069 1313 
Q 1069 891 1326 650 
Q 1584 409 2034 409 
Q 2484 409 2743 651 
Q 3003 894 3003 1313 
Q 3003 1734 2745 1975 
Q 2488 2216 2034 2216 
z
M 1403 2484 
Q 997 2584 770 2862 
Q 544 3141 544 3541 
Q 544 4100 942 4425 
Q 1341 4750 2034 4750 
Q 2731 4750 3128 4425 
Q 3525 4100 3525 3541 
Q 3525 3141 3298 2862 
Q 3072 2584 2669 2484 
Q 3125 2378 3379 2068 
Q 3634 1759 3634 1313 
Q 3634 634 3220 271 
Q 2806 -91 2034 -91 
Q 1263 -91 848 271 
Q 434 634 434 1313 
Q 434 1759 690 2068 
Q 947 2378 1403 2484 
z
M 1172 3481 
Q 1172 3119 1398 2916 
Q 1625 2713 2034 2713 
Q 2441 2713 2670 2916 
Q 2900 3119 2900 3481 
Q 2900 3844 2670 4047 
Q 2441 4250 2034 4250 
Q 1625 4250 1398 4047 
Q 1172 3844 1172 3481 
z
" transform="scale(0.015625)"/>
       </defs>
       <use xlink:href="#DejaVuSans-30"/>
       <use xlink:href="#DejaVuSans-2e" x="63.623047"/>
       <use xlink:href="#DejaVuSans-38" x="95.410156"/>
      </g>
     </g>
    </g>
    <g id="ytick_6">
     <g id="line2d_13">
      <g>
       <use xlink:href="#mc6b322e2db" x="50.338786" y="351.409325" style="fill: #ffffff; stroke: #ffffff; stroke-width: 0.8"/>
      </g>
     </g>
     <g id="text_14">
      <!-- 1.0 -->
      <g style="fill: #ffffff" transform="translate(21.074411 356.728231) scale(0.14 -0.14)">
       <use xlink:href="#DejaVuSans-31"/>
       <use xlink:href="#DejaVuSans-2e" x="63.623047"/>
       <use xlink:href="#DejaVuSans-30" x="95.410156"/>
      </g>
     </g>
    </g>
    <g id="ytick_7">
     <g id="line2d_14">
      <g>
       <use xlink:href="#mc6b322e2db" x="50.338786" y="318.62319" style="fill: #ffffff; stroke: #ffffff; stroke-width: 0.8"/>
      </g>
     </g>
     <g id="text_15">
      <!-- 1.2 -->
      <g style="fill: #ffffff" transform="translate(21.074411 323.942097) scale(0.14 -0.14)">
       <use xlink:href="#DejaVuSans-31"/>
       <use xlink:href="#DejaVuSans-2e" x="63.623047"/>
       <use xlink:href="#DejaVuSans-32" x="95.410156"/>
      </g>
     </g>
    </g>
   </g>
   <g id="line2d_15">
    <path d="M 50.338786 515.34 
L 56.620338 514.474948 
L 62.90189 511.92623 
L 69.183442 507.721039 
L 75.464993 501.924518 
L 81.746545 494.630058 
L 88.028097 485.961353 
L 94.309649 476.074442 
L 100.591201 465.159558 
L 106.872752 453.441642 
L 113.154304 441.178943 
L 119.435856 428.657164 
L 125.717408 416.178784 
L 131.998959 404.046022 
L 138.280511 392.538605 
L 144.562063 381.89021 
L 150.843615 372.270501 
L 157.125167 363.777044 
L 163.406718 356.439042 
L 169.68827 350.228682 
L 175.969822 345.064363 
L 182.251374 340.808284 
L 188.532926 337.275271 
L 194.814477 334.274538 
L 201.096029 331.660476 
L 207.377581 329.350382 
L 213.659133 327.311741 
L 219.940684 325.542275 
L 226.222236 324.055434 
L 232.503788 322.871186 
L 238.78534 322.011247 
L 245.066892 321.495436 
L 251.348443 321.34 
L 257.629995 321.55613 
L 263.911547 322.149004 
L 270.193099 323.117105 
L 276.47465 324.451787 
L 282.756202 326.137152 
L 289.037754 328.150206 
L 295.319306 330.461347 
L 301.600858 333.034996 
L 307.882409 335.830625 
L 314.163961 338.804129 
L 320.445513 341.90882 
L 326.727065 345.096833 
L 333.008616 348.320665 
L 339.290168 351.534184 
L 345.57172 354.693798 
L 351.853272 357.759484 
L 358.134824 360.69525 
L 364.416375 363.469789 
L 370.697927 366.0567 
L 376.979479 368.434712 
L 383.261031 370.587366 
L 389.542582 372.50311 
L 395.824134 374.17478 
L 402.105686 375.599243 
L 408.387238 376.777215 
L 414.66879 377.712233 
L 420.950341 378.410976 
L 427.231893 378.882163 
L 433.513445 379.136632 
L 439.794997 379.186329 
L 446.076549 379.044672 
L 452.3581 378.725593 
L 458.639652 378.243702 
L 464.921204 377.613717 
L 471.202756 376.850589 
L 477.484307 375.968757 
L 483.765859 374.982623 
L 490.047411 373.905965 
L 496.328963 372.752134 
L 502.610515 371.533848 
L 508.892066 370.263032 
L 515.173618 368.950998 
L 521.45517 367.608358 
L 527.736722 366.244832 
L 534.018273 364.869445 
L 540.299825 363.490593 
L 546.581377 362.115801 
L 552.862929 360.751973 
L 559.144481 359.405439 
L 565.426032 358.0818 
L 571.707584 356.786166 
L 577.989136 355.523068 
L 584.270688 354.296598 
L 590.552239 353.110382 
L 596.833791 351.967699 
L 603.115343 350.871426 
L 609.396895 349.824214 
L 615.678447 348.828463 
L 621.959998 347.886368 
L 628.24155 347.00005 
L 634.523102 346.17156 
L 640.804654 345.402994 
L 647.086205 344.696401 
L 653.367757 344.054314 
L 659.649309 343.479551 
L 665.930861 342.975525 
L 672.212413 342.547427 
L 678.493964 342.20024 
L 684.775516 341.956525 
" clip-path="url(#pa4acad1db2)" style="fill: none; stroke: #f0f921; stroke-width: 2; stroke-linecap: square"/>
   </g>
   <g id="line2d_16">
    <path d="M 50.338786 515.34 
L 56.620338 514.374095 
L 62.90189 511.534955 
L 69.183442 506.884764 
L 75.464993 500.542463 
L 81.746545 492.668223 
L 88.028097 483.45868 
L 94.309649 473.142211 
L 100.591201 461.974399 
L 106.872752 450.233183 
L 113.154304 438.212929 
L 119.435856 426.215641 
L 125.717408 414.53891 
L 131.998959 403.459448 
L 138.280511 393.214073 
L 144.562063 383.981761 
L 150.843615 375.872209 
L 157.125167 368.924157 
L 163.406718 363.114622 
L 169.68827 358.371768 
L 175.969822 354.583272 
L 182.251374 351.598269 
L 188.532926 349.238633 
L 194.814477 347.332672 
L 201.096029 345.750508 
L 207.377581 344.412693 
L 213.659133 343.277152 
L 219.940684 342.322953 
L 226.222236 341.539551 
L 232.503788 340.920554 
L 238.78534 340.461189 
L 245.066892 340.156767 
L 251.348443 340.002324 
L 257.629995 339.992513 
L 263.911547 340.121644 
L 270.193099 340.383763 
L 276.47465 340.77268 
L 282.756202 341.281992 
L 289.037754 341.905024 
L 295.319306 342.634798 
L 301.600858 343.463875 
L 307.882409 344.384421 
L 314.163961 345.387909 
L 320.445513 346.465259 
L 326.727065 347.606707 
L 333.008616 348.801862 
L 339.290168 350.039711 
L 345.57172 351.308725 
L 351.853272 352.596957 
L 358.134824 353.892263 
L 364.416375 355.18229 
L 370.697927 356.454865 
L 376.979479 357.698045 
L 383.261031 358.900387 
L 389.542582 360.051038 
L 395.824134 361.139975 
L 402.105686 362.158115 
L 408.387238 363.097437 
L 414.66879 363.951051 
L 420.950341 364.713372 
L 427.231893 365.379655 
L 433.513445 365.947047 
L 439.794997 366.413352 
L 446.076549 366.777807 
L 452.3581 367.040674 
L 458.639652 367.203256 
L 464.921204 367.267759 
L 471.202756 367.237374 
L 477.484307 367.115678 
L 483.765859 366.907296 
L 490.047411 366.617131 
L 496.328963 366.250534 
L 502.610515 365.813208 
L 508.892066 365.311091 
L 515.173618 364.750226 
L 521.45517 364.136795 
L 527.736722 363.476922 
L 534.018273 362.776705 
L 540.299825 362.042145 
L 546.581377 361.278995 
L 552.862929 360.493034 
L 559.144481 359.68961 
L 565.426032 358.873952 
L 571.707584 358.051004 
L 577.989136 357.225493 
L 584.270688 356.401858 
L 590.552239 355.584299 
L 596.833791 354.776772 
L 603.115343 353.982999 
L 609.396895 353.206471 
L 615.678447 352.450507 
L 621.959998 351.718229 
L 628.24155 351.012655 
L 634.523102 350.336683 
L 640.804654 349.693185 
L 647.086205 349.084881 
L 653.367757 348.514801 
L 659.649309 347.986077 
L 665.930861 347.502143 
L 672.212413 347.067517 
L 678.493964 346.686648 
L 684.775516 346.375318 
" clip-path="url(#pa4acad1db2)" style="fill: none; stroke: #fca636; stroke-width: 2; stroke-linecap: square"/>
   </g>
   <g id="line2d_17">
    <path d="M 50.338786 515.34 
L 56.620338 514.373914 
L 62.90189 511.532172 
L 69.183442 506.871598 
L 75.464993 500.504636 
L 81.746545 492.586602 
L 88.028097 483.313486 
L 94.309649 472.918896 
L 100.591201 461.669847 
L 106.872752 449.86082 
L 113.154304 437.805553 
L 119.435856 425.825158 
L 125.717408 414.23279 
L 131.998959 403.31445 
L 138.280511 393.308243 
L 144.562063 384.386311 
L 150.843615 376.644684 
L 157.125167 370.103993 
L 163.406718 364.721247 
L 169.68827 360.405255 
L 175.969822 357.027437 
L 182.251374 354.426672 
L 188.532926 352.422208 
L 194.814477 350.845474 
L 201.096029 349.570802 
L 207.377581 348.520823 
L 213.659133 347.652777 
L 219.940684 346.943025 
L 226.222236 346.377138 
L 232.503788 345.94438 
L 238.78534 345.635537 
L 245.066892 345.441721 
L 251.348443 345.354177 
L 257.629995 345.364286 
L 263.911547 345.463679 
L 270.193099 345.644387 
L 276.47465 345.898908 
L 282.756202 346.220263 
L 289.037754 346.602015 
L 295.319306 347.038229 
L 301.600858 347.52339 
L 307.882409 348.052454 
L 314.163961 348.62046 
L 320.445513 349.222902 
L 326.727065 349.855273 
L 333.008616 350.513165 
L 339.290168 351.192174 
L 345.57172 351.887862 
L 351.853272 352.595712 
L 358.134824 353.311159 
L 364.416375 354.029504 
L 370.697927 354.745994 
L 376.979479 355.45582 
L 383.261031 356.154131 
L 389.542582 356.83611 
L 395.824134 357.497011 
L 402.105686 358.132198 
L 408.387238 358.737233 
L 414.66879 359.307753 
L 420.950341 359.839988 
L 427.231893 360.33013 
L 433.513445 360.775051 
L 439.794997 361.171793 
L 446.076549 361.518084 
L 452.3581 361.81194 
L 458.639652 362.051963 
L 464.921204 362.237079 
L 471.202756 362.366886 
L 477.484307 362.441334 
L 483.765859 362.460956 
L 490.047411 362.426605 
L 496.328963 362.339597 
L 502.610515 362.201604 
L 508.892066 362.014647 
L 515.173618 361.781045 
L 521.45517 361.503403 
L 527.736722 361.18452 
L 534.018273 360.827399 
L 540.299825 360.435192 
L 546.581377 360.01112 
L 552.862929 359.558602 
L 559.144481 359.080974 
L 565.426032 358.581626 
L 571.707584 358.063997 
L 577.989136 357.531444 
L 584.270688 356.987305 
L 590.552239 356.434837 
L 596.833791 355.877261 
L 603.115343 355.317739 
L 609.396895 354.759222 
L 615.678447 354.204678 
L 621.959998 353.657074 
L 628.24155 353.119208 
L 634.523102 352.593851 
L 640.804654 352.08375 
L 647.086205 351.591661 
L 653.367757 351.120385 
L 659.649309 350.672941 
L 665.930861 350.252394 
L 672.212413 349.862671 
L 678.493964 349.507611 
L 684.775516 349.198753 
" clip-path="url(#pa4acad1db2)" style="fill: none; stroke: #e16462; stroke-width: 2; stroke-linecap: square"/>
   </g>
   <g id="line2d_18">
    <path d="M 50.338786 515.34 
L 56.620338 514.373881 
L 62.90189 511.531648 
L 69.183442 506.869078 
L 75.464993 500.497218 
L 81.746545 492.570123 
L 88.028097 483.283175 
L 94.309649 472.870513 
L 100.591201 461.60114 
L 106.872752 449.773055 
L 113.154304 437.704802 
L 119.435856 425.723033 
L 125.717408 414.146369 
L 131.998959 403.265291 
L 138.280511 393.320589 
L 144.562063 384.484794 
L 150.843615 376.851963 
L 157.125167 370.438739 
L 163.406718 365.196744 
L 169.68827 361.028747 
L 175.969822 357.800408 
L 182.251374 355.346323 
L 188.532926 353.483828 
L 194.814477 352.044487 
L 201.096029 350.903331 
L 207.377581 349.983085 
L 213.659133 349.240163 
L 219.940684 348.649403 
L 226.222236 348.19444 
L 232.503788 347.862456 
L 238.78534 347.642155 
L 245.066892 347.52271 
L 251.348443 347.493629 
L 257.629995 347.544801 
L 263.911547 347.666629 
L 270.193099 347.850188 
L 276.47465 348.087279 
L 282.756202 348.370491 
L 289.037754 348.69321 
L 295.319306 349.049558 
L 301.600858 349.434347 
L 307.882409 349.84305 
L 314.163961 350.27153 
L 320.445513 350.716286 
L 326.727065 351.174084 
L 333.008616 351.642009 
L 339.290168 352.117375 
L 345.57172 352.597683 
L 351.853272 353.080541 
L 358.134824 353.563677 
L 364.416375 354.04484 
L 370.697927 354.521836 
L 376.979479 354.992483 
L 383.261031 355.454582 
L 389.542582 355.906006 
L 395.824134 356.344512 
L 402.105686 356.767986 
L 408.387238 357.174295 
L 414.66879 357.561359 
L 420.950341 357.927185 
L 427.231893 358.269694 
L 433.513445 358.587189 
L 439.794997 358.877813 
L 446.076549 359.140074 
L 452.3581 359.372491 
L 458.639652 359.573851 
L 464.921204 359.742988 
L 471.202756 359.879097 
L 477.484307 359.98151 
L 483.765859 360.049904 
L 490.047411 360.083969 
L 496.328963 360.083812 
L 502.610515 360.049571 
L 508.892066 359.981956 
L 515.173618 359.881527 
L 521.45517 359.74925 
L 527.736722 359.586207 
L 534.018273 359.393696 
L 540.299825 359.173171 
L 546.581377 358.926218 
L 552.862929 358.65465 
L 559.144481 358.360165 
L 565.426032 358.044845 
L 571.707584 357.710668 
L 577.989136 357.359736 
L 584.270688 356.994254 
L 590.552239 356.616343 
L 596.833791 356.228299 
L 603.115343 355.832263 
L 609.396895 355.430483 
L 615.678447 355.025341 
L 621.959998 354.618907 
L 628.24155 354.213612 
L 634.523102 353.81159 
L 640.804654 353.415207 
L 647.086205 353.026764 
L 653.367757 352.648643 
L 659.649309 352.283314 
L 665.930861 351.933695 
L 672.212413 351.60273 
L 678.493964 351.293741 
L 684.775516 351.015465 
" clip-path="url(#pa4acad1db2)" style="fill: none; stroke: #b12a90; stroke-width: 2; stroke-linecap: square"/>
   </g>
   <g id="line2d_19">
    <path d="M 50.338786 515.34 
L 56.620338 514.373869 
L 62.90189 511.531465 
L 69.183442 506.868189 
L 75.464993 500.494588 
L 81.746545 492.564239 
L 88.028097 483.27226 
L 94.309649 472.852916 
L 100.591201 461.575864 
L 106.872752 449.740341 
L 113.154304 437.666668 
L 119.435856 425.683644 
L 125.717408 414.112123 
L 131.998959 403.244561 
L 138.280511 393.32315 
L 144.562063 384.520956 
L 150.843615 376.931659 
L 157.125167 370.570657 
L 163.406718 365.387656 
L 169.68827 361.283108 
L 175.969822 358.120339 
L 182.251374 355.732113 
L 188.532926 353.934883 
L 194.814477 352.560193 
L 201.096029 351.483319 
L 207.377581 350.626966 
L 213.659133 349.947121 
L 219.940684 349.417857 
L 226.222236 349.021835 
L 232.503788 348.745165 
L 238.78534 348.575464 
L 245.066892 348.50086 
L 251.348443 348.509921 
L 257.629995 348.591688 
L 263.911547 348.735852 
L 270.193099 348.932901 
L 276.47465 349.174184 
L 282.756202 349.451962 
L 289.037754 349.759417 
L 295.319306 350.090592 
L 301.600858 350.440294 
L 307.882409 350.804141 
L 314.163961 351.178235 
L 320.445513 351.559394 
L 326.727065 351.944808 
L 333.008616 352.332083 
L 339.290168 352.719146 
L 345.57172 353.104197 
L 351.853272 353.485633 
L 358.134824 353.862045 
L 364.416375 354.232122 
L 370.697927 354.594676 
L 376.979479 354.948586 
L 383.261031 355.292775 
L 389.542582 355.626249 
L 395.824134 355.947941 
L 402.105686 356.256906 
L 408.387238 356.552174 
L 414.66879 356.832802 
L 420.950341 357.097883 
L 427.231893 357.346412 
L 433.513445 357.577621 
L 439.794997 357.790588 
L 446.076549 357.984521 
L 452.3581 358.15865 
L 458.639652 358.312272 
L 464.921204 358.444739 
L 471.202756 358.555526 
L 477.484307 358.644006 
L 483.765859 358.710089 
L 490.047411 358.753251 
L 496.328963 358.773444 
L 502.610515 358.770448 
L 508.892066 358.74452 
L 515.173618 358.695729 
L 521.45517 358.62441 
L 527.736722 358.530972 
L 534.018273 358.415958 
L 540.299825 358.280029 
L 546.581377 358.123939 
L 552.862929 357.948626 
L 559.144481 357.754909 
L 565.426032 357.544047 
L 571.707584 357.317116 
L 577.989136 357.075369 
L 584.270688 356.820158 
L 590.552239 356.552856 
L 596.833791 356.274847 
L 603.115343 355.987661 
L 609.396895 355.692852 
L 615.678447 355.392002 
L 621.959998 355.08673 
L 628.24155 354.778741 
L 634.523102 354.469603 
L 640.804654 354.161372 
L 647.086205 353.855615 
L 653.367757 353.554316 
L 659.649309 353.259455 
L 665.930861 352.973355 
L 672.212413 352.698473 
L 678.493964 352.43748 
L 684.775516 352.19715 
" clip-path="url(#pa4acad1db2)" style="fill: none; stroke: #6a00a8; stroke-width: 2; stroke-linecap: square"/>
   </g>
   <g id="patch_3">
    <path d="M 50.338786 525.04 
L 50.338786 311.64 
" style="fill: none; stroke: #ffffff; stroke-width: 0.8; stroke-linejoin: miter; stroke-linecap: square"/>
   </g>
   <g id="patch_4">
    <path d="M 427.231893 525.04 
L 427.231893 311.64 
" style="fill: none; stroke: #ffffff; stroke-width: 0.8; stroke-linejoin: miter; stroke-linecap: square"/>
   </g>
   <g id="patch_5">
    <path d="M 50.338786 525.04 
L 427.231893 525.04 
" style="fill: none; stroke: #ffffff; stroke-width: 0.8; stroke-linejoin: miter; stroke-linecap: square"/>
   </g>
   <g id="patch_6">
    <path d="M 50.338786 311.64 
L 427.231893 311.64 
" style="fill: none; stroke: #ffffff; stroke-width: 0.8; stroke-linejoin: miter; stroke-linecap: square"/>
   </g>
   <g id="text_16">
    <!-- Density response -->
    <g style="fill: #ffffff" transform="translate(160.45784 305.64) scale(0.16 -0.16)">
     <defs>
      <path id="DejaVuSans-Bold-44" d="M 1791 3756 
L 1791 909 
L 2222 909 
Q 2959 909 3348 1275 
Q 3738 1641 3738 2338 
Q 3738 3031 3350 3393 
Q 2963 3756 2222 3756 
L 1791 3756 
z
M 588 4666 
L 1856 4666 
Q 2919 4666 3439 4514 
Q 3959 4363 4331 4000 
Q 4659 3684 4818 3271 
Q 4978 2859 4978 2338 
Q 4978 1809 4818 1395 
Q 4659 981 4331 666 
Q 3956 303 3431 151 
Q 2906 0 1856 0 
L 588 0 
L 588 4666 
z
" transform="scale(0.015625)"/>
      <path id="DejaVuSans-Bold-65" d="M 4031 1759 
L 4031 1441 
L 1416 1441 
Q 1456 1047 1700 850 
Q 1944 653 2381 653 
Q 2734 653 3104 758 
Q 3475 863 3866 1075 
L 3866 213 
Q 3469 63 3072 -14 
Q 2675 -91 2278 -91 
Q 1328 -91 801 392 
Q 275 875 275 1747 
Q 275 2603 792 3093 
Q 1309 3584 2216 3584 
Q 3041 3584 3536 3087 
Q 4031 2591 4031 1759 
z
M 2881 2131 
Q 2881 2450 2695 2645 
Q 2509 2841 2209 2841 
Q 1884 2841 1681 2658 
Q 1478 2475 1428 2131 
L 2881 2131 
z
" transform="scale(0.015625)"/>
      <path id="DejaVuSans-Bold-6e" d="M 4056 2131 
L 4056 0 
L 2931 0 
L 2931 347 
L 2931 1631 
Q 2931 2084 2911 2256 
Q 2891 2428 2841 2509 
Q 2775 2619 2662 2680 
Q 2550 2741 2406 2741 
Q 2056 2741 1856 2470 
Q 1656 2200 1656 1722 
L 1656 0 
L 538 0 
L 538 3500 
L 1656 3500 
L 1656 2988 
Q 1909 3294 2193 3439 
Q 2478 3584 2822 3584 
Q 3428 3584 3742 3212 
Q 4056 2841 4056 2131 
z
" transform="scale(0.015625)"/>
      <path id="DejaVuSans-Bold-73" d="M 3272 3391 
L 3272 2541 
Q 2913 2691 2578 2766 
Q 2244 2841 1947 2841 
Q 1628 2841 1473 2761 
Q 1319 2681 1319 2516 
Q 1319 2381 1436 2309 
Q 1553 2238 1856 2203 
L 2053 2175 
Q 2913 2066 3209 1816 
Q 3506 1566 3506 1031 
Q 3506 472 3093 190 
Q 2681 -91 1863 -91 
Q 1516 -91 1145 -36 
Q 775 19 384 128 
L 384 978 
Q 719 816 1070 734 
Q 1422 653 1784 653 
Q 2113 653 2278 743 
Q 2444 834 2444 1013 
Q 2444 1163 2330 1236 
Q 2216 1309 1875 1350 
L 1678 1375 
Q 931 1469 631 1722 
Q 331 1975 331 2491 
Q 331 3047 712 3315 
Q 1094 3584 1881 3584 
Q 2191 3584 2531 3537 
Q 2872 3491 3272 3391 
z
" transform="scale(0.015625)"/>
      <path id="DejaVuSans-Bold-69" d="M 538 3500 
L 1656 3500 
L 1656 0 
L 538 0 
L 538 3500 
z
M 538 4863 
L 1656 4863 
L 1656 3950 
L 538 3950 
L 538 4863 
z
" transform="scale(0.015625)"/>
      <path id="DejaVuSans-Bold-74" d="M 1759 4494 
L 1759 3500 
L 2913 3500 
L 2913 2700 
L 1759 2700 
L 1759 1216 
Q 1759 972 1856 886 
Q 1953 800 2241 800 
L 2816 800 
L 2816 0 
L 1856 0 
Q 1194 0 917 276 
Q 641 553 641 1216 
L 641 2700 
L 84 2700 
L 84 3500 
L 641 3500 
L 641 4494 
L 1759 4494 
z
" transform="scale(0.015625)"/>
      <path id="DejaVuSans-Bold-79" d="M 78 3500 
L 1197 3500 
L 2138 1125 
L 2938 3500 
L 4056 3500 
L 2584 -331 
Q 2363 -916 2067 -1148 
Q 1772 -1381 1288 -1381 
L 641 -1381 
L 641 -647 
L 991 -647 
Q 1275 -647 1404 -556 
Q 1534 -466 1606 -231 
L 1638 -134 
L 78 3500 
z
" transform="scale(0.015625)"/>
      <path id="DejaVuSans-Bold-20" transform="scale(0.015625)"/>
      <path id="DejaVuSans-Bold-72" d="M 3138 2547 
Q 2991 2616 2845 2648 
Q 2700 2681 2553 2681 
Q 2122 2681 1889 2404 
Q 1656 2128 1656 1613 
L 1656 0 
L 538 0 
L 538 3500 
L 1656 3500 
L 1656 2925 
Q 1872 3269 2151 3426 
Q 2431 3584 2822 3584 
Q 2878 3584 2943 3579 
Q 3009 3575 3134 3559 
L 3138 2547 
z
" transform="scale(0.015625)"/>
      <path id="DejaVuSans-Bold-70" d="M 1656 506 
L 1656 -1331 
L 538 -1331 
L 538 3500 
L 1656 3500 
L 1656 2988 
Q 1888 3294 2169 3439 
Q 2450 3584 2816 3584 
Q 3463 3584 3878 3070 
Q 4294 2556 4294 1747 
Q 4294 938 3878 423 
Q 3463 -91 2816 -91 
Q 2450 -91 2169 54 
Q 1888 200 1656 506 
z
M 2400 2772 
Q 2041 2772 1848 2508 
Q 1656 2244 1656 1747 
Q 1656 1250 1848 986 
Q 2041 722 2400 722 
Q 2759 722 2948 984 
Q 3138 1247 3138 1747 
Q 3138 2247 2948 2509 
Q 2759 2772 2400 2772 
z
" transform="scale(0.015625)"/>
      <path id="DejaVuSans-Bold-6f" d="M 2203 2784 
Q 1831 2784 1636 2517 
Q 1441 2250 1441 1747 
Q 1441 1244 1636 976 
Q 1831 709 2203 709 
Q 2569 709 2762 976 
Q 2956 1244 2956 1747 
Q 2956 2250 2762 2517 
Q 2569 2784 2203 2784 
z
M 2203 3584 
Q 3106 3584 3614 3096 
Q 4122 2609 4122 1747 
Q 4122 884 3614 396 
Q 3106 -91 2203 -91 
Q 1297 -91 786 396 
Q 275 884 275 1747 
Q 275 2609 786 3096 
Q 1297 3584 2203 3584 
z
" transform="scale(0.015625)"/>
     </defs>
     <use xlink:href="#DejaVuSans-Bold-44"/>
     <use xlink:href="#DejaVuSans-Bold-65" x="83.007812"/>
     <use xlink:href="#DejaVuSans-Bold-6e" x="150.830078"/>
     <use xlink:href="#DejaVuSans-Bold-73" x="222.021484"/>
     <use xlink:href="#DejaVuSans-Bold-69" x="281.542969"/>
     <use xlink:href="#DejaVuSans-Bold-74" x="315.820312"/>
     <use xlink:href="#DejaVuSans-Bold-79" x="363.623047"/>
     <use xlink:href="#DejaVuSans-Bold-20" x="428.808594"/>
     <use xlink:href="#DejaVuSans-Bold-72" x="463.623047"/>
     <use xlink:href="#DejaVuSans-Bold-65" x="512.939453"/>
     <use xlink:href="#DejaVuSans-Bold-73" x="580.761719"/>
     <use xlink:href="#DejaVuSans-Bold-70" x="640.283203"/>
     <use xlink:href="#DejaVuSans-Bold-6f" x="711.865234"/>
     <use xlink:href="#DejaVuSans-Bold-6e" x="780.566406"/>
     <use xlink:href="#DejaVuSans-Bold-73" x="851.757812"/>
     <use xlink:href="#DejaVuSans-Bold-65" x="911.279297"/>
    </g>
   </g>
   <g id="legend_1">
    <g id="patch_7">
     <path d="M 302.911893 518.04 
L 417.431893 518.04 
Q 420.231893 518.04 420.231893 515.24 
L 420.231893 413.210625 
Q 420.231893 410.410625 417.431893 410.410625 
L 302.911893 410.410625 
Q 300.111893 410.410625 300.111893 413.210625 
L 300.111893 515.24 
Q 300.111893 518.04 302.911893 518.04 
z
" style="opacity: 0.8; stroke: #cccccc; stroke-linejoin: miter"/>
    </g>
    <g id="line2d_20">
     <path d="M 305.711893 421.748437 
L 319.711893 421.748437 
L 333.711893 421.748437 
" style="fill: none; stroke: #f0f921; stroke-width: 2; stroke-linecap: square"/>
    </g>
    <g id="text_17">
     <!-- $\omega = 0$ -->
     <g style="fill: #ffffff" transform="translate(344.911893 426.648437) scale(0.14 -0.14)">
      <defs>
       <path id="DejaVuSans-Oblique-3c9" d="M 1369 -91 
Q 72 -91 434 1766 
Q 575 2500 1256 3500 
L 1875 3500 
Q 1231 2500 1088 1750 
Q 819 397 1519 397 
Q 2166 397 2478 2078 
L 3009 2078 
Q 2669 388 3316 397 
Q 4013 403 4275 1750 
Q 4419 2500 4169 3500 
L 4788 3500 
Q 5075 2500 4934 1766 
Q 4578 -94 3278 -91 
Q 2428 -88 2503 844 
Q 2194 -91 1369 -91 
z
" transform="scale(0.015625)"/>
       <path id="DejaVuSans-3d" d="M 678 2906 
L 4684 2906 
L 4684 2381 
L 678 2381 
L 678 2906 
z
M 678 1631 
L 4684 1631 
L 4684 1100 
L 678 1100 
L 678 1631 
z
" transform="scale(0.015625)"/>
      </defs>
      <use xlink:href="#DejaVuSans-Oblique-3c9" transform="translate(0 0.78125)"/>
      <use xlink:href="#DejaVuSans-3d" transform="translate(103.222656 0.78125)"/>
      <use xlink:href="#DejaVuSans-30" transform="translate(206.494141 0.78125)"/>
     </g>
    </g>
    <g id="line2d_21">
     <path d="M 305.711893 442.44 
L 319.711893 442.44 
L 333.711893 442.44 
" style="fill: none; stroke: #fca636; stroke-width: 2; stroke-linecap: square"/>
    </g>
    <g id="text_18">
     <!-- $\omega = 2\pi/\beta\hbar$ -->
     <g style="fill: #ffffff" transform="translate(344.911893 447.34) scale(0.14 -0.14)">
      <defs>
       <path id="DejaVuSans-Oblique-3c0" d="M 584 3500 
L 3938 3500 
L 3825 2925 
L 3384 2925 
L 2966 775 
Q 2922 550 2981 450 
Q 3038 353 3209 353 
Q 3256 353 3325 363 
Q 3397 369 3419 372 
L 3338 -44 
Q 3222 -84 3103 -103 
Q 2981 -122 2866 -122 
Q 2491 -122 2388 81 
Q 2284 288 2391 838 
L 2797 2925 
L 1506 2925 
L 938 0 
L 350 0 
L 919 2925 
L 472 2925 
L 584 3500 
z
" transform="scale(0.015625)"/>
       <path id="DejaVuSans-2f" d="M 1625 4666 
L 2156 4666 
L 531 -594 
L 0 -594 
L 1625 4666 
z
" transform="scale(0.015625)"/>
       <path id="DejaVuSans-Oblique-3b2" d="M 872 216 
L 572 -1331 
L -6 -1331 
L 928 3478 
Q 1206 4903 2538 4903 
Q 3888 4903 3659 3700 
Q 3503 2844 2894 2531 
Q 3713 2250 3553 1416 
Q 3272 -69 1759 -66 
Q 1097 -63 872 216 
z
M 1019 966 
Q 1259 422 1875 425 
Q 2775 425 2966 1406 
Q 3138 2288 1675 2219 
L 1778 2750 
Q 2909 2731 3106 3750 
Q 3241 4438 2509 4434 
Q 1691 4434 1503 3459 
L 1019 966 
z
" transform="scale(0.015625)"/>
       <path id="DejaVuSans-Oblique-127" d="M 3634 2113 
L 3225 0 
L 2650 0 
L 3056 2094 
Q 3094 2291 3094 2450 
Q 3094 2688 3006 2838 
Q 2863 3084 2475 3084 
Q 2009 3084 1681 2788 
Q 1356 2491 1256 1978 
L 872 0 
L 294 0 
L 1066 3969 
L 675 3969 
L 775 4481 
L 1166 4481 
L 1238 4863 
L 1816 4863 
L 1744 4481 
L 2844 4481 
L 2744 3969 
L 1644 3969 
L 1447 2956 
Q 1713 3272 2025 3428 
Q 2331 3584 2700 3584 
Q 3300 3584 3538 3213 
Q 3688 2975 3688 2606 
Q 3688 2381 3634 2113 
z
" transform="scale(0.015625)"/>
      </defs>
      <use xlink:href="#DejaVuSans-Oblique-3c9" transform="translate(0 0.390625)"/>
      <use xlink:href="#DejaVuSans-3d" transform="translate(103.222656 0.390625)"/>
      <use xlink:href="#DejaVuSans-32" transform="translate(206.494141 0.390625)"/>
      <use xlink:href="#DejaVuSans-Oblique-3c0" transform="translate(270.117188 0.390625)"/>
      <use xlink:href="#DejaVuSans-2f" transform="translate(330.322266 0.390625)"/>
      <use xlink:href="#DejaVuSans-Oblique-3b2" transform="translate(364.013672 0.390625)"/>
      <use xlink:href="#DejaVuSans-Oblique-127" transform="translate(427.832031 0.390625)"/>
     </g>
    </g>
    <g id="line2d_22">
     <path d="M 305.711893 463.16 
L 319.711893 463.16 
L 333.711893 463.16 
" style="fill: none; stroke: #e16462; stroke-width: 2; stroke-linecap: square"/>
    </g>
    <g id="text_19">
     <!-- $\omega = 4\pi/\beta\hbar$ -->
     <g style="fill: #ffffff" transform="translate(344.911893 468.06) scale(0.14 -0.14)">
      <use xlink:href="#DejaVuSans-Oblique-3c9" transform="translate(0 0.390625)"/>
      <use xlink:href="#DejaVuSans-3d" transform="translate(103.222656 0.390625)"/>
      <use xlink:href="#DejaVuSans-34" transform="translate(206.494141 0.390625)"/>
      <use xlink:href="#DejaVuSans-Oblique-3c0" transform="translate(270.117188 0.390625)"/>
      <use xlink:href="#DejaVuSans-2f" transform="translate(330.322266 0.390625)"/>
      <use xlink:href="#DejaVuSans-Oblique-3b2" transform="translate(364.013672 0.390625)"/>
      <use xlink:href="#DejaVuSans-Oblique-127" transform="translate(427.832031 0.390625)"/>
     </g>
    </g>
    <g id="line2d_23">
     <path d="M 305.711893 483.88 
L 319.711893 483.88 
L 333.711893 483.88 
" style="fill: none; stroke: #b12a90; stroke-width: 2; stroke-linecap: square"/>
    </g>
    <g id="text_20">
     <!-- $\omega = 6\pi/\beta\hbar$ -->
     <g style="fill: #ffffff" transform="translate(344.911893 488.78) scale(0.14 -0.14)">
      <use xlink:href="#DejaVuSans-Oblique-3c9" transform="translate(0 0.390625)"/>
      <use xlink:href="#DejaVuSans-3d" transform="translate(103.222656 0.390625)"/>
      <use xlink:href="#DejaVuSans-36" transform="translate(206.494141 0.390625)"/>
      <use xlink:href="#DejaVuSans-Oblique-3c0" transform="translate(270.117188 0.390625)"/>
      <use xlink:href="#DejaVuSans-2f" transform="translate(330.322266 0.390625)"/>
      <use xlink:href="#DejaVuSans-Oblique-3b2" transform="translate(364.013672 0.390625)"/>
      <use xlink:href="#DejaVuSans-Oblique-127" transform="translate(427.832031 0.390625)"/>
     </g>
    </g>
    <g id="line2d_24">
     <path d="M 305.711893 504.6 
L 319.711893 504.6 
L 333.711893 504.6 
" style="fill: none; stroke: #6a00a8; stroke-width: 2; stroke-linecap: square"/>
    </g>
    <g id="text_21">
     <!-- $\omega = 8\pi/\beta\hbar$ -->
     <g style="fill: #ffffff" transform="translate(344.911893 509.5) scale(0.14 -0.14)">
      <use xlink:href="#DejaVuSans-Oblique-3c9" transform="translate(0 0.390625)"/>
      <use xlink:href="#DejaVuSans-3d" transform="translate(103.222656 0.390625)"/>
      <use xlink:href="#DejaVuSans-38" transform="translate(206.494141 0.390625)"/>
      <use xlink:href="#DejaVuSans-Oblique-3c0" transform="translate(270.117188 0.390625)"/>
      <use xlink:href="#DejaVuSans-2f" transform="translate(330.322266 0.390625)"/>
      <use xlink:href="#DejaVuSans-Oblique-3b2" transform="translate(364.013672 0.390625)"/>
      <use xlink:href="#DejaVuSans-Oblique-127" transform="translate(427.832031 0.390625)"/>
     </g>
    </g>
   </g>
  </g>
  <g id="axes_2">
   <g id="patch_8">
    <path d="M 471.829393 525.04 
L 848.7225 525.04 
L 848.7225 311.64 
L 471.829393 311.64 
z
"/>
   </g>
   <g id="matplotlib.axis_3">
    <g id="xtick_8">
     <g id="line2d_25">
      <g>
       <use xlink:href="#m1e20ce1f94" x="471.829393" y="525.04" style="fill: #ffffff; stroke: #ffffff; stroke-width: 0.8"/>
      </g>
     </g>
     <g id="text_22">
      <!-- 0 -->
      <g style="fill: #ffffff" transform="translate(467.375643 542.677812) scale(0.14 -0.14)">
       <use xlink:href="#DejaVuSans-30"/>
      </g>
     </g>
    </g>
    <g id="xtick_9">
     <g id="line2d_26">
      <g>
       <use xlink:href="#m1e20ce1f94" x="534.644911" y="525.04" style="fill: #ffffff; stroke: #ffffff; stroke-width: 0.8"/>
      </g>
     </g>
     <g id="text_23">
      <!-- 1 -->
      <g style="fill: #ffffff" transform="translate(530.191161 542.677812) scale(0.14 -0.14)">
       <use xlink:href="#DejaVuSans-31"/>
      </g>
     </g>
    </g>
    <g id="xtick_10">
     <g id="line2d_27">
      <g>
       <use xlink:href="#m1e20ce1f94" x="597.460429" y="525.04" style="fill: #ffffff; stroke: #ffffff; stroke-width: 0.8"/>
      </g>
     </g>
     <g id="text_24">
      <!-- 2 -->
      <g style="fill: #ffffff" transform="translate(593.006679 542.677812) scale(0.14 -0.14)">
       <use xlink:href="#DejaVuSans-32"/>
      </g>
     </g>
    </g>
    <g id="xtick_11">
     <g id="line2d_28">
      <g>
       <use xlink:href="#m1e20ce1f94" x="660.275947" y="525.04" style="fill: #ffffff; stroke: #ffffff; stroke-width: 0.8"/>
      </g>
     </g>
     <g id="text_25">
      <!-- 3 -->
      <g style="fill: #ffffff" transform="translate(655.822197 542.677812) scale(0.14 -0.14)">
       <use xlink:href="#DejaVuSans-33"/>
      </g>
     </g>
    </g>
    <g id="xtick_12">
     <g id="line2d_29">
      <g>
       <use xlink:href="#m1e20ce1f94" x="723.091464" y="525.04" style="fill: #ffffff; stroke: #ffffff; stroke-width: 0.8"/>
      </g>
     </g>
     <g id="text_26">
      <!-- 4 -->
      <g style="fill: #ffffff" transform="translate(718.637714 542.677812) scale(0.14 -0.14)">
       <use xlink:href="#DejaVuSans-34"/>
      </g>
     </g>
    </g>
    <g id="xtick_13">
     <g id="line2d_30">
      <g>
       <use xlink:href="#m1e20ce1f94" x="785.906982" y="525.04" style="fill: #ffffff; stroke: #ffffff; stroke-width: 0.8"/>
      </g>
     </g>
     <g id="text_27">
      <!-- 5 -->
      <g style="fill: #ffffff" transform="translate(781.453232 542.677812) scale(0.14 -0.14)">
       <use xlink:href="#DejaVuSans-35"/>
      </g>
     </g>
    </g>
    <g id="xtick_14">
     <g id="line2d_31">
      <g>
       <use xlink:href="#m1e20ce1f94" x="848.7225" y="525.04" style="fill: #ffffff; stroke: #ffffff; stroke-width: 0.8"/>
      </g>
     </g>
     <g id="text_28">
      <!-- 6 -->
      <g style="fill: #ffffff" transform="translate(844.26875 542.677812) scale(0.14 -0.14)">
       <use xlink:href="#DejaVuSans-36"/>
      </g>
     </g>
    </g>
    <g id="text_29">
     <!-- Wave-vector -->
     <g style="fill: #ffffff" transform="translate(610.263447 561.746875) scale(0.16 -0.16)">
      <use xlink:href="#DejaVuSans-57"/>
      <use xlink:href="#DejaVuSans-61" x="92.501953"/>
      <use xlink:href="#DejaVuSans-76" x="153.78125"/>
      <use xlink:href="#DejaVuSans-65" x="212.960938"/>
      <use xlink:href="#DejaVuSans-2d" x="274.484375"/>
      <use xlink:href="#DejaVuSans-76" x="307.943359"/>
      <use xlink:href="#DejaVuSans-65" x="367.123047"/>
      <use xlink:href="#DejaVuSans-63" x="428.646484"/>
      <use xlink:href="#DejaVuSans-74" x="483.626953"/>
      <use xlink:href="#DejaVuSans-6f" x="522.835938"/>
      <use xlink:href="#DejaVuSans-72" x="584.017578"/>
     </g>
    </g>
   </g>
   <g id="matplotlib.axis_4">
    <g id="ytick_8">
     <g id="line2d_32">
      <g>
       <use xlink:href="#mc6b322e2db" x="471.829393" y="515.34" style="fill: #ffffff; stroke: #ffffff; stroke-width: 0.8"/>
      </g>
     </g>
     <g id="text_30">
      <!-- 0.0 -->
      <g style="fill: #ffffff" transform="translate(442.565018 520.658906) scale(0.14 -0.14)">
       <use xlink:href="#DejaVuSans-30"/>
       <use xlink:href="#DejaVuSans-2e" x="63.623047"/>
       <use xlink:href="#DejaVuSans-30" x="95.410156"/>
      </g>
     </g>
    </g>
    <g id="ytick_9">
     <g id="line2d_33">
      <g>
       <use xlink:href="#mc6b322e2db" x="471.829393" y="476.885147" style="fill: #ffffff; stroke: #ffffff; stroke-width: 0.8"/>
      </g>
     </g>
     <g id="text_31">
      <!-- 0.2 -->
      <g style="fill: #ffffff" transform="translate(442.565018 482.204053) scale(0.14 -0.14)">
       <use xlink:href="#DejaVuSans-30"/>
       <use xlink:href="#DejaVuSans-2e" x="63.623047"/>
       <use xlink:href="#DejaVuSans-32" x="95.410156"/>
      </g>
     </g>
    </g>
    <g id="ytick_10">
     <g id="line2d_34">
      <g>
       <use xlink:href="#mc6b322e2db" x="471.829393" y="438.430294" style="fill: #ffffff; stroke: #ffffff; stroke-width: 0.8"/>
      </g>
     </g>
     <g id="text_32">
      <!-- 0.4 -->
      <g style="fill: #ffffff" transform="translate(442.565018 443.7492) scale(0.14 -0.14)">
       <use xlink:href="#DejaVuSans-30"/>
       <use xlink:href="#DejaVuSans-2e" x="63.623047"/>
       <use xlink:href="#DejaVuSans-34" x="95.410156"/>
      </g>
     </g>
    </g>
    <g id="ytick_11">
     <g id="line2d_35">
      <g>
       <use xlink:href="#mc6b322e2db" x="471.829393" y="399.975441" style="fill: #ffffff; stroke: #ffffff; stroke-width: 0.8"/>
      </g>
     </g>
     <g id="text_33">
      <!-- 0.6 -->
      <g style="fill: #ffffff" transform="translate(442.565018 405.294347) scale(0.14 -0.14)">
       <use xlink:href="#DejaVuSans-30"/>
       <use xlink:href="#DejaVuSans-2e" x="63.623047"/>
       <use xlink:href="#DejaVuSans-36" x="95.410156"/>
      </g>
     </g>
    </g>
    <g id="ytick_12">
     <g id="line2d_36">
      <g>
       <use xlink:href="#mc6b322e2db" x="471.829393" y="361.520588" style="fill: #ffffff; stroke: #ffffff; stroke-width: 0.8"/>
      </g>
     </g>
     <g id="text_34">
      <!-- 0.8 -->
      <g style="fill: #ffffff" transform="translate(442.565018 366.839495) scale(0.14 -0.14)">
       <use xlink:href="#DejaVuSans-30"/>
       <use xlink:href="#DejaVuSans-2e" x="63.623047"/>
       <use xlink:href="#DejaVuSans-38" x="95.410156"/>
      </g>
     </g>
    </g>
    <g id="ytick_13">
     <g id="line2d_37">
      <g>
       <use xlink:href="#mc6b322e2db" x="471.829393" y="323.065735" style="fill: #ffffff; stroke: #ffffff; stroke-width: 0.8"/>
      </g>
     </g>
     <g id="text_35">
      <!-- 1.0 -->
      <g style="fill: #ffffff" transform="translate(442.565018 328.384642) scale(0.14 -0.14)">
       <use xlink:href="#DejaVuSans-31"/>
       <use xlink:href="#DejaVuSans-2e" x="63.623047"/>
       <use xlink:href="#DejaVuSans-30" x="95.410156"/>
      </g>
     </g>
    </g>
   </g>
   <g id="line2d_38">
    <path d="M 471.829393 515.34 
L 478.110945 514.782761 
L 484.392497 513.099574 
L 490.674049 510.255858 
L 496.9556 506.194128 
L 503.237152 500.834763 
L 509.518704 494.079503 
L 515.800256 485.817489 
L 522.081807 475.940124 
L 528.363359 464.367267 
L 534.644911 451.09178 
L 540.926463 436.240863 
L 547.208015 420.147143 
L 553.489566 403.396202 
L 559.771118 386.803325 
L 566.05267 371.280904 
L 572.334222 357.62003 
L 578.615773 346.283316 
L 584.897325 337.329582 
L 591.178877 330.537947 
L 597.460429 325.691385 
L 603.741981 322.751064 
L 610.023532 321.520377 
L 616.305084 321.34 
L 622.586636 321.519882 
L 628.868188 321.712119 
L 635.149739 321.830261 
L 641.431291 321.886655 
L 647.712843 321.911596 
L 653.994395 321.928802 
L 660.275947 321.951999 
L 666.557498 321.987121 
L 672.83905 322.035162 
L 679.120602 322.094419 
L 685.402154 322.161991 
L 691.683705 322.234706 
L 697.965257 322.309622 
L 704.246809 322.384286 
L 710.528361 322.456792 
L 716.809913 322.525775 
L 723.091464 322.590335 
L 729.373016 322.649963 
L 735.654568 322.704442 
L 741.93612 322.75378 
L 748.217672 322.798134 
L 754.499223 322.837762 
L 760.780775 322.872983 
L 767.062327 322.904142 
L 773.343879 322.931593 
L 779.62543 322.955683 
L 785.906982 322.976744 
L 792.188534 322.995088 
L 798.470086 323.011003 
L 804.751638 323.024753 
L 811.033189 323.036578 
L 817.314741 323.046697 
L 823.596293 323.055307 
L 829.877845 323.062585 
L 836.159396 323.068691 
L 842.440948 323.073769 
L 848.7225 323.077946 
L 855.004052 323.081338 
L 861.285604 323.084046 
L 865 323.085298 
" clip-path="url(#p40b19fc0ee)" style="fill: none; stroke: #f0f921; stroke-width: 2; stroke-linecap: square"/>
   </g>
   <g id="patch_9">
    <path d="M 471.829393 525.04 
L 471.829393 311.64 
" style="fill: none; stroke: #ffffff; stroke-width: 0.8; stroke-linejoin: miter; stroke-linecap: square"/>
   </g>
   <g id="patch_10">
    <path d="M 848.7225 525.04 
L 848.7225 311.64 
" style="fill: none; stroke: #ffffff; stroke-width: 0.8; stroke-linejoin: miter; stroke-linecap: square"/>
   </g>
   <g id="patch_11">
    <path d="M 471.829393 525.04 
L 848.7225 525.04 
" style="fill: none; stroke: #ffffff; stroke-width: 0.8; stroke-linejoin: miter; stroke-linecap: square"/>
   </g>
   <g id="patch_12">
    <path d="M 471.829393 311.64 
L 848.7225 311.64 
" style="fill: none; stroke: #ffffff; stroke-width: 0.8; stroke-linejoin: miter; stroke-linecap: square"/>
   </g>
   <g id="text_36">
    <!-- Static structure factor -->
    <g style="fill: #ffffff" transform="translate(559.669697 305.64) scale(0.16 -0.16)">
     <defs>
      <path id="DejaVuSans-Bold-53" d="M 3834 4519 
L 3834 3531 
Q 3450 3703 3084 3790 
Q 2719 3878 2394 3878 
Q 1963 3878 1756 3759 
Q 1550 3641 1550 3391 
Q 1550 3203 1689 3098 
Q 1828 2994 2194 2919 
L 2706 2816 
Q 3484 2659 3812 2340 
Q 4141 2022 4141 1434 
Q 4141 663 3683 286 
Q 3225 -91 2284 -91 
Q 1841 -91 1394 -6 
Q 947 78 500 244 
L 500 1259 
Q 947 1022 1364 901 
Q 1781 781 2169 781 
Q 2563 781 2772 912 
Q 2981 1044 2981 1288 
Q 2981 1506 2839 1625 
Q 2697 1744 2272 1838 
L 1806 1941 
Q 1106 2091 782 2419 
Q 459 2747 459 3303 
Q 459 4000 909 4375 
Q 1359 4750 2203 4750 
Q 2588 4750 2994 4692 
Q 3400 4634 3834 4519 
z
" transform="scale(0.015625)"/>
      <path id="DejaVuSans-Bold-61" d="M 2106 1575 
Q 1756 1575 1579 1456 
Q 1403 1338 1403 1106 
Q 1403 894 1545 773 
Q 1688 653 1941 653 
Q 2256 653 2472 879 
Q 2688 1106 2688 1447 
L 2688 1575 
L 2106 1575 
z
M 3816 1997 
L 3816 0 
L 2688 0 
L 2688 519 
Q 2463 200 2181 54 
Q 1900 -91 1497 -91 
Q 953 -91 614 226 
Q 275 544 275 1050 
Q 275 1666 698 1953 
Q 1122 2241 2028 2241 
L 2688 2241 
L 2688 2328 
Q 2688 2594 2478 2717 
Q 2269 2841 1825 2841 
Q 1466 2841 1156 2769 
Q 847 2697 581 2553 
L 581 3406 
Q 941 3494 1303 3539 
Q 1666 3584 2028 3584 
Q 2975 3584 3395 3211 
Q 3816 2838 3816 1997 
z
" transform="scale(0.015625)"/>
      <path id="DejaVuSans-Bold-63" d="M 3366 3391 
L 3366 2478 
Q 3138 2634 2908 2709 
Q 2678 2784 2431 2784 
Q 1963 2784 1702 2511 
Q 1441 2238 1441 1747 
Q 1441 1256 1702 982 
Q 1963 709 2431 709 
Q 2694 709 2930 787 
Q 3166 866 3366 1019 
L 3366 103 
Q 3103 6 2833 -42 
Q 2563 -91 2291 -91 
Q 1344 -91 809 395 
Q 275 881 275 1747 
Q 275 2613 809 3098 
Q 1344 3584 2291 3584 
Q 2566 3584 2833 3536 
Q 3100 3488 3366 3391 
z
" transform="scale(0.015625)"/>
      <path id="DejaVuSans-Bold-75" d="M 500 1363 
L 500 3500 
L 1625 3500 
L 1625 3150 
Q 1625 2866 1622 2436 
Q 1619 2006 1619 1863 
Q 1619 1441 1641 1255 
Q 1663 1069 1716 984 
Q 1784 875 1895 815 
Q 2006 756 2150 756 
Q 2500 756 2700 1025 
Q 2900 1294 2900 1772 
L 2900 3500 
L 4019 3500 
L 4019 0 
L 2900 0 
L 2900 506 
Q 2647 200 2364 54 
Q 2081 -91 1741 -91 
Q 1134 -91 817 281 
Q 500 653 500 1363 
z
" transform="scale(0.015625)"/>
      <path id="DejaVuSans-Bold-66" d="M 2841 4863 
L 2841 4128 
L 2222 4128 
Q 1984 4128 1890 4042 
Q 1797 3956 1797 3744 
L 1797 3500 
L 2753 3500 
L 2753 2700 
L 1797 2700 
L 1797 0 
L 678 0 
L 678 2700 
L 122 2700 
L 122 3500 
L 678 3500 
L 678 3744 
Q 678 4316 997 4589 
Q 1316 4863 1984 4863 
L 2841 4863 
z
" transform="scale(0.015625)"/>
     </defs>
     <use xlink:href="#DejaVuSans-Bold-53"/>
     <use xlink:href="#DejaVuSans-Bold-74" x="72.021484"/>
     <use xlink:href="#DejaVuSans-Bold-61" x="119.824219"/>
     <use xlink:href="#DejaVuSans-Bold-74" x="187.304688"/>
     <use xlink:href="#DejaVuSans-Bold-69" x="235.107422"/>
     <use xlink:href="#DejaVuSans-Bold-63" x="269.384766"/>
     <use xlink:href="#DejaVuSans-Bold-20" x="328.662109"/>
     <use xlink:href="#DejaVuSans-Bold-73" x="363.476562"/>
     <use xlink:href="#DejaVuSans-Bold-74" x="422.998047"/>
     <use xlink:href="#DejaVuSans-Bold-72" x="470.800781"/>
     <use xlink:href="#DejaVuSans-Bold-75" x="520.117188"/>
     <use xlink:href="#DejaVuSans-Bold-63" x="591.308594"/>
     <use xlink:href="#DejaVuSans-Bold-74" x="650.585938"/>
     <use xlink:href="#DejaVuSans-Bold-75" x="698.388672"/>
     <use xlink:href="#DejaVuSans-Bold-72" x="769.580078"/>
     <use xlink:href="#DejaVuSans-Bold-65" x="818.896484"/>
     <use xlink:href="#DejaVuSans-Bold-20" x="886.71875"/>
     <use xlink:href="#DejaVuSans-Bold-66" x="921.533203"/>
     <use xlink:href="#DejaVuSans-Bold-61" x="965.039062"/>
     <use xlink:href="#DejaVuSans-Bold-63" x="1032.519531"/>
     <use xlink:href="#DejaVuSans-Bold-74" x="1091.796875"/>
     <use xlink:href="#DejaVuSans-Bold-6f" x="1139.599609"/>
     <use xlink:href="#DejaVuSans-Bold-72" x="1208.300781"/>
    </g>
   </g>
  </g>
  <g id="axes_3">
   <g id="patch_13">
    <path d="M 50.338786 242.44 
L 848.7225 242.44 
L 848.7225 29.04 
L 50.338786 29.04 
z
"/>
   </g>
   <g id="PathCollection_1">
    <defs>
     <path id="mab94049823" d="M 0 6.123724 
C 1.624031 6.123724 3.181764 5.47849 4.330127 4.330127 
C 5.47849 3.181764 6.123724 1.624031 6.123724 0 
C 6.123724 -1.624031 5.47849 -3.181764 4.330127 -4.330127 
C 3.181764 -5.47849 1.624031 -6.123724 0 -6.123724 
C -1.624031 -6.123724 -3.181764 -5.47849 -4.330127 -4.330127 
C -5.47849 -3.181764 -6.123724 -1.624031 -6.123724 0 
C -6.123724 1.624031 -5.47849 3.181764 -4.330127 4.330127 
C -3.181764 5.47849 -1.624031 6.123724 0 6.123724 
z
" style="stroke: #ff0000"/>
    </defs>
    <g clip-path="url(#pa2c4669838)">
     <use xlink:href="#mab94049823" x="316.466691" y="110.372895" style="fill: #ff0000; stroke: #ff0000"/>
    </g>
   </g>
   <g id="matplotlib.axis_5">
    <g id="xtick_15">
     <g id="line2d_39">
      <g>
       <use xlink:href="#m1e20ce1f94" x="50.338786" y="242.44" style="fill: #ffffff; stroke: #ffffff; stroke-width: 0.8"/>
      </g>
     </g>
     <g id="text_37">
      <!-- 0 -->
      <g style="fill: #ffffff" transform="translate(45.885036 260.077812) scale(0.14 -0.14)">
       <use xlink:href="#DejaVuSans-30"/>
      </g>
     </g>
    </g>
    <g id="xtick_16">
     <g id="line2d_40">
      <g>
       <use xlink:href="#m1e20ce1f94" x="171.306016" y="242.44" style="fill: #ffffff; stroke: #ffffff; stroke-width: 0.8"/>
      </g>
     </g>
     <g id="text_38">
      <!-- 5 -->
      <g style="fill: #ffffff" transform="translate(166.852266 260.077812) scale(0.14 -0.14)">
       <use xlink:href="#DejaVuSans-35"/>
      </g>
     </g>
    </g>
    <g id="xtick_17">
     <g id="line2d_41">
      <g>
       <use xlink:href="#m1e20ce1f94" x="292.273245" y="242.44" style="fill: #ffffff; stroke: #ffffff; stroke-width: 0.8"/>
      </g>
     </g>
     <g id="text_39">
      <!-- 10 -->
      <g style="fill: #ffffff" transform="translate(283.365745 260.077812) scale(0.14 -0.14)">
       <use xlink:href="#DejaVuSans-31"/>
       <use xlink:href="#DejaVuSans-30" x="63.623047"/>
      </g>
     </g>
    </g>
    <g id="xtick_18">
     <g id="line2d_42">
      <g>
       <use xlink:href="#m1e20ce1f94" x="413.240474" y="242.44" style="fill: #ffffff; stroke: #ffffff; stroke-width: 0.8"/>
      </g>
     </g>
     <g id="text_40">
      <!-- 15 -->
      <g style="fill: #ffffff" transform="translate(404.332974 260.077812) scale(0.14 -0.14)">
       <use xlink:href="#DejaVuSans-31"/>
       <use xlink:href="#DejaVuSans-35" x="63.623047"/>
      </g>
     </g>
    </g>
    <g id="xtick_19">
     <g id="line2d_43">
      <g>
       <use xlink:href="#m1e20ce1f94" x="534.207704" y="242.44" style="fill: #ffffff; stroke: #ffffff; stroke-width: 0.8"/>
      </g>
     </g>
     <g id="text_41">
      <!-- 20 -->
      <g style="fill: #ffffff" transform="translate(525.300204 260.077812) scale(0.14 -0.14)">
       <use xlink:href="#DejaVuSans-32"/>
       <use xlink:href="#DejaVuSans-30" x="63.623047"/>
      </g>
     </g>
    </g>
    <g id="xtick_20">
     <g id="line2d_44">
      <g>
       <use xlink:href="#m1e20ce1f94" x="655.174933" y="242.44" style="fill: #ffffff; stroke: #ffffff; stroke-width: 0.8"/>
      </g>
     </g>
     <g id="text_42">
      <!-- 25 -->
      <g style="fill: #ffffff" transform="translate(646.267433 260.077812) scale(0.14 -0.14)">
       <use xlink:href="#DejaVuSans-32"/>
       <use xlink:href="#DejaVuSans-35" x="63.623047"/>
      </g>
     </g>
    </g>
    <g id="xtick_21">
     <g id="line2d_45">
      <g>
       <use xlink:href="#m1e20ce1f94" x="776.142162" y="242.44" style="fill: #ffffff; stroke: #ffffff; stroke-width: 0.8"/>
      </g>
     </g>
     <g id="text_43">
      <!-- 30 -->
      <g style="fill: #ffffff" transform="translate(767.234662 260.077812) scale(0.14 -0.14)">
       <use xlink:href="#DejaVuSans-33"/>
       <use xlink:href="#DejaVuSans-30" x="63.623047"/>
      </g>
     </g>
    </g>
    <g id="text_44">
     <!-- Iteration -->
     <g style="fill: #ffffff" transform="translate(415.596893 279.146875) scale(0.16 -0.16)">
      <defs>
       <path id="DejaVuSans-49" d="M 628 4666 
L 1259 4666 
L 1259 0 
L 628 0 
L 628 4666 
z
" transform="scale(0.015625)"/>
       <path id="DejaVuSans-69" d="M 603 3500 
L 1178 3500 
L 1178 0 
L 603 0 
L 603 3500 
z
M 603 4863 
L 1178 4863 
L 1178 4134 
L 603 4134 
L 603 4863 
z
" transform="scale(0.015625)"/>
       <path id="DejaVuSans-6e" d="M 3513 2113 
L 3513 0 
L 2938 0 
L 2938 2094 
Q 2938 2591 2744 2837 
Q 2550 3084 2163 3084 
Q 1697 3084 1428 2787 
Q 1159 2491 1159 1978 
L 1159 0 
L 581 0 
L 581 3500 
L 1159 3500 
L 1159 2956 
Q 1366 3272 1645 3428 
Q 1925 3584 2291 3584 
Q 2894 3584 3203 3211 
Q 3513 2838 3513 2113 
z
" transform="scale(0.015625)"/>
      </defs>
      <use xlink:href="#DejaVuSans-49"/>
      <use xlink:href="#DejaVuSans-74" x="29.492188"/>
      <use xlink:href="#DejaVuSans-65" x="68.701172"/>
      <use xlink:href="#DejaVuSans-72" x="130.224609"/>
      <use xlink:href="#DejaVuSans-61" x="171.337891"/>
      <use xlink:href="#DejaVuSans-74" x="232.617188"/>
      <use xlink:href="#DejaVuSans-69" x="271.826172"/>
      <use xlink:href="#DejaVuSans-6f" x="299.609375"/>
      <use xlink:href="#DejaVuSans-6e" x="360.791016"/>
     </g>
    </g>
   </g>
   <g id="matplotlib.axis_6">
    <g id="ytick_14">
     <g id="line2d_46">
      <g>
       <use xlink:href="#mc6b322e2db" x="50.338786" y="242.44" style="fill: #ffffff; stroke: #ffffff; stroke-width: 0.8"/>
      </g>
     </g>
     <g id="text_45">
      <!-- $\mathdefault{10^{-6}}$ -->
      <g style="fill: #ffffff" transform="translate(10.438786 247.758906) scale(0.14 -0.14)">
       <defs>
        <path id="DejaVuSans-2212" d="M 678 2272 
L 4684 2272 
L 4684 1741 
L 678 1741 
L 678 2272 
z
" transform="scale(0.015625)"/>
       </defs>
       <use xlink:href="#DejaVuSans-31" transform="translate(0 0.765625)"/>
       <use xlink:href="#DejaVuSans-30" transform="translate(63.623047 0.765625)"/>
       <use xlink:href="#DejaVuSans-2212" transform="translate(128.203125 39.046875) scale(0.7)"/>
       <use xlink:href="#DejaVuSans-36" transform="translate(186.855469 39.046875) scale(0.7)"/>
      </g>
     </g>
    </g>
    <g id="ytick_15">
     <g id="line2d_47">
      <g>
       <use xlink:href="#mc6b322e2db" x="50.338786" y="212.133495" style="fill: #ffffff; stroke: #ffffff; stroke-width: 0.8"/>
      </g>
     </g>
     <g id="text_46">
      <!-- $\mathdefault{10^{-5}}$ -->
      <g style="fill: #ffffff" transform="translate(10.438786 217.452402) scale(0.14 -0.14)">
       <use xlink:href="#DejaVuSans-31" transform="translate(0 0.684375)"/>
       <use xlink:href="#DejaVuSans-30" transform="translate(63.623047 0.684375)"/>
       <use xlink:href="#DejaVuSans-2212" transform="translate(128.203125 38.965625) scale(0.7)"/>
       <use xlink:href="#DejaVuSans-35" transform="translate(186.855469 38.965625) scale(0.7)"/>
      </g>
     </g>
    </g>
    <g id="ytick_16">
     <g id="line2d_48">
      <g>
       <use xlink:href="#mc6b322e2db" x="50.338786" y="181.826991" style="fill: #ffffff; stroke: #ffffff; stroke-width: 0.8"/>
      </g>
     </g>
     <g id="text_47">
      <!-- $\mathdefault{10^{-4}}$ -->
      <g style="fill: #ffffff" transform="translate(10.438786 187.145897) scale(0.14 -0.14)">
       <use xlink:href="#DejaVuSans-31" transform="translate(0 0.684375)"/>
       <use xlink:href="#DejaVuSans-30" transform="translate(63.623047 0.684375)"/>
       <use xlink:href="#DejaVuSans-2212" transform="translate(128.203125 38.965625) scale(0.7)"/>
       <use xlink:href="#DejaVuSans-34" transform="translate(186.855469 38.965625) scale(0.7)"/>
      </g>
     </g>
    </g>
    <g id="ytick_17">
     <g id="line2d_49">
      <g>
       <use xlink:href="#mc6b322e2db" x="50.338786" y="151.520486" style="fill: #ffffff; stroke: #ffffff; stroke-width: 0.8"/>
      </g>
     </g>
     <g id="text_48">
      <!-- $\mathdefault{10^{-3}}$ -->
      <g style="fill: #ffffff" transform="translate(10.438786 156.839392) scale(0.14 -0.14)">
       <use xlink:href="#DejaVuSans-31" transform="translate(0 0.765625)"/>
       <use xlink:href="#DejaVuSans-30" transform="translate(63.623047 0.765625)"/>
       <use xlink:href="#DejaVuSans-2212" transform="translate(128.203125 39.046875) scale(0.7)"/>
       <use xlink:href="#DejaVuSans-33" transform="translate(186.855469 39.046875) scale(0.7)"/>
      </g>
     </g>
    </g>
    <g id="ytick_18">
     <g id="line2d_50">
      <g>
       <use xlink:href="#mc6b322e2db" x="50.338786" y="121.213981" style="fill: #ffffff; stroke: #ffffff; stroke-width: 0.8"/>
      </g>
     </g>
     <g id="text_49">
      <!-- $\mathdefault{10^{-2}}$ -->
      <g style="fill: #ffffff" transform="translate(10.438786 126.532888) scale(0.14 -0.14)">
       <use xlink:href="#DejaVuSans-31" transform="translate(0 0.765625)"/>
       <use xlink:href="#DejaVuSans-30" transform="translate(63.623047 0.765625)"/>
       <use xlink:href="#DejaVuSans-2212" transform="translate(128.203125 39.046875) scale(0.7)"/>
       <use xlink:href="#DejaVuSans-32" transform="translate(186.855469 39.046875) scale(0.7)"/>
      </g>
     </g>
    </g>
    <g id="ytick_19">
     <g id="line2d_51">
      <g>
       <use xlink:href="#mc6b322e2db" x="50.338786" y="90.907477" style="fill: #ffffff; stroke: #ffffff; stroke-width: 0.8"/>
      </g>
     </g>
     <g id="text_50">
      <!-- $\mathdefault{10^{-1}}$ -->
      <g style="fill: #ffffff" transform="translate(10.438786 96.226383) scale(0.14 -0.14)">
       <use xlink:href="#DejaVuSans-31" transform="translate(0 0.684375)"/>
       <use xlink:href="#DejaVuSans-30" transform="translate(63.623047 0.684375)"/>
       <use xlink:href="#DejaVuSans-2212" transform="translate(128.203125 38.965625) scale(0.7)"/>
       <use xlink:href="#DejaVuSans-31" transform="translate(186.855469 38.965625) scale(0.7)"/>
      </g>
     </g>
    </g>
    <g id="ytick_20">
     <g id="line2d_52">
      <g>
       <use xlink:href="#mc6b322e2db" x="50.338786" y="60.600972" style="fill: #ffffff; stroke: #ffffff; stroke-width: 0.8"/>
      </g>
     </g>
     <g id="text_51">
      <!-- $\mathdefault{10^{0}}$ -->
      <g style="fill: #ffffff" transform="translate(18.698786 65.919878) scale(0.14 -0.14)">
       <use xlink:href="#DejaVuSans-31" transform="translate(0 0.765625)"/>
       <use xlink:href="#DejaVuSans-30" transform="translate(63.623047 0.765625)"/>
       <use xlink:href="#DejaVuSans-30" transform="translate(128.203125 39.046875) scale(0.7)"/>
      </g>
     </g>
    </g>
    <g id="ytick_21">
     <g id="line2d_53">
      <g>
       <use xlink:href="#mc6b322e2db" x="50.338786" y="30.294468" style="fill: #ffffff; stroke: #ffffff; stroke-width: 0.8"/>
      </g>
     </g>
     <g id="text_52">
      <!-- $\mathdefault{10^{1}}$ -->
      <g style="fill: #ffffff" transform="translate(18.698786 35.613374) scale(0.14 -0.14)">
       <use xlink:href="#DejaVuSans-31" transform="translate(0 0.684375)"/>
       <use xlink:href="#DejaVuSans-30" transform="translate(63.623047 0.684375)"/>
       <use xlink:href="#DejaVuSans-31" transform="translate(128.203125 38.965625) scale(0.7)"/>
      </g>
     </g>
    </g>
    <g id="ytick_22">
     <g id="line2d_54">
      <defs>
       <path id="m8a5bb1dbb1" d="M 0 0 
L -2 0 
" style="stroke: #ffffff; stroke-width: 0.6"/>
      </defs>
      <g>
       <use xlink:href="#m8a5bb1dbb1" x="50.338786" y="233.316833" style="fill: #ffffff; stroke: #ffffff; stroke-width: 0.6"/>
      </g>
     </g>
    </g>
    <g id="ytick_23">
     <g id="line2d_55">
      <g>
       <use xlink:href="#m8a5bb1dbb1" x="50.338786" y="227.980122" style="fill: #ffffff; stroke: #ffffff; stroke-width: 0.6"/>
      </g>
     </g>
    </g>
    <g id="ytick_24">
     <g id="line2d_56">
      <g>
       <use xlink:href="#m8a5bb1dbb1" x="50.338786" y="224.193666" style="fill: #ffffff; stroke: #ffffff; stroke-width: 0.6"/>
      </g>
     </g>
    </g>
    <g id="ytick_25">
     <g id="line2d_57">
      <g>
       <use xlink:href="#m8a5bb1dbb1" x="50.338786" y="221.256662" style="fill: #ffffff; stroke: #ffffff; stroke-width: 0.6"/>
      </g>
     </g>
    </g>
    <g id="ytick_26">
     <g id="line2d_58">
      <g>
       <use xlink:href="#m8a5bb1dbb1" x="50.338786" y="218.856956" style="fill: #ffffff; stroke: #ffffff; stroke-width: 0.6"/>
      </g>
     </g>
    </g>
    <g id="ytick_27">
     <g id="line2d_59">
      <g>
       <use xlink:href="#m8a5bb1dbb1" x="50.338786" y="216.828032" style="fill: #ffffff; stroke: #ffffff; stroke-width: 0.6"/>
      </g>
     </g>
    </g>
    <g id="ytick_28">
     <g id="line2d_60">
      <g>
       <use xlink:href="#m8a5bb1dbb1" x="50.338786" y="215.070499" style="fill: #ffffff; stroke: #ffffff; stroke-width: 0.6"/>
      </g>
     </g>
    </g>
    <g id="ytick_29">
     <g id="line2d_61">
      <g>
       <use xlink:href="#m8a5bb1dbb1" x="50.338786" y="213.520245" style="fill: #ffffff; stroke: #ffffff; stroke-width: 0.6"/>
      </g>
     </g>
    </g>
    <g id="ytick_30">
     <g id="line2d_62">
      <g>
       <use xlink:href="#m8a5bb1dbb1" x="50.338786" y="203.010328" style="fill: #ffffff; stroke: #ffffff; stroke-width: 0.6"/>
      </g>
     </g>
    </g>
    <g id="ytick_31">
     <g id="line2d_63">
      <g>
       <use xlink:href="#m8a5bb1dbb1" x="50.338786" y="197.673618" style="fill: #ffffff; stroke: #ffffff; stroke-width: 0.6"/>
      </g>
     </g>
    </g>
    <g id="ytick_32">
     <g id="line2d_64">
      <g>
       <use xlink:href="#m8a5bb1dbb1" x="50.338786" y="193.887161" style="fill: #ffffff; stroke: #ffffff; stroke-width: 0.6"/>
      </g>
     </g>
    </g>
    <g id="ytick_33">
     <g id="line2d_65">
      <g>
       <use xlink:href="#m8a5bb1dbb1" x="50.338786" y="190.950158" style="fill: #ffffff; stroke: #ffffff; stroke-width: 0.6"/>
      </g>
     </g>
    </g>
    <g id="ytick_34">
     <g id="line2d_66">
      <g>
       <use xlink:href="#m8a5bb1dbb1" x="50.338786" y="188.550451" style="fill: #ffffff; stroke: #ffffff; stroke-width: 0.6"/>
      </g>
     </g>
    </g>
    <g id="ytick_35">
     <g id="line2d_67">
      <g>
       <use xlink:href="#m8a5bb1dbb1" x="50.338786" y="186.521528" style="fill: #ffffff; stroke: #ffffff; stroke-width: 0.6"/>
      </g>
     </g>
    </g>
    <g id="ytick_36">
     <g id="line2d_68">
      <g>
       <use xlink:href="#m8a5bb1dbb1" x="50.338786" y="184.763995" style="fill: #ffffff; stroke: #ffffff; stroke-width: 0.6"/>
      </g>
     </g>
    </g>
    <g id="ytick_37">
     <g id="line2d_69">
      <g>
       <use xlink:href="#m8a5bb1dbb1" x="50.338786" y="183.21374" style="fill: #ffffff; stroke: #ffffff; stroke-width: 0.6"/>
      </g>
     </g>
    </g>
    <g id="ytick_38">
     <g id="line2d_70">
      <g>
       <use xlink:href="#m8a5bb1dbb1" x="50.338786" y="172.703824" style="fill: #ffffff; stroke: #ffffff; stroke-width: 0.6"/>
      </g>
     </g>
    </g>
    <g id="ytick_39">
     <g id="line2d_71">
      <g>
       <use xlink:href="#m8a5bb1dbb1" x="50.338786" y="167.367113" style="fill: #ffffff; stroke: #ffffff; stroke-width: 0.6"/>
      </g>
     </g>
    </g>
    <g id="ytick_40">
     <g id="line2d_72">
      <g>
       <use xlink:href="#m8a5bb1dbb1" x="50.338786" y="163.580657" style="fill: #ffffff; stroke: #ffffff; stroke-width: 0.6"/>
      </g>
     </g>
    </g>
    <g id="ytick_41">
     <g id="line2d_73">
      <g>
       <use xlink:href="#m8a5bb1dbb1" x="50.338786" y="160.643653" style="fill: #ffffff; stroke: #ffffff; stroke-width: 0.6"/>
      </g>
     </g>
    </g>
    <g id="ytick_42">
     <g id="line2d_74">
      <g>
       <use xlink:href="#m8a5bb1dbb1" x="50.338786" y="158.243946" style="fill: #ffffff; stroke: #ffffff; stroke-width: 0.6"/>
      </g>
     </g>
    </g>
    <g id="ytick_43">
     <g id="line2d_75">
      <g>
       <use xlink:href="#m8a5bb1dbb1" x="50.338786" y="156.215023" style="fill: #ffffff; stroke: #ffffff; stroke-width: 0.6"/>
      </g>
     </g>
    </g>
    <g id="ytick_44">
     <g id="line2d_76">
      <g>
       <use xlink:href="#m8a5bb1dbb1" x="50.338786" y="154.45749" style="fill: #ffffff; stroke: #ffffff; stroke-width: 0.6"/>
      </g>
     </g>
    </g>
    <g id="ytick_45">
     <g id="line2d_77">
      <g>
       <use xlink:href="#m8a5bb1dbb1" x="50.338786" y="152.907236" style="fill: #ffffff; stroke: #ffffff; stroke-width: 0.6"/>
      </g>
     </g>
    </g>
    <g id="ytick_46">
     <g id="line2d_78">
      <g>
       <use xlink:href="#m8a5bb1dbb1" x="50.338786" y="142.397319" style="fill: #ffffff; stroke: #ffffff; stroke-width: 0.6"/>
      </g>
     </g>
    </g>
    <g id="ytick_47">
     <g id="line2d_79">
      <g>
       <use xlink:href="#m8a5bb1dbb1" x="50.338786" y="137.060609" style="fill: #ffffff; stroke: #ffffff; stroke-width: 0.6"/>
      </g>
     </g>
    </g>
    <g id="ytick_48">
     <g id="line2d_80">
      <g>
       <use xlink:href="#m8a5bb1dbb1" x="50.338786" y="133.274152" style="fill: #ffffff; stroke: #ffffff; stroke-width: 0.6"/>
      </g>
     </g>
    </g>
    <g id="ytick_49">
     <g id="line2d_81">
      <g>
       <use xlink:href="#m8a5bb1dbb1" x="50.338786" y="130.337148" style="fill: #ffffff; stroke: #ffffff; stroke-width: 0.6"/>
      </g>
     </g>
    </g>
    <g id="ytick_50">
     <g id="line2d_82">
      <g>
       <use xlink:href="#m8a5bb1dbb1" x="50.338786" y="127.937442" style="fill: #ffffff; stroke: #ffffff; stroke-width: 0.6"/>
      </g>
     </g>
    </g>
    <g id="ytick_51">
     <g id="line2d_83">
      <g>
       <use xlink:href="#m8a5bb1dbb1" x="50.338786" y="125.908518" style="fill: #ffffff; stroke: #ffffff; stroke-width: 0.6"/>
      </g>
     </g>
    </g>
    <g id="ytick_52">
     <g id="line2d_84">
      <g>
       <use xlink:href="#m8a5bb1dbb1" x="50.338786" y="124.150985" style="fill: #ffffff; stroke: #ffffff; stroke-width: 0.6"/>
      </g>
     </g>
    </g>
    <g id="ytick_53">
     <g id="line2d_85">
      <g>
       <use xlink:href="#m8a5bb1dbb1" x="50.338786" y="122.600731" style="fill: #ffffff; stroke: #ffffff; stroke-width: 0.6"/>
      </g>
     </g>
    </g>
    <g id="ytick_54">
     <g id="line2d_86">
      <g>
       <use xlink:href="#m8a5bb1dbb1" x="50.338786" y="112.090815" style="fill: #ffffff; stroke: #ffffff; stroke-width: 0.6"/>
      </g>
     </g>
    </g>
    <g id="ytick_55">
     <g id="line2d_87">
      <g>
       <use xlink:href="#m8a5bb1dbb1" x="50.338786" y="106.754104" style="fill: #ffffff; stroke: #ffffff; stroke-width: 0.6"/>
      </g>
     </g>
    </g>
    <g id="ytick_56">
     <g id="line2d_88">
      <g>
       <use xlink:href="#m8a5bb1dbb1" x="50.338786" y="102.967648" style="fill: #ffffff; stroke: #ffffff; stroke-width: 0.6"/>
      </g>
     </g>
    </g>
    <g id="ytick_57">
     <g id="line2d_89">
      <g>
       <use xlink:href="#m8a5bb1dbb1" x="50.338786" y="100.030644" style="fill: #ffffff; stroke: #ffffff; stroke-width: 0.6"/>
      </g>
     </g>
    </g>
    <g id="ytick_58">
     <g id="line2d_90">
      <g>
       <use xlink:href="#m8a5bb1dbb1" x="50.338786" y="97.630937" style="fill: #ffffff; stroke: #ffffff; stroke-width: 0.6"/>
      </g>
     </g>
    </g>
    <g id="ytick_59">
     <g id="line2d_91">
      <g>
       <use xlink:href="#m8a5bb1dbb1" x="50.338786" y="95.602014" style="fill: #ffffff; stroke: #ffffff; stroke-width: 0.6"/>
      </g>
     </g>
    </g>
    <g id="ytick_60">
     <g id="line2d_92">
      <g>
       <use xlink:href="#m8a5bb1dbb1" x="50.338786" y="93.844481" style="fill: #ffffff; stroke: #ffffff; stroke-width: 0.6"/>
      </g>
     </g>
    </g>
    <g id="ytick_61">
     <g id="line2d_93">
      <g>
       <use xlink:href="#m8a5bb1dbb1" x="50.338786" y="92.294226" style="fill: #ffffff; stroke: #ffffff; stroke-width: 0.6"/>
      </g>
     </g>
    </g>
    <g id="ytick_62">
     <g id="line2d_94">
      <g>
       <use xlink:href="#m8a5bb1dbb1" x="50.338786" y="81.78431" style="fill: #ffffff; stroke: #ffffff; stroke-width: 0.6"/>
      </g>
     </g>
    </g>
    <g id="ytick_63">
     <g id="line2d_95">
      <g>
       <use xlink:href="#m8a5bb1dbb1" x="50.338786" y="76.447599" style="fill: #ffffff; stroke: #ffffff; stroke-width: 0.6"/>
      </g>
     </g>
    </g>
    <g id="ytick_64">
     <g id="line2d_96">
      <g>
       <use xlink:href="#m8a5bb1dbb1" x="50.338786" y="72.661143" style="fill: #ffffff; stroke: #ffffff; stroke-width: 0.6"/>
      </g>
     </g>
    </g>
    <g id="ytick_65">
     <g id="line2d_97">
      <g>
       <use xlink:href="#m8a5bb1dbb1" x="50.338786" y="69.724139" style="fill: #ffffff; stroke: #ffffff; stroke-width: 0.6"/>
      </g>
     </g>
    </g>
    <g id="ytick_66">
     <g id="line2d_98">
      <g>
       <use xlink:href="#m8a5bb1dbb1" x="50.338786" y="67.324432" style="fill: #ffffff; stroke: #ffffff; stroke-width: 0.6"/>
      </g>
     </g>
    </g>
    <g id="ytick_67">
     <g id="line2d_99">
      <g>
       <use xlink:href="#m8a5bb1dbb1" x="50.338786" y="65.295509" style="fill: #ffffff; stroke: #ffffff; stroke-width: 0.6"/>
      </g>
     </g>
    </g>
    <g id="ytick_68">
     <g id="line2d_100">
      <g>
       <use xlink:href="#m8a5bb1dbb1" x="50.338786" y="63.537976" style="fill: #ffffff; stroke: #ffffff; stroke-width: 0.6"/>
      </g>
     </g>
    </g>
    <g id="ytick_69">
     <g id="line2d_101">
      <g>
       <use xlink:href="#m8a5bb1dbb1" x="50.338786" y="61.987722" style="fill: #ffffff; stroke: #ffffff; stroke-width: 0.6"/>
      </g>
     </g>
    </g>
    <g id="ytick_70">
     <g id="line2d_102">
      <g>
       <use xlink:href="#m8a5bb1dbb1" x="50.338786" y="51.477805" style="fill: #ffffff; stroke: #ffffff; stroke-width: 0.6"/>
      </g>
     </g>
    </g>
    <g id="ytick_71">
     <g id="line2d_103">
      <g>
       <use xlink:href="#m8a5bb1dbb1" x="50.338786" y="46.141095" style="fill: #ffffff; stroke: #ffffff; stroke-width: 0.6"/>
      </g>
     </g>
    </g>
    <g id="ytick_72">
     <g id="line2d_104">
      <g>
       <use xlink:href="#m8a5bb1dbb1" x="50.338786" y="42.354638" style="fill: #ffffff; stroke: #ffffff; stroke-width: 0.6"/>
      </g>
     </g>
    </g>
    <g id="ytick_73">
     <g id="line2d_105">
      <g>
       <use xlink:href="#m8a5bb1dbb1" x="50.338786" y="39.417635" style="fill: #ffffff; stroke: #ffffff; stroke-width: 0.6"/>
      </g>
     </g>
    </g>
    <g id="ytick_74">
     <g id="line2d_106">
      <g>
       <use xlink:href="#m8a5bb1dbb1" x="50.338786" y="37.017928" style="fill: #ffffff; stroke: #ffffff; stroke-width: 0.6"/>
      </g>
     </g>
    </g>
    <g id="ytick_75">
     <g id="line2d_107">
      <g>
       <use xlink:href="#m8a5bb1dbb1" x="50.338786" y="34.989005" style="fill: #ffffff; stroke: #ffffff; stroke-width: 0.6"/>
      </g>
     </g>
    </g>
    <g id="ytick_76">
     <g id="line2d_108">
      <g>
       <use xlink:href="#m8a5bb1dbb1" x="50.338786" y="33.231471" style="fill: #ffffff; stroke: #ffffff; stroke-width: 0.6"/>
      </g>
     </g>
    </g>
    <g id="ytick_77">
     <g id="line2d_109">
      <g>
       <use xlink:href="#m8a5bb1dbb1" x="50.338786" y="31.681217" style="fill: #ffffff; stroke: #ffffff; stroke-width: 0.6"/>
      </g>
     </g>
    </g>
   </g>
   <g id="line2d_110">
    <path d="M 50.338786 32.509089 
L 74.532232 46.136681 
L 98.725678 53.30723 
L 122.919124 61.39874 
L 147.11257 69.503622 
L 171.306016 76.494453 
L 195.499462 82.719093 
L 219.692907 88.56128 
L 243.886353 94.161696 
L 268.079799 99.627517 
L 292.273245 105.022136 
L 316.466691 110.372895 
" clip-path="url(#pa2c4669838)" style="fill: none; stroke: #f0f921; stroke-width: 2; stroke-linecap: square"/>
   </g>
   <g id="line2d_111">
    <path d="M 50.338786 212.133495 
L 848.7225 212.133495 
" clip-path="url(#pa2c4669838)" style="fill: none; stroke-dasharray: 5.55,2.4; stroke-dashoffset: 0; stroke: #ffffff; stroke-width: 1.5"/>
   </g>
   <g id="patch_14">
    <path d="M 50.338786 242.44 
L 50.338786 29.04 
" style="fill: none; stroke: #ffffff; stroke-width: 0.8; stroke-linejoin: miter; stroke-linecap: square"/>
   </g>
   <g id="patch_15">
    <path d="M 848.7225 242.44 
L 848.7225 29.04 
" style="fill: none; stroke: #ffffff; stroke-width: 0.8; stroke-linejoin: miter; stroke-linecap: square"/>
   </g>
   <g id="patch_16">
    <path d="M 50.338786 242.44 
L 848.7225 242.44 
" style="fill: none; stroke: #ffffff; stroke-width: 0.8; stroke-linejoin: miter; stroke-linecap: square"/>
   </g>
   <g id="patch_17">
    <path d="M 50.338786 29.04 
L 848.7225 29.04 
" style="fill: none; stroke: #ffffff; stroke-width: 0.8; stroke-linejoin: miter; stroke-linecap: square"/>
   </g>
   <g id="text_53">
    <!-- Convergence -->
    <g style="fill: #ffffff" transform="translate(76.762874 206.796785) scale(0.14 -0.14)">
     <defs>
      <path id="DejaVuSans-43" d="M 4122 4306 
L 4122 3641 
Q 3803 3938 3442 4084 
Q 3081 4231 2675 4231 
Q 1875 4231 1450 3742 
Q 1025 3253 1025 2328 
Q 1025 1406 1450 917 
Q 1875 428 2675 428 
Q 3081 428 3442 575 
Q 3803 722 4122 1019 
L 4122 359 
Q 3791 134 3420 21 
Q 3050 -91 2638 -91 
Q 1578 -91 968 557 
Q 359 1206 359 2328 
Q 359 3453 968 4101 
Q 1578 4750 2638 4750 
Q 3056 4750 3426 4639 
Q 3797 4528 4122 4306 
z
" transform="scale(0.015625)"/>
      <path id="DejaVuSans-67" d="M 2906 1791 
Q 2906 2416 2648 2759 
Q 2391 3103 1925 3103 
Q 1463 3103 1205 2759 
Q 947 2416 947 1791 
Q 947 1169 1205 825 
Q 1463 481 1925 481 
Q 2391 481 2648 825 
Q 2906 1169 2906 1791 
z
M 3481 434 
Q 3481 -459 3084 -895 
Q 2688 -1331 1869 -1331 
Q 1566 -1331 1297 -1286 
Q 1028 -1241 775 -1147 
L 775 -588 
Q 1028 -725 1275 -790 
Q 1522 -856 1778 -856 
Q 2344 -856 2625 -561 
Q 2906 -266 2906 331 
L 2906 616 
Q 2728 306 2450 153 
Q 2172 0 1784 0 
Q 1141 0 747 490 
Q 353 981 353 1791 
Q 353 2603 747 3093 
Q 1141 3584 1784 3584 
Q 2172 3584 2450 3431 
Q 2728 3278 2906 2969 
L 2906 3500 
L 3481 3500 
L 3481 434 
z
" transform="scale(0.015625)"/>
     </defs>
     <use xlink:href="#DejaVuSans-43"/>
     <use xlink:href="#DejaVuSans-6f" x="69.824219"/>
     <use xlink:href="#DejaVuSans-6e" x="131.005859"/>
     <use xlink:href="#DejaVuSans-76" x="194.384766"/>
     <use xlink:href="#DejaVuSans-65" x="253.564453"/>
     <use xlink:href="#DejaVuSans-72" x="315.087891"/>
     <use xlink:href="#DejaVuSans-67" x="354.451172"/>
     <use xlink:href="#DejaVuSans-65" x="417.927734"/>
     <use xlink:href="#DejaVuSans-6e" x="479.451172"/>
     <use xlink:href="#DejaVuSans-63" x="542.830078"/>
     <use xlink:href="#DejaVuSans-65" x="597.810547"/>
    </g>
   </g>
   <g id="text_54">
    <!-- Residual error -->
    <g style="fill: #ffffff" transform="translate(385.335643 23.04) scale(0.16 -0.16)">
     <defs>
      <path id="DejaVuSans-Bold-52" d="M 2297 2597 
Q 2675 2597 2839 2737 
Q 3003 2878 3003 3200 
Q 3003 3519 2839 3656 
Q 2675 3794 2297 3794 
L 1791 3794 
L 1791 2597 
L 2297 2597 
z
M 1791 1766 
L 1791 0 
L 588 0 
L 588 4666 
L 2425 4666 
Q 3347 4666 3776 4356 
Q 4206 4047 4206 3378 
Q 4206 2916 3982 2619 
Q 3759 2322 3309 2181 
Q 3556 2125 3751 1926 
Q 3947 1728 4147 1325 
L 4800 0 
L 3519 0 
L 2950 1159 
Q 2778 1509 2601 1637 
Q 2425 1766 2131 1766 
L 1791 1766 
z
" transform="scale(0.015625)"/>
      <path id="DejaVuSans-Bold-64" d="M 2919 2988 
L 2919 4863 
L 4044 4863 
L 4044 0 
L 2919 0 
L 2919 506 
Q 2688 197 2409 53 
Q 2131 -91 1766 -91 
Q 1119 -91 703 423 
Q 288 938 288 1747 
Q 288 2556 703 3070 
Q 1119 3584 1766 3584 
Q 2128 3584 2408 3439 
Q 2688 3294 2919 2988 
z
M 2181 722 
Q 2541 722 2730 984 
Q 2919 1247 2919 1747 
Q 2919 2247 2730 2509 
Q 2541 2772 2181 2772 
Q 1825 2772 1636 2509 
Q 1447 2247 1447 1747 
Q 1447 1247 1636 984 
Q 1825 722 2181 722 
z
" transform="scale(0.015625)"/>
      <path id="DejaVuSans-Bold-6c" d="M 538 4863 
L 1656 4863 
L 1656 0 
L 538 0 
L 538 4863 
z
" transform="scale(0.015625)"/>
     </defs>
     <use xlink:href="#DejaVuSans-Bold-52"/>
     <use xlink:href="#DejaVuSans-Bold-65" x="77.001953"/>
     <use xlink:href="#DejaVuSans-Bold-73" x="144.824219"/>
     <use xlink:href="#DejaVuSans-Bold-69" x="204.345703"/>
     <use xlink:href="#DejaVuSans-Bold-64" x="238.623047"/>
     <use xlink:href="#DejaVuSans-Bold-75" x="310.205078"/>
     <use xlink:href="#DejaVuSans-Bold-61" x="381.396484"/>
     <use xlink:href="#DejaVuSans-Bold-6c" x="448.876953"/>
     <use xlink:href="#DejaVuSans-Bold-20" x="483.154297"/>
     <use xlink:href="#DejaVuSans-Bold-65" x="517.96875"/>
     <use xlink:href="#DejaVuSans-Bold-72" x="585.791016"/>
     <use xlink:href="#DejaVuSans-Bold-72" x="635.107422"/>
     <use xlink:href="#DejaVuSans-Bold-6f" x="684.423828"/>
     <use xlink:href="#DejaVuSans-Bold-72" x="753.125"/>
    </g>
   </g>
  </g>
 </g>
 <defs>
  <clipPath id="pa4acad1db2">
   <rect x="50.338786" y="311.64" width="376.893107" height="213.4"/>
  </clipPath>
  <clipPath id="p40b19fc0ee">
   <rect x="471.829393" y="311.64" width="376.893107" height="213.4"/>
  </clipPath>
  <clipPath id="pa2c4669838">
   <rect x="50.338786" y="29.04" width="798.383714" height="213.4"/>
  </clipPath>
 </defs>
</svg>
